<svg xmlns="http://www.w3.org/2000/svg" viewBox="0 0 434.42 79.15"><defs><style>.cls-1{fill:#2b283b;}</style></defs><title>Asset 17</title><g id="Layer_2" data-name="Layer 2"><g id="Layer_1-2" data-name="Layer 1"><path class="cls-1" d="M74.38,50.88a3.13,3.13,0,0,0-4.1,1.66A33.25,33.25,0,0,1,42.7,72.73V60.83A21.58,21.58,0,0,0,58.09,50.5a3.13,3.13,0,1,0-5.38-3.19,15.29,15.29,0,0,1-10,7.15V40.79a3.13,3.13,0,0,0-6.25,0v13.7A15.24,15.24,0,1,1,53.32,33,3.13,3.13,0,0,0,59,30.27,21.49,21.49,0,1,0,36.45,60.82V72.74a33.32,33.32,0,1,1,33.7-46.42,3.13,3.13,0,0,0,5.74-2.49A39.57,39.57,0,1,0,76,55,3.13,3.13,0,0,0,74.38,50.88Z"/><path class="cls-1" d="M100.31,39.23A15.83,15.83,0,0,1,116.5,23,15.44,15.44,0,0,1,130.24,31l-6.81,4a7.56,7.56,0,0,0-7-4.11,8,8,0,0,0-8.22,8.4,8,8,0,0,0,8.22,8.34,7.54,7.54,0,0,0,7-4l6.87,3.93a16.13,16.13,0,0,1-30.05-8.22Z"/><path class="cls-1" d="M165.87,23.89V54.56H158V50.94a12.21,12.21,0,0,1-10,4.48c-8.15,0-14.9-7.05-14.9-16.19S139.81,23,148,23a12.21,12.21,0,0,1,10,4.47V23.89ZM158,39.23a8.5,8.5,0,1,0-17,0,8.5,8.5,0,1,0,17,0Z"/><path class="cls-1" d="M190.89,23.28v8.83c-4.11-.49-9.32,1.35-9.32,7.79V54.56h-7.91V23.89h7.91v5.28C183.17,25,187,23.28,190.89,23.28Z"/><path class="cls-1" d="M228.92,39.23c0,9.14-6.75,16.19-15,16.19-4.48,0-7.73-1.66-9.94-4.48v3.62H196.1V11.63H204V27.51C206.22,24.69,209.47,23,214,23,222.17,23,228.92,30.09,228.92,39.23Zm-7.92,0a8.5,8.5,0,1,0-17,0,8.5,8.5,0,1,0,17,0Z"/><path class="cls-1" d="M233.51,39.23a16.23,16.23,0,1,1,16.2,16.19A16,16,0,0,1,233.51,39.23Zm24.54,0a8.32,8.32,0,1,0-16.63,0,8.32,8.32,0,1,0,16.63,0Z"/><path class="cls-1" d="M300.79,35.73V54.56h-7.91V36.71c0-4.17-2.52-6.31-6.07-6.31-3.87,0-6.75,2.27-6.75,7.6V54.56h-7.91V23.89h7.91v3.44c1.84-2.76,5-4.29,9.14-4.29C295.7,23,300.79,27.57,300.79,35.73Z"/><path class="cls-1" d="M306.55,39.23A15.83,15.83,0,0,1,322.74,23,15.42,15.42,0,0,1,336.48,31l-6.8,4a7.59,7.59,0,0,0-7-4.11,8,8,0,0,0-8.21,8.4,8,8,0,0,0,8.21,8.34,7.57,7.57,0,0,0,7.06-4l6.87,3.93a16.14,16.14,0,0,1-30.06-8.22Z"/><path class="cls-1" d="M341.39,10.46h7.91v44.1h-7.91Z"/><path class="cls-1" d="M356.23,15.37a4.88,4.88,0,1,1,4.84,4.84A4.89,4.89,0,0,1,356.23,15.37Zm.92,8.52h7.91V54.56h-7.91Z"/><path class="cls-1" d="M371.31,39.23A15.84,15.84,0,0,1,387.51,23,15.42,15.42,0,0,1,401.24,31l-6.8,4a7.59,7.59,0,0,0-7-4.11,8,8,0,0,0-8.21,8.4,8,8,0,0,0,8.21,8.34,7.57,7.57,0,0,0,7.06-4l6.87,3.93a16.14,16.14,0,0,1-30.06-8.22Z"/><path class="cls-1" d="M425.22,54.56,414.06,40.64V54.56h-7.91V11.63h7.91V37.39l10.55-13.5h9.45L421.73,39l12.69,15.52Z"/></g></g></svg>