<svg width="168" height="147" viewBox="0 0 168 147" fill="none" xmlns="http://www.w3.org/2000/svg">
<g clip-path="url(#clip0)">
<path fill-rule="evenodd" clip-rule="evenodd" d="M165.692 73.8772C165.692 113.306 133.729 145.268 94.3007 145.268C54.873 145.268 22.9096 113.306 22.9096 73.8772C22.9096 34.4487 54.873 2.48615 94.3007 2.48615C133.729 2.48615 165.692 34.4487 165.692 73.8772Z" fill="#DFF4DF"/>
<path fill-rule="evenodd" clip-rule="evenodd" d="M46.5337 127.734C46.5337 127.825 46.5337 127.908 46.5419 127.999C43.529 125.342 40.7396 122.428 38.1993 119.308C37.9336 118.977 37.6688 118.646 37.4039 118.306V115.55C37.6605 115.906 37.9262 116.262 38.1993 116.618C40.7065 119.904 43.4959 122.966 46.5337 125.764V127.734Z" fill="#95D898"/>
<path fill-rule="evenodd" clip-rule="evenodd" d="M151.87 114.639V117.446C151.605 117.786 151.348 118.116 151.083 118.455C148.666 121.526 146.01 124.398 143.129 127.031V124.771C146.026 121.981 148.691 118.952 151.083 115.716C151.348 115.359 151.613 115.004 151.87 114.639Z" fill="#95D898"/>
<path fill-rule="evenodd" clip-rule="evenodd" d="M151.87 30.3029V33.1172C151.613 32.753 151.349 32.3971 151.084 32.042C149.246 29.5414 147.235 27.1659 145.083 24.931C144.835 24.6661 144.577 24.4096 144.321 24.1455H146.631C146.879 24.4096 147.119 24.6661 147.359 24.931C148.659 26.3299 149.909 27.7867 151.084 29.2931C151.349 29.6325 151.605 29.9636 151.87 30.3029Z" fill="#95D898"/>
<path fill-rule="evenodd" clip-rule="evenodd" d="M151.87 24.1452V30.3026C151.605 29.9632 151.349 29.633 151.084 29.2936C149.909 27.7863 148.659 26.3304 147.359 24.9307C147.119 24.6666 146.879 24.4092 146.631 24.1452H151.87Z" fill="white"/>
<path fill-rule="evenodd" clip-rule="evenodd" d="M151.084 32.0416C151.349 32.3976 151.614 32.7527 151.87 33.1177V114.64C151.614 115.003 151.349 115.359 151.084 115.716C142.65 127.139 130.855 135.937 117.172 140.63C116.37 140.911 115.558 141.177 114.739 141.424H73.8656C73.0461 141.177 72.2349 140.911 71.4329 140.63C58.114 136.062 46.5755 127.601 38.199 116.618C37.9258 116.262 37.661 115.906 37.4044 115.551V24.1452H144.321C144.578 24.4092 144.835 24.6666 145.083 24.9307C147.236 27.1655 149.246 29.5411 151.084 32.0416Z" fill="white"/>
<path fill-rule="evenodd" clip-rule="evenodd" d="M151.87 30.3029C151.605 29.9636 151.349 29.6325 151.084 29.2931V118.455C151.349 118.116 151.605 117.785 151.87 117.446C152.135 117.09 152.4 116.734 152.665 116.37V31.379C152.4 31.0148 152.135 30.6589 151.87 30.3029ZM36.6099 30.4768V117.272C36.8748 117.619 37.1397 117.967 37.4046 118.306C37.6694 118.646 37.9343 118.977 38.1992 119.308V28.4406C37.9343 28.7716 37.6694 29.1027 37.4046 29.4421C37.1397 29.7815 36.8748 30.1291 36.6099 30.4768ZM146.631 24.1455C146.374 23.8798 146.118 23.6149 145.852 23.3509H42.7516C42.4868 23.6149 42.2302 23.8798 41.9728 24.1455C41.7253 24.4095 41.4852 24.6661 41.2452 24.931H147.359C147.119 24.6661 146.879 24.4095 146.631 24.1455ZM66.7473 140.63C67.4095 140.903 68.08 141.168 68.7504 141.425C69.4788 141.698 70.2155 141.963 70.9522 142.219H117.652C118.389 141.963 119.125 141.698 119.854 141.425C120.524 141.168 121.194 140.903 121.857 140.63H66.7473Z" fill="#95D898"/>
<path fill-rule="evenodd" clip-rule="evenodd" d="M56.9465 133.71H53.9261C52.8741 133.007 51.8568 132.279 50.8462 131.517H53.653C54.7274 132.279 55.8283 133.015 56.9465 133.71Z" fill="#95D898"/>
<path fill-rule="evenodd" clip-rule="evenodd" d="M137.773 131.517C136.763 132.279 135.738 133.015 134.694 133.71H131.665C132.783 133.015 133.884 132.279 134.96 131.517H137.773Z" fill="#95D898"/>
<path fill-rule="evenodd" clip-rule="evenodd" d="M108.166 144.761C103.68 145.63 99.0444 146.092 94.3015 146.092C89.5587 146.092 84.9234 145.63 80.4372 144.761H108.166Z" fill="#95D898"/>
<path fill-rule="evenodd" clip-rule="evenodd" d="M152.665 31.3789C152.401 31.0155 152.135 30.6596 151.87 30.3028V33.1179C152.135 33.4904 152.401 33.8712 152.665 34.2594C160.363 45.5586 164.865 59.1986 164.865 73.875C164.865 88.5497 160.363 102.191 152.665 113.489C152.401 113.878 152.135 114.26 151.87 114.64V117.445C152.135 117.09 152.401 116.734 152.665 116.37C161.381 104.443 166.521 89.7424 166.521 73.875C166.521 58.0067 161.381 43.3064 152.665 31.3789Z" fill="#95D898"/>
<path fill-rule="evenodd" clip-rule="evenodd" d="M94.3024 1.65602C74.1308 1.65602 55.8629 9.96636 42.7518 23.3506C42.4861 23.6147 42.2303 23.8804 41.9737 24.1452C41.7246 24.4093 41.4854 24.6667 41.2445 24.9308C40.1859 26.0647 39.1752 27.2318 38.1993 28.4403C37.9336 28.7722 37.6696 29.1025 37.4047 29.4418C37.1398 29.7812 36.875 30.1289 36.6101 30.4765C27.4886 42.5621 22.0836 57.6018 22.0836 73.8748C22.0836 90.147 27.4886 105.187 36.6101 117.272C36.875 117.62 37.1398 117.968 37.4047 118.307V115.551C37.1316 115.186 36.8667 114.822 36.6101 114.457C28.5067 102.977 23.739 88.9717 23.739 73.8748C23.739 58.7854 28.4984 44.7804 36.6101 33.299C36.8667 32.9266 37.1316 32.5632 37.4047 32.1982C37.6605 31.8431 37.9262 31.4872 38.1993 31.1304C39.8548 28.9618 41.6344 26.8925 43.5208 24.9308C43.7699 24.6667 44.0265 24.4093 44.2823 24.1452C44.5554 23.8804 44.8286 23.6147 45.1025 23.3506C57.8163 10.9505 75.1811 3.31147 94.3024 3.31147C113.423 3.31147 130.788 10.9505 143.502 23.3506C143.775 23.6147 144.049 23.8804 144.322 24.1452H146.631C146.374 23.8804 146.118 23.6147 145.853 23.3506C132.742 9.96636 114.474 1.65602 94.3024 1.65602Z" fill="#95D898"/>
<path fill-rule="evenodd" clip-rule="evenodd" d="M42.8946 28.8642C42.8946 29.4792 42.3955 29.9783 41.7805 29.9783C41.1655 29.9783 40.668 29.4792 40.668 28.8642C40.668 28.2492 41.1655 27.7501 41.7805 27.7501C42.3955 27.7501 42.8946 28.2492 42.8946 28.8642Z" fill="#95D898"/>
<path fill-rule="evenodd" clip-rule="evenodd" d="M45.7836 28.8642C45.7836 29.4792 45.2845 29.9783 44.6695 29.9783C44.0545 29.9783 43.5562 29.4792 43.5562 28.8642C43.5562 28.2492 44.0545 27.7501 44.6695 27.7501C45.2845 27.7501 45.7836 28.2492 45.7836 28.8642Z" fill="#95D898"/>
<path fill-rule="evenodd" clip-rule="evenodd" d="M48.5925 28.8642C48.5925 29.4792 48.0933 29.9783 47.4783 29.9783C46.8633 29.9783 46.3651 29.4792 46.3651 28.8642C46.3651 28.2492 46.8633 27.7501 47.4783 27.7501C48.0933 27.7501 48.5925 28.2492 48.5925 28.8642Z" fill="#95D898"/>
<path fill-rule="evenodd" clip-rule="evenodd" d="M152.62 32.7417H38.1853V31.8138H151.835C152.105 32.1151 152.359 32.4238 152.62 32.7417Z" fill="#95D898"/>
<mask id="mask0" mask-type="alpha" maskUnits="userSpaceOnUse" x="6" y="1" width="161" height="146">
<path fill-rule="evenodd" clip-rule="evenodd" d="M6.62178 146.093H166.521V1.65544H6.62178V146.093Z" fill="white"/>
</mask>
<g mask="url(#mask0)">
<path fill-rule="evenodd" clip-rule="evenodd" d="M38.1829 39.8466H152.665V38.9195H38.1829V39.8466Z" fill="#95D898"/>
<path fill-rule="evenodd" clip-rule="evenodd" d="M77.0559 99.3879H11.9108C9.67599 99.3879 7.86328 97.576 7.86328 95.3395V54.801C7.86328 52.5653 9.67599 50.7526 11.9108 50.7526H77.0559C79.2916 50.7526 81.1043 52.5653 81.1043 54.801V95.3395C81.1043 97.576 79.2916 99.3879 77.0559 99.3879Z" fill="white"/>
<path fill-rule="evenodd" clip-rule="evenodd" d="M77.0559 99.3879H11.9108C9.67599 99.3879 7.86328 97.576 7.86328 95.3395V54.801C7.86328 52.5653 9.67599 50.7526 11.9108 50.7526H77.0559C79.2916 50.7526 81.1043 52.5653 81.1043 54.801V95.3395C81.1043 97.576 79.2916 99.3879 77.0559 99.3879Z" stroke="#2AA43C" stroke-width="2.48317"/>
<path fill-rule="evenodd" clip-rule="evenodd" d="M9.14882 67.6274H79.8214V57.7121H9.14882V67.6274Z" fill="#95D898"/>
<path fill-rule="evenodd" clip-rule="evenodd" d="M53.2727 76.6174H12.7722C11.6846 76.6174 10.8022 75.7359 10.8022 74.6474V72.0823C10.8022 70.9947 11.6846 70.1124 12.7722 70.1124H53.2727C54.3603 70.1124 55.2426 70.9947 55.2426 72.0823V74.6474C55.2426 75.7359 54.3603 76.6174 53.2727 76.6174Z" fill="#DFF4DF"/>
<path fill-rule="evenodd" clip-rule="evenodd" d="M74.7029 76.6174H58.3446C57.6344 76.6174 57.0592 76.0422 57.0592 75.3311V71.3978C57.0592 70.6884 57.6344 70.1124 58.3446 70.1124H74.7029C75.4131 70.1124 75.9892 70.6884 75.9892 71.3978V75.3311C75.9892 76.0422 75.4131 76.6174 74.7029 76.6174Z" fill="#DFF4DF"/>
</g>
<path d="M89.403 63.2532H89.6916C89.9613 63.2532 90.1631 63.2003 90.297 63.0947C90.4309 62.9872 90.4979 62.8316 90.4979 62.6279C90.4979 62.4223 90.4413 62.2705 90.3281 62.1724C90.2168 62.0743 90.0414 62.0253 89.8019 62.0253H89.403V63.2532ZM91.3834 62.5968C91.3834 63.0419 91.2438 63.3824 90.9647 63.6181C90.6874 63.8539 90.2923 63.9718 89.7793 63.9718H89.403V65.4429H88.526V61.3067H89.8472C90.3489 61.3067 90.7298 61.4152 90.9901 61.6321C91.2523 61.8471 91.3834 62.1687 91.3834 62.5968ZM94.0868 65.4429L93.9199 65.0129H93.8972C93.752 65.1958 93.6021 65.3231 93.4474 65.3948C93.2946 65.4646 93.0947 65.4995 92.8476 65.4995C92.544 65.4995 92.3044 65.4127 92.129 65.2392C91.9555 65.0657 91.8688 64.8186 91.8688 64.498C91.8688 64.1622 91.9857 63.9152 92.2196 63.7567C92.4553 63.5964 92.8099 63.5078 93.2833 63.4908L93.8322 63.4738V63.3352C93.8322 63.0146 93.6681 62.8542 93.3399 62.8542C93.0872 62.8542 92.7901 62.9306 92.4487 63.0834L92.163 62.5006C92.527 62.3101 92.9306 62.2149 93.3738 62.2149C93.7982 62.2149 94.1236 62.3073 94.3499 62.4921C94.5762 62.677 94.6894 62.958 94.6894 63.3352V65.4429H94.0868ZM93.8322 63.9774L93.4983 63.9887C93.2475 63.9963 93.0608 64.0415 92.9382 64.1245C92.8156 64.2075 92.7543 64.3339 92.7543 64.5036C92.7543 64.7469 92.8938 64.8686 93.173 64.8686C93.3729 64.8686 93.5323 64.8111 93.6511 64.696C93.7718 64.581 93.8322 64.4282 93.8322 64.2377V63.9774ZM95.1097 62.2799H96.0546L96.6516 64.0595C96.7025 64.2141 96.7374 64.3971 96.7563 64.6083H96.7732C96.794 64.414 96.8345 64.2311 96.8949 64.0595L97.4805 62.2799H98.4056L97.0675 65.8475C96.9449 66.1775 96.7695 66.4246 96.5412 66.5887C96.3149 66.7528 96.0499 66.8348 95.7463 66.8348C95.5973 66.8348 95.4511 66.8188 95.3077 66.7867V66.1021C95.4115 66.1266 95.5246 66.1389 95.6472 66.1389C95.8 66.1389 95.933 66.0917 96.0461 65.9974C96.1612 65.905 96.2508 65.7645 96.3149 65.5759L96.3658 65.4203L95.1097 62.2799ZM101.675 65.4429H100.812V63.5955C100.812 63.3673 100.773 63.1966 100.696 63.0834C100.621 62.9684 100.501 62.9108 100.337 62.9108C100.116 62.9108 99.9557 62.9919 99.8557 63.1541C99.7558 63.3163 99.7058 63.5832 99.7058 63.9548V65.4429H98.8429V62.2799H99.5021L99.6181 62.6845H99.6662C99.7511 62.5393 99.8737 62.4261 100.034 62.345C100.194 62.262 100.378 62.2205 100.586 62.2205C101.059 62.2205 101.38 62.3752 101.548 62.6845H101.624C101.709 62.5374 101.833 62.4233 101.997 62.3422C102.163 62.2611 102.35 62.2205 102.558 62.2205C102.916 62.2205 103.187 62.3129 103.37 62.4978C103.554 62.6807 103.647 62.975 103.647 63.3805V65.4429H102.781V63.5955C102.781 63.3673 102.742 63.1966 102.665 63.0834C102.59 62.9684 102.47 62.9108 102.306 62.9108C102.095 62.9108 101.936 62.9863 101.83 63.1372C101.727 63.288 101.675 63.5276 101.675 63.8558V65.4429ZM105.827 62.8344C105.644 62.8344 105.501 62.8929 105.397 63.0098C105.293 63.1249 105.234 63.289 105.219 63.5021H106.429C106.426 63.289 106.37 63.1249 106.262 63.0098C106.155 62.8929 106.01 62.8344 105.827 62.8344ZM105.948 65.4995C105.439 65.4995 105.041 65.359 104.755 65.0779C104.468 64.7969 104.325 64.399 104.325 63.8841C104.325 63.3541 104.457 62.9448 104.721 62.6562C104.987 62.3658 105.353 62.2205 105.821 62.2205C106.268 62.2205 106.616 62.3478 106.865 62.6025C107.114 62.8571 107.239 63.2088 107.239 63.6577V64.0764H105.199C105.208 64.3216 105.281 64.5131 105.417 64.6507C105.552 64.7884 105.743 64.8573 105.988 64.8573C106.179 64.8573 106.359 64.8375 106.528 64.7979C106.698 64.7583 106.875 64.6951 107.06 64.6083V65.276C106.909 65.3514 106.748 65.4071 106.577 65.4429C106.405 65.4806 106.196 65.4995 105.948 65.4995ZM110.842 65.4429H109.979V63.5955C109.979 63.3673 109.938 63.1966 109.857 63.0834C109.776 62.9684 109.647 62.9108 109.469 62.9108C109.228 62.9108 109.054 62.9919 108.946 63.1541C108.839 63.3145 108.785 63.5813 108.785 63.9548V65.4429H107.922V62.2799H108.581L108.697 62.6845H108.745C108.841 62.5317 108.973 62.4167 109.141 62.3393C109.311 62.2601 109.503 62.2205 109.718 62.2205C110.086 62.2205 110.365 62.3205 110.556 62.5204C110.746 62.7184 110.842 63.0051 110.842 63.3805V65.4429ZM113.044 64.812C113.195 64.812 113.376 64.779 113.587 64.713V65.3552C113.372 65.4514 113.108 65.4995 112.795 65.4995C112.45 65.4995 112.198 65.4127 112.04 65.2392C111.883 65.0638 111.805 64.8016 111.805 64.4527V62.9278H111.392V62.5628L111.867 62.2743L112.116 61.6066H112.668V62.2799H113.554V62.9278H112.668V64.4527C112.668 64.5753 112.702 64.6658 112.77 64.7243C112.84 64.7828 112.931 64.812 113.044 64.812ZM117.905 64.5036C117.905 64.828 117.792 65.0751 117.566 65.2449C117.341 65.4146 117.004 65.4995 116.556 65.4995C116.325 65.4995 116.129 65.4835 115.967 65.4514C115.805 65.4212 115.653 65.3759 115.512 65.3156V64.6026C115.672 64.6781 115.852 64.7413 116.052 64.7922C116.254 64.8431 116.431 64.8686 116.584 64.8686C116.897 64.8686 117.054 64.7781 117.054 64.597C117.054 64.5291 117.033 64.4744 116.991 64.4329C116.95 64.3895 116.878 64.3414 116.776 64.2886C116.674 64.2339 116.539 64.1707 116.369 64.0991C116.126 63.9972 115.946 63.9029 115.831 63.8162C115.718 63.7294 115.635 63.6304 115.582 63.5191C115.531 63.4059 115.506 63.2673 115.506 63.1032C115.506 62.8222 115.614 62.6053 115.831 62.4525C116.05 62.2979 116.359 62.2205 116.759 62.2205C117.14 62.2205 117.511 62.3035 117.871 62.4695L117.611 63.0919C117.452 63.024 117.304 62.9684 117.167 62.925C117.029 62.8816 116.888 62.8599 116.745 62.8599C116.491 62.8599 116.363 62.9287 116.363 63.0664C116.363 63.1438 116.404 63.2107 116.485 63.2673C116.568 63.3239 116.748 63.4078 117.025 63.5191C117.272 63.6191 117.453 63.7124 117.568 63.7992C117.683 63.8859 117.768 63.9859 117.823 64.0991C117.878 64.2122 117.905 64.3471 117.905 64.5036ZM120.801 65.4429L120.685 65.0383H120.64C120.547 65.1855 120.416 65.2996 120.246 65.3807C120.077 65.4599 119.883 65.4995 119.666 65.4995C119.295 65.4995 119.015 65.4005 118.826 65.2024C118.638 65.0025 118.543 64.7158 118.543 64.3424V62.2799H119.406V64.1274C119.406 64.3556 119.447 64.5272 119.528 64.6423C119.609 64.7554 119.738 64.812 119.915 64.812C120.157 64.812 120.331 64.7318 120.439 64.5715C120.546 64.4093 120.6 64.1415 120.6 63.7681V62.2799H121.463V65.4429H120.801ZM123.634 65.4995C122.65 65.4995 122.158 64.9591 122.158 63.8784C122.158 63.3409 122.292 62.9306 122.559 62.6477C122.827 62.3629 123.211 62.2205 123.711 62.2205C124.077 62.2205 124.405 62.2922 124.695 62.4355L124.441 63.1032C124.305 63.0485 124.179 63.0042 124.062 62.9702C123.945 62.9344 123.828 62.9165 123.711 62.9165C123.262 62.9165 123.037 63.2352 123.037 63.8727C123.037 64.4914 123.262 64.8007 123.711 64.8007C123.877 64.8007 124.031 64.779 124.172 64.7356C124.313 64.6904 124.455 64.6206 124.596 64.5263V65.2647C124.457 65.3533 124.315 65.4146 124.172 65.4486C124.031 65.4825 123.851 65.4995 123.634 65.4995ZM126.598 65.4995C125.614 65.4995 125.121 64.9591 125.121 63.8784C125.121 63.3409 125.255 62.9306 125.523 62.6477C125.791 62.3629 126.175 62.2205 126.675 62.2205C127.04 62.2205 127.369 62.2922 127.659 62.4355L127.404 63.1032C127.269 63.0485 127.142 63.0042 127.025 62.9702C126.908 62.9344 126.791 62.9165 126.675 62.9165C126.226 62.9165 126.001 63.2352 126.001 63.8727C126.001 64.4914 126.226 64.8007 126.675 64.8007C126.84 64.8007 126.994 64.779 127.136 64.7356C127.277 64.6904 127.419 64.6206 127.56 64.5263V65.2647C127.42 65.3533 127.279 65.4146 127.136 65.4486C126.994 65.4825 126.815 65.4995 126.598 65.4995ZM129.587 62.8344C129.404 62.8344 129.261 62.8929 129.157 63.0098C129.054 63.1249 128.994 63.289 128.979 63.5021H130.19C130.186 63.289 130.13 63.1249 130.023 63.0098C129.915 62.8929 129.77 62.8344 129.587 62.8344ZM129.709 65.4995C129.2 65.4995 128.802 65.359 128.515 65.0779C128.228 64.7969 128.085 64.399 128.085 63.8841C128.085 63.3541 128.217 62.9448 128.481 62.6562C128.747 62.3658 129.114 62.2205 129.582 62.2205C130.029 62.2205 130.377 62.3478 130.626 62.6025C130.875 62.8571 130.999 63.2088 130.999 63.6577V64.0764H128.959C128.969 64.3216 129.041 64.5131 129.177 64.6507C129.313 64.7884 129.503 64.8573 129.749 64.8573C129.939 64.8573 130.119 64.8375 130.289 64.7979C130.459 64.7583 130.636 64.6951 130.821 64.6083V65.276C130.67 65.3514 130.509 65.4071 130.337 65.4429C130.165 65.4806 129.956 65.4995 129.709 65.4995ZM133.889 64.5036C133.889 64.828 133.776 65.0751 133.55 65.2449C133.325 65.4146 132.989 65.4995 132.54 65.4995C132.31 65.4995 132.113 65.4835 131.951 65.4514C131.789 65.4212 131.637 65.3759 131.496 65.3156V64.6026C131.656 64.6781 131.836 64.7413 132.036 64.7922C132.238 64.8431 132.415 64.8686 132.568 64.8686C132.881 64.8686 133.038 64.7781 133.038 64.597C133.038 64.5291 133.017 64.4744 132.975 64.4329C132.934 64.3895 132.862 64.3414 132.76 64.2886C132.658 64.2339 132.523 64.1707 132.353 64.0991C132.11 63.9972 131.93 63.9029 131.815 63.8162C131.702 63.7294 131.619 63.6304 131.566 63.5191C131.516 63.4059 131.49 63.2673 131.49 63.1032C131.49 62.8222 131.599 62.6053 131.815 62.4525C132.034 62.2979 132.344 62.2205 132.743 62.2205C133.124 62.2205 133.495 62.3035 133.855 62.4695L133.595 63.0919C133.436 63.024 133.288 62.9684 133.151 62.925C133.013 62.8816 132.873 62.8599 132.729 62.8599C132.475 62.8599 132.347 62.9287 132.347 63.0664C132.347 63.1438 132.388 63.2107 132.469 63.2673C132.552 63.3239 132.732 63.4078 133.009 63.5191C133.256 63.6191 133.437 63.7124 133.552 63.7992C133.668 63.8859 133.752 63.9859 133.807 64.0991C133.862 64.2122 133.889 64.3471 133.889 64.5036ZM136.751 64.5036C136.751 64.828 136.638 65.0751 136.412 65.2449C136.187 65.4146 135.85 65.4995 135.402 65.4995C135.171 65.4995 134.975 65.4835 134.813 65.4514C134.651 65.4212 134.499 65.3759 134.358 65.3156V64.6026C134.518 64.6781 134.698 64.7413 134.898 64.7922C135.1 64.8431 135.277 64.8686 135.43 64.8686C135.743 64.8686 135.899 64.7781 135.899 64.597C135.899 64.5291 135.879 64.4744 135.837 64.4329C135.796 64.3895 135.724 64.3414 135.622 64.2886C135.52 64.2339 135.385 64.1707 135.215 64.0991C134.971 63.9972 134.792 63.9029 134.677 63.8162C134.564 63.7294 134.481 63.6304 134.428 63.5191C134.377 63.4059 134.352 63.2673 134.352 63.1032C134.352 62.8222 134.46 62.6053 134.677 62.4525C134.896 62.2979 135.205 62.2205 135.605 62.2205C135.986 62.2205 136.357 62.3035 136.717 62.4695L136.457 63.0919C136.298 63.024 136.15 62.9684 136.013 62.925C135.875 62.8816 135.734 62.8599 135.591 62.8599C135.336 62.8599 135.209 62.9287 135.209 63.0664C135.209 63.1438 135.25 63.2107 135.331 63.2673C135.414 63.3239 135.594 63.4078 135.871 63.5191C136.118 63.6191 136.299 63.7124 136.414 63.7992C136.529 63.8859 136.614 63.9859 136.669 64.0991C136.724 64.2122 136.751 64.3471 136.751 64.5036ZM139.155 62.9278H138.408V65.4429H137.545V62.9278H137.069V62.5119L137.545 62.2799V62.0479C137.545 61.6877 137.633 61.4246 137.811 61.2586C137.988 61.0926 138.272 61.0097 138.662 61.0097C138.96 61.0097 139.225 61.054 139.457 61.1426L139.237 61.7763C139.063 61.7217 138.903 61.6943 138.756 61.6943C138.633 61.6943 138.544 61.7311 138.49 61.8046C138.435 61.8763 138.408 61.9687 138.408 62.0819V62.2799H139.155V62.9278ZM141.875 65.4429L141.759 65.0383H141.714C141.621 65.1855 141.49 65.2996 141.32 65.3807C141.151 65.4599 140.957 65.4995 140.74 65.4995C140.369 65.4995 140.089 65.4005 139.9 65.2024C139.712 65.0025 139.617 64.7158 139.617 64.3424V62.2799H140.48V64.1274C140.48 64.3556 140.521 64.5272 140.602 64.6423C140.683 64.7554 140.812 64.812 140.989 64.812C141.231 64.812 141.405 64.7318 141.513 64.5715C141.62 64.4093 141.674 64.1415 141.674 63.7681V62.2799H142.537V65.4429H141.875ZM144.287 65.4429H143.424V61.0408H144.287V65.4429Z" fill="#3B933F"/>
<path d="M90.6729 74.0134L90.3188 73.0288H88.9633L88.6165 74.0134H88.0054L89.3319 70.4535H89.9623L91.2888 74.0134H90.6729ZM90.166 72.5293L89.8338 71.5642C89.8096 71.4995 89.7756 71.3976 89.732 71.2586C89.6899 71.1196 89.6608 71.0177 89.6447 70.9531C89.601 71.1519 89.5372 71.3694 89.4531 71.6054L89.133 72.5293H90.166ZM93.5695 74.0134L93.4894 73.6618H93.4603C93.3811 73.7862 93.268 73.8841 93.1208 73.9552C92.9753 74.0263 92.8088 74.0619 92.6213 74.0619C92.2964 74.0619 92.0539 73.981 91.8938 73.8194C91.7338 73.6577 91.6537 73.4128 91.6537 73.0846V71.3314H92.2285V72.9852C92.2285 73.1905 92.2705 73.3449 92.3546 73.4484C92.4386 73.5502 92.5704 73.6011 92.7498 73.6011C92.9891 73.6011 93.1645 73.53 93.276 73.3877C93.3892 73.2439 93.4458 73.0038 93.4458 72.6675V71.3314H94.0181V74.0134H93.5695ZM95.8113 73.6011C95.9504 73.6011 96.0894 73.5793 96.2284 73.5357V73.9649C96.1654 73.9924 96.0837 74.015 95.9835 74.0328C95.8849 74.0522 95.7822 74.0619 95.6755 74.0619C95.1356 74.0619 94.8656 73.7774 94.8656 73.2083V71.763H94.4994V71.5108L94.8923 71.3023L95.0863 70.7348H95.4379V71.3314H96.2017V71.763H95.4379V73.1986C95.4379 73.336 95.4718 73.4379 95.5397 73.5041C95.6092 73.5688 95.6998 73.6011 95.8113 73.6011ZM99.1274 72.6675C99.1274 73.1056 99.0151 73.4476 98.7904 73.6933C98.5657 73.939 98.2528 74.0619 97.8519 74.0619C97.6013 74.0619 97.3799 74.0053 97.1875 73.8921C96.9951 73.779 96.8472 73.6165 96.7437 73.4047C96.6402 73.1929 96.5885 72.9472 96.5885 72.6675C96.5885 72.2326 96.7001 71.8932 96.9231 71.649C97.1462 71.4049 97.4607 71.2829 97.8665 71.2829C98.2545 71.2829 98.5616 71.4082 98.788 71.6587C99.0143 71.9077 99.1274 72.244 99.1274 72.6675ZM97.1753 72.6675C97.1753 73.2867 97.4041 73.5963 97.8616 73.5963C98.3143 73.5963 98.5406 73.2867 98.5406 72.6675C98.5406 72.0548 98.3127 71.7485 97.8568 71.7485C97.6175 71.7485 97.4437 71.8277 97.3354 71.9861C97.2287 72.1445 97.1753 72.3717 97.1753 72.6675ZM102.026 74.0134H101.454V72.3596C101.454 72.1542 101.415 72.0015 101.338 71.9012C101.26 71.7994 101.139 71.7485 100.974 71.7485C100.754 71.7485 100.593 71.8204 100.489 71.9643C100.387 72.1065 100.336 72.3442 100.336 72.6772V74.0134H99.7664V71.3314H100.213L100.293 71.683H100.322C100.396 71.5553 100.504 71.4567 100.644 71.3871C100.787 71.3176 100.943 71.2829 101.112 71.2829C101.525 71.2829 101.798 71.4235 101.932 71.7048H101.971C102.05 71.5722 102.161 71.4688 102.305 71.3944C102.449 71.32 102.614 71.2829 102.8 71.2829C103.12 71.2829 103.353 71.3637 103.498 71.5254C103.646 71.687 103.719 71.9336 103.719 72.265V74.0134H103.149V72.3596C103.149 72.1542 103.11 72.0015 103.03 71.9012C102.953 71.7994 102.832 71.7485 102.667 71.7485C102.445 71.7485 102.283 71.818 102.179 71.957C102.077 72.0944 102.026 72.3062 102.026 72.5924V74.0134ZM106.174 74.0134L106.06 73.6399H106.041C105.912 73.8032 105.782 73.9148 105.651 73.9746C105.52 74.0328 105.351 74.0619 105.146 74.0619C104.883 74.0619 104.677 73.9907 104.528 73.8485C104.381 73.7062 104.307 73.5049 104.307 73.2447C104.307 72.9682 104.41 72.7597 104.615 72.619C104.82 72.4784 105.133 72.4016 105.554 72.3887L106.017 72.3741V72.231C106.017 72.0597 105.976 71.932 105.895 71.8479C105.816 71.7622 105.693 71.7194 105.524 71.7194C105.387 71.7194 105.255 71.7396 105.129 71.78C105.003 71.8204 104.882 71.8681 104.765 71.9231L104.581 71.5157C104.727 71.4397 104.886 71.3823 105.059 71.3435C105.232 71.3031 105.395 71.2829 105.549 71.2829C105.89 71.2829 106.147 71.3572 106.32 71.506C106.494 71.6547 106.582 71.8883 106.582 72.2068V74.0134H106.174ZM105.326 73.6254C105.533 73.6254 105.698 73.568 105.823 73.4532C105.949 73.3368 106.012 73.1743 106.012 72.9658V72.733L105.668 72.7475C105.399 72.7572 105.204 72.8025 105.081 72.8833C104.959 72.9626 104.899 73.0846 104.899 73.2495C104.899 73.3691 104.934 73.4621 105.006 73.5284C105.077 73.5931 105.183 73.6254 105.326 73.6254ZM108.358 73.6011C108.497 73.6011 108.636 73.5793 108.775 73.5357V73.9649C108.712 73.9924 108.63 74.015 108.53 74.0328C108.432 74.0522 108.329 74.0619 108.222 74.0619C107.682 74.0619 107.412 73.7774 107.412 73.2083V71.763H107.046V71.5108L107.439 71.3023L107.633 70.7348H107.985V71.3314H108.748V71.763H107.985V73.1986C107.985 73.336 108.019 73.4379 108.086 73.5041C108.156 73.5688 108.246 73.6011 108.358 73.6011ZM109.865 74.0134H109.295V71.3314H109.865V74.0134ZM109.261 70.6209C109.261 70.519 109.289 70.4406 109.344 70.3856C109.4 70.3307 109.48 70.3032 109.584 70.3032C109.684 70.3032 109.762 70.3307 109.817 70.3856C109.873 70.4406 109.901 70.519 109.901 70.6209C109.901 70.7178 109.873 70.7946 109.817 70.8512C109.762 70.9062 109.684 70.9337 109.584 70.9337C109.48 70.9337 109.4 70.9062 109.344 70.8512C109.289 70.7946 109.261 70.7178 109.261 70.6209ZM111.746 74.0619C111.34 74.0619 111.031 73.9439 110.819 73.7078C110.609 73.4702 110.504 73.1299 110.504 72.6869C110.504 72.2359 110.614 71.8891 110.834 71.6466C111.055 71.4041 111.375 71.2829 111.792 71.2829C112.075 71.2829 112.329 71.3354 112.556 71.4405L112.383 71.8988C112.143 71.805 111.944 71.7582 111.787 71.7582C111.323 71.7582 111.091 72.0661 111.091 72.6821C111.091 72.9828 111.148 73.2091 111.263 73.3611C111.379 73.5114 111.549 73.5866 111.772 73.5866C112.026 73.5866 112.266 73.5235 112.493 73.3974V73.8946C112.391 73.9544 112.282 73.9972 112.165 74.0231C112.05 74.0489 111.911 74.0619 111.746 74.0619ZM115.737 74.0619C115.398 74.0619 115.134 73.9398 114.947 73.6957H114.913C114.935 73.922 114.947 74.0595 114.947 74.108V75.2065H114.377V71.3314H114.837C114.85 71.3815 114.877 71.5011 114.917 71.6903H114.947C115.124 71.4187 115.391 71.2829 115.747 71.2829C116.081 71.2829 116.342 71.4041 116.528 71.6466C116.715 71.8891 116.809 72.2294 116.809 72.6675C116.809 73.1056 116.714 73.4476 116.523 73.6933C116.334 73.939 116.072 74.0619 115.737 74.0619ZM115.599 71.7485C115.373 71.7485 115.207 71.8147 115.102 71.9473C114.998 72.0799 114.947 72.2917 114.947 72.5827V72.6675C114.947 72.9941 114.998 73.2309 115.102 73.378C115.205 73.5235 115.374 73.5963 115.609 73.5963C115.806 73.5963 115.958 73.5155 116.064 73.3538C116.171 73.1921 116.225 72.9618 116.225 72.6627C116.225 72.362 116.171 72.1348 116.064 71.9813C115.959 71.8261 115.804 71.7485 115.599 71.7485ZM119.131 74.0134L119.017 73.6399H118.997C118.868 73.8032 118.738 73.9148 118.607 73.9746C118.476 74.0328 118.308 74.0619 118.103 74.0619C117.839 74.0619 117.633 73.9907 117.484 73.8485C117.337 73.7062 117.264 73.5049 117.264 73.2447C117.264 72.9682 117.366 72.7597 117.572 72.619C117.777 72.4784 118.09 72.4016 118.51 72.3887L118.973 72.3741V72.231C118.973 72.0597 118.933 71.932 118.852 71.8479C118.773 71.7622 118.649 71.7194 118.481 71.7194C118.344 71.7194 118.212 71.7396 118.086 71.78C117.96 71.8204 117.838 71.8681 117.722 71.9231L117.538 71.5157C117.683 71.4397 117.842 71.3823 118.015 71.3435C118.188 71.3031 118.352 71.2829 118.505 71.2829C118.846 71.2829 119.103 71.3572 119.276 71.506C119.451 71.6547 119.538 71.8883 119.538 72.2068V74.0134H119.131ZM118.282 73.6254C118.489 73.6254 118.655 73.568 118.779 73.4532C118.905 73.3368 118.968 73.1743 118.968 72.9658V72.733L118.624 72.7475C118.356 72.7572 118.16 72.8025 118.037 72.8833C117.916 72.9626 117.855 73.0846 117.855 73.2495C117.855 73.3691 117.891 73.4621 117.962 73.5284C118.033 73.5931 118.14 73.6254 118.282 73.6254ZM119.908 71.3314H120.529L121.074 72.8518C121.157 73.0685 121.212 73.2721 121.239 73.4629H121.259C121.273 73.374 121.3 73.2665 121.339 73.1404C121.378 73.0127 121.583 72.4097 121.955 71.3314H122.571L121.424 74.3699C121.215 74.9276 120.867 75.2065 120.381 75.2065C120.255 75.2065 120.132 75.1927 120.012 75.1652V74.7142C120.098 74.7336 120.196 74.7433 120.306 74.7433C120.581 74.7433 120.774 74.5841 120.885 74.2656L120.985 74.0134L119.908 71.3314ZM125.22 74.0134H124.648V72.3596C124.648 72.1542 124.609 72.0015 124.531 71.9012C124.454 71.7994 124.332 71.7485 124.167 71.7485C123.948 71.7485 123.786 71.8204 123.682 71.9643C123.581 72.1065 123.53 72.3442 123.53 72.6772V74.0134H122.96V71.3314H123.406L123.486 71.683H123.515C123.59 71.5553 123.697 71.4567 123.838 71.3871C123.98 71.3176 124.136 71.2829 124.306 71.2829C124.718 71.2829 124.991 71.4235 125.125 71.7048H125.164C125.243 71.5722 125.355 71.4688 125.499 71.3944C125.643 71.32 125.808 71.2829 125.993 71.2829C126.314 71.2829 126.546 71.3637 126.692 71.5254C126.839 71.687 126.913 71.9336 126.913 72.265V74.0134H126.343V72.3596C126.343 72.1542 126.303 72.0015 126.224 71.9012C126.146 71.7994 126.025 71.7485 125.86 71.7485C125.639 71.7485 125.476 71.818 125.373 71.957C125.271 72.0944 125.22 72.3062 125.22 72.5924V74.0134ZM128.861 74.0619C128.444 74.0619 128.117 73.9406 127.881 73.6981C127.647 73.454 127.53 73.1186 127.53 72.6918C127.53 72.2537 127.639 71.9093 127.857 71.6587C128.075 71.4082 128.375 71.2829 128.757 71.2829C129.111 71.2829 129.39 71.3904 129.596 71.6054C129.801 71.8204 129.904 72.1162 129.904 72.4929V72.8009H128.116C128.125 73.0612 128.195 73.2616 128.327 73.4023C128.46 73.5413 128.647 73.6108 128.888 73.6108C129.046 73.6108 129.193 73.5963 129.329 73.5672C129.466 73.5365 129.614 73.4864 129.77 73.4168V73.88C129.631 73.9463 129.491 73.9932 129.348 74.0207C129.206 74.0481 129.044 74.0619 128.861 74.0619ZM128.757 71.7145C128.576 71.7145 128.43 71.7719 128.32 71.8867C128.212 72.0015 128.147 72.1688 128.126 72.3887H129.344C129.34 72.1672 129.287 71.9998 129.183 71.8867C129.08 71.7719 128.938 71.7145 128.757 71.7145ZM132.892 74.0134H132.32V72.3644C132.32 72.1575 132.278 72.0031 132.194 71.9012C132.112 71.7994 131.98 71.7485 131.799 71.7485C131.558 71.7485 131.382 71.8196 131.27 71.9619C131.159 72.1041 131.103 72.3426 131.103 72.6772V74.0134H130.533V71.3314H130.979L131.059 71.683H131.088C131.169 71.5553 131.284 71.4567 131.433 71.3871C131.581 71.3176 131.746 71.2829 131.927 71.2829C132.571 71.2829 132.892 71.6102 132.892 72.265V74.0134ZM134.666 73.6011C134.805 73.6011 134.944 73.5793 135.083 73.5357V73.9649C135.02 73.9924 134.939 74.015 134.838 74.0328C134.74 74.0522 134.637 74.0619 134.53 74.0619C133.991 74.0619 133.721 73.7774 133.721 73.2083V71.763H133.354V71.5108L133.747 71.3023L133.941 70.7348H134.293V71.3314H135.057V71.763H134.293V73.1986C134.293 73.336 134.327 73.4379 134.395 73.5041C134.464 73.5688 134.555 73.6011 134.666 73.6011ZM137.874 73.6011C138.014 73.6011 138.153 73.5793 138.292 73.5357V73.9649C138.229 73.9924 138.147 74.015 138.047 74.0328C137.948 74.0522 137.845 74.0619 137.739 74.0619C137.199 74.0619 136.929 73.7774 136.929 73.2083V71.763H136.563V71.5108L136.955 71.3023L137.149 70.7348H137.501V71.3314H138.265V71.763H137.501V73.1986C137.501 73.336 137.535 73.4379 137.603 73.5041C137.672 73.5688 137.763 73.6011 137.874 73.6011ZM141.191 72.6675C141.191 73.1056 141.078 73.4476 140.854 73.6933C140.629 73.939 140.316 74.0619 139.915 74.0619C139.664 74.0619 139.443 74.0053 139.251 73.8921C139.058 73.779 138.91 73.6165 138.807 73.4047C138.703 73.1929 138.652 72.9472 138.652 72.6675C138.652 72.2326 138.763 71.8932 138.986 71.649C139.209 71.4049 139.524 71.2829 139.93 71.2829C140.318 71.2829 140.625 71.4082 140.851 71.6587C141.077 71.9077 141.191 72.244 141.191 72.6675ZM139.238 72.6675C139.238 73.2867 139.467 73.5963 139.925 73.5963C140.377 73.5963 140.604 73.2867 140.604 72.6675C140.604 72.0548 140.376 71.7485 139.92 71.7485C139.681 71.7485 139.507 71.8277 139.399 71.9861C139.292 72.1445 139.238 72.3717 139.238 72.6675Z" fill="#41AF4B"/>
<path d="M89.9763 76.9009C89.6433 76.9009 89.3814 77.0189 89.1907 77.2549C88.9999 77.491 88.9045 77.8167 88.9045 78.2322C88.9045 78.6671 88.9959 78.9961 89.1785 79.2192C89.3628 79.4423 89.6288 79.5538 89.9763 79.5538C90.1267 79.5538 90.2722 79.5393 90.4128 79.5102C90.5535 79.4794 90.6998 79.4406 90.8518 79.3938V79.8909C90.5737 79.996 90.2585 80.0485 89.906 80.0485C89.3871 80.0485 88.9886 79.8917 88.7105 79.5781C88.4325 79.2628 88.2934 78.8126 88.2934 78.2273C88.2934 77.8588 88.3605 77.5362 88.4947 77.2598C88.6305 76.9833 88.8261 76.7716 89.0815 76.6244C89.337 76.4773 89.6369 76.4038 89.9812 76.4038C90.3433 76.4038 90.678 76.4798 90.9851 76.6317L90.7766 77.1143C90.657 77.0577 90.5301 77.0084 90.3959 76.9664C90.2633 76.9227 90.1235 76.9009 89.9763 76.9009ZM93.2149 80L93.1009 79.6266H93.0815C92.9522 79.7898 92.822 79.9014 92.6911 79.9612C92.5601 80.0194 92.392 80.0485 92.1867 80.0485C91.9232 80.0485 91.7171 79.9774 91.5683 79.8351C91.4212 79.6928 91.3476 79.4916 91.3476 79.2313C91.3476 78.9548 91.4503 78.7463 91.6556 78.6056C91.8609 78.465 92.1738 78.3882 92.5941 78.3753L93.0573 78.3607V78.2176C93.0573 78.0463 93.0168 77.9186 92.936 77.8345C92.8568 77.7488 92.7331 77.706 92.565 77.706C92.4276 77.706 92.2958 77.7262 92.1697 77.7666C92.0436 77.807 91.9224 77.8547 91.806 77.9097L91.6217 77.5023C91.7672 77.4263 91.9264 77.3689 92.0994 77.3301C92.2724 77.2897 92.4357 77.2695 92.5892 77.2695C92.9303 77.2695 93.1874 77.3439 93.3604 77.4926C93.535 77.6413 93.6223 77.8749 93.6223 78.1934V80H93.2149ZM92.3661 79.612C92.5731 79.612 92.7388 79.5546 92.8633 79.4398C92.9894 79.3234 93.0524 79.161 93.0524 78.9524V78.7196L92.7081 78.7342C92.4397 78.7439 92.2441 78.7891 92.1212 78.87C92 78.9492 91.9393 79.0712 91.9393 79.2361C91.9393 79.3558 91.9749 79.4487 92.046 79.515C92.1172 79.5797 92.2239 79.612 92.3661 79.612ZM95.7599 77.2695C95.8746 77.2695 95.9692 77.2776 96.0436 77.2937L95.9878 77.8248C95.907 77.8054 95.8229 77.7957 95.7356 77.7957C95.5077 77.7957 95.3226 77.8701 95.1803 78.0188C95.0396 78.1675 94.9693 78.3607 94.9693 78.5984V80H94.3994V77.318H94.8456L94.9208 77.7909H94.9499C95.0388 77.6308 95.1544 77.5039 95.2967 77.4101C95.4406 77.3164 95.595 77.2695 95.7599 77.2695ZM97.895 77.2695C98.2297 77.2695 98.4899 77.3907 98.6759 77.6332C98.8634 77.8757 98.9572 78.216 98.9572 78.6541C98.9572 79.0939 98.8626 79.4366 98.6734 79.6823C98.4843 79.9264 98.2216 80.0485 97.8853 80.0485C97.5458 80.0485 97.2823 79.9264 97.0948 79.6823H97.056L96.9517 80H96.5249V76.2267H97.0948V77.124C97.0948 77.1903 97.0915 77.2889 97.0851 77.4198C97.0786 77.5508 97.0738 77.634 97.0705 77.6696H97.0948C97.2758 77.4029 97.5426 77.2695 97.895 77.2695ZM97.7471 77.7351C97.5175 77.7351 97.3518 77.803 97.25 77.9388C97.1497 78.073 97.098 78.2985 97.0948 78.6153V78.6541C97.0948 78.9807 97.1465 79.2175 97.25 79.3647C97.3534 79.5102 97.5224 79.5829 97.7568 79.5829C97.9589 79.5829 98.1116 79.5029 98.2151 79.3428C98.3202 79.1828 98.3727 78.9516 98.3727 78.6493C98.3727 78.0398 98.1642 77.7351 97.7471 77.7351ZM101.98 78.6541C101.98 79.0923 101.867 79.4342 101.643 79.6799C101.418 79.9256 101.105 80.0485 100.704 80.0485C100.454 80.0485 100.232 79.9919 100.04 79.8788C99.8475 79.7656 99.6996 79.6031 99.5961 79.3913C99.4926 79.1796 99.4409 78.9338 99.4409 78.6541C99.4409 78.2193 99.5525 77.8798 99.7756 77.6357C99.9987 77.3915 100.313 77.2695 100.719 77.2695C101.107 77.2695 101.414 77.3948 101.64 77.6454C101.867 77.8943 101.98 78.2306 101.98 78.6541ZM100.028 78.6541C100.028 79.2733 100.257 79.5829 100.714 79.5829C101.167 79.5829 101.393 79.2733 101.393 78.6541C101.393 78.0414 101.165 77.7351 100.709 77.7351C100.47 77.7351 100.296 77.8143 100.188 77.9727C100.081 78.1312 100.028 78.3583 100.028 78.6541ZM104.978 80H104.406V78.351C104.406 78.1441 104.364 77.9897 104.28 77.8879C104.197 77.786 104.066 77.7351 103.885 77.7351C103.644 77.7351 103.468 77.8062 103.356 77.9485C103.244 78.0907 103.189 78.3292 103.189 78.6638V80H102.619V77.318H103.065L103.145 77.6696H103.174C103.255 77.5419 103.37 77.4433 103.518 77.3738C103.667 77.3042 103.832 77.2695 104.013 77.2695C104.657 77.2695 104.978 77.5969 104.978 78.2516V80ZM107.322 76.9009C106.989 76.9009 106.727 77.0189 106.536 77.2549C106.346 77.491 106.25 77.8167 106.25 78.2322C106.25 78.6671 106.342 78.9961 106.524 79.2192C106.709 79.4423 106.974 79.5538 107.322 79.5538C107.472 79.5538 107.618 79.5393 107.759 79.5102C107.899 79.4794 108.045 79.4406 108.197 79.3938V79.8909C107.919 79.996 107.604 80.0485 107.252 80.0485C106.733 80.0485 106.334 79.8917 106.056 79.5781C105.778 79.2628 105.639 78.8126 105.639 78.2273C105.639 77.8588 105.706 77.5362 105.84 77.2598C105.976 76.9833 106.172 76.7716 106.427 76.6244C106.683 76.4773 106.983 76.4038 107.327 76.4038C107.689 76.4038 108.024 76.4798 108.331 76.6317L108.122 77.1143C108.003 77.0577 107.876 77.0084 107.742 76.9664C107.609 76.9227 107.469 76.9009 107.322 76.9009ZM109.452 80H108.882V76.2267H109.452V80ZM110.821 80H110.251V77.318H110.821V80ZM110.217 76.6075C110.217 76.5056 110.245 76.4272 110.3 76.3722C110.356 76.3173 110.436 76.2898 110.54 76.2898C110.64 76.2898 110.718 76.3173 110.773 76.3722C110.829 76.4272 110.858 76.5056 110.858 76.6075C110.858 76.7045 110.829 76.7813 110.773 76.8378C110.718 76.8928 110.64 76.9203 110.54 76.9203C110.436 76.9203 110.356 76.8928 110.3 76.8378C110.245 76.7813 110.217 76.7045 110.217 76.6075ZM112.702 80.0485C112.296 80.0485 111.987 79.9305 111.775 79.6945C111.565 79.4568 111.46 79.1165 111.46 78.6735C111.46 78.2225 111.57 77.8757 111.79 77.6332C112.011 77.3907 112.331 77.2695 112.748 77.2695C113.031 77.2695 113.285 77.322 113.512 77.4271L113.34 77.8854C113.099 77.7917 112.9 77.7448 112.743 77.7448C112.279 77.7448 112.047 78.0527 112.047 78.6687C112.047 78.9694 112.104 79.1957 112.219 79.3477C112.336 79.498 112.505 79.5732 112.728 79.5732C112.982 79.5732 113.222 79.5102 113.449 79.3841V79.8812C113.347 79.941 113.238 79.9838 113.121 80.0097C113.006 80.0356 112.867 80.0485 112.702 80.0485ZM114.611 78.5838L114.934 78.1813L115.744 77.318H116.401L115.322 78.4698L116.469 80H115.8L114.939 78.8239L114.626 79.0809V80H114.061V76.2267H114.626V78.0673L114.597 78.5838H114.611ZM120.516 80H119.944V78.351C119.944 78.1441 119.902 77.9897 119.818 77.8879C119.735 77.786 119.604 77.7351 119.422 77.7351C119.183 77.7351 119.007 77.807 118.894 77.9509C118.782 78.0932 118.727 78.3324 118.727 78.6687V80H118.157V76.2267H118.727V77.1846C118.727 77.3382 118.717 77.5023 118.697 77.6769H118.734C118.811 77.5475 118.919 77.4473 119.056 77.3762C119.195 77.3051 119.357 77.2695 119.541 77.2695C120.191 77.2695 120.516 77.5969 120.516 78.2516V80ZM122.969 80L122.855 79.6266H122.836C122.706 79.7898 122.576 79.9014 122.445 79.9612C122.314 80.0194 122.146 80.0485 121.941 80.0485C121.677 80.0485 121.471 79.9774 121.322 79.8351C121.175 79.6928 121.102 79.4916 121.102 79.2313C121.102 78.9548 121.204 78.7463 121.41 78.6056C121.615 78.465 121.928 78.3882 122.348 78.3753L122.811 78.3607V78.2176C122.811 78.0463 122.771 77.9186 122.69 77.8345C122.611 77.7488 122.487 77.706 122.319 77.706C122.182 77.706 122.05 77.7262 121.924 77.7666C121.798 77.807 121.676 77.8547 121.56 77.9097L121.376 77.5023C121.521 77.4263 121.681 77.3689 121.853 77.3301C122.026 77.2897 122.19 77.2695 122.343 77.2695C122.684 77.2695 122.941 77.3439 123.114 77.4926C123.289 77.6413 123.376 77.8749 123.376 78.1934V80H122.969ZM122.12 79.612C122.327 79.612 122.493 79.5546 122.617 79.4398C122.743 79.3234 122.806 79.161 122.806 78.9524V78.7196L122.462 78.7342C122.194 78.7439 121.998 78.7891 121.875 78.87C121.754 78.9492 121.693 79.0712 121.693 79.2361C121.693 79.3558 121.729 79.4487 121.8 79.515C121.871 79.5797 121.978 79.612 122.12 79.612ZM125.955 79.2361C125.955 79.498 125.86 79.6993 125.669 79.84C125.478 79.979 125.205 80.0485 124.85 80.0485C124.492 80.0485 124.205 79.9943 123.989 79.886V79.3938C124.304 79.5393 124.597 79.612 124.869 79.612C125.22 79.612 125.395 79.5061 125.395 79.2943C125.395 79.2264 125.376 79.1699 125.337 79.1246C125.298 79.0793 125.234 79.0324 125.145 78.9839C125.056 78.9354 124.933 78.8805 124.774 78.819C124.466 78.6994 124.256 78.5798 124.146 78.4601C124.038 78.3405 123.984 78.1853 123.984 77.9946C123.984 77.765 124.076 77.5872 124.26 77.4611C124.446 77.3333 124.698 77.2695 125.017 77.2695C125.332 77.2695 125.63 77.3333 125.912 77.4611L125.727 77.8903C125.438 77.7706 125.195 77.7108 124.997 77.7108C124.697 77.7108 124.546 77.7965 124.546 77.9679C124.546 78.0519 124.585 78.1231 124.663 78.1813C124.742 78.2395 124.913 78.3195 125.177 78.4213C125.398 78.507 125.559 78.5854 125.659 78.6566C125.76 78.7277 125.834 78.8101 125.883 78.9039C125.931 78.9961 125.955 79.1068 125.955 79.2361ZM129.197 77.2695C129.532 77.2695 129.792 77.3907 129.978 77.6332C130.166 77.8757 130.26 78.216 130.26 78.6541C130.26 79.0939 130.165 79.4366 129.976 79.6823C129.787 79.9264 129.524 80.0485 129.188 80.0485C128.848 80.0485 128.585 79.9264 128.397 79.6823H128.358L128.254 80H127.827V76.2267H128.397V77.124C128.397 77.1903 128.394 77.2889 128.387 77.4198C128.381 77.5508 128.376 77.634 128.373 77.6696H128.397C128.578 77.4029 128.845 77.2695 129.197 77.2695ZM129.05 77.7351C128.82 77.7351 128.654 77.803 128.552 77.9388C128.452 78.073 128.4 78.2985 128.397 78.6153V78.6541C128.397 78.9807 128.449 79.2175 128.552 79.3647C128.656 79.5102 128.825 79.5829 129.059 79.5829C129.261 79.5829 129.414 79.5029 129.518 79.3428C129.623 79.1828 129.675 78.9516 129.675 78.6493C129.675 78.0398 129.467 77.7351 129.05 77.7351ZM132.075 80.0485C131.658 80.0485 131.331 79.9273 131.095 79.6848C130.861 79.4406 130.743 79.1052 130.743 78.6784C130.743 78.2403 130.852 77.8959 131.071 77.6454C131.289 77.3948 131.589 77.2695 131.97 77.2695C132.324 77.2695 132.604 77.377 132.809 77.592C133.015 77.807 133.117 78.1029 133.117 78.4795V78.7875H131.33C131.338 79.0478 131.409 79.2483 131.541 79.3889C131.674 79.5279 131.86 79.5975 132.101 79.5975C132.26 79.5975 132.407 79.5829 132.543 79.5538C132.68 79.5231 132.827 79.473 132.984 79.4035V79.8666C132.845 79.9329 132.704 79.9798 132.562 80.0073C132.42 80.0348 132.257 80.0485 132.075 80.0485ZM131.97 77.7011C131.789 77.7011 131.644 77.7585 131.534 77.8733C131.426 77.9881 131.361 78.1554 131.34 78.3753H132.557C132.554 78.1538 132.501 77.9865 132.397 77.8733C132.294 77.7585 132.151 77.7011 131.97 77.7011ZM134.918 80.0485C134.501 80.0485 134.174 79.9273 133.938 79.6848C133.704 79.4406 133.587 79.1052 133.587 78.6784C133.587 78.2403 133.696 77.8959 133.914 77.6454C134.132 77.3948 134.432 77.2695 134.814 77.2695C135.168 77.2695 135.447 77.377 135.653 77.592C135.858 77.807 135.961 78.1029 135.961 78.4795V78.7875H134.173C134.182 79.0478 134.252 79.2483 134.384 79.3889C134.517 79.5279 134.704 79.5975 134.945 79.5975C135.103 79.5975 135.25 79.5829 135.386 79.5538C135.523 79.5231 135.67 79.473 135.827 79.4035V79.8666C135.688 79.9329 135.548 79.9798 135.405 80.0073C135.263 80.0348 135.101 80.0485 134.918 80.0485ZM134.814 77.7011C134.633 77.7011 134.487 77.7585 134.377 77.8733C134.269 77.9881 134.204 78.1554 134.183 78.3753H135.4C135.397 78.1538 135.344 77.9865 135.24 77.8733C135.137 77.7585 134.995 77.7011 134.814 77.7011ZM138.949 80H138.377V78.351C138.377 78.1441 138.335 77.9897 138.251 77.8879C138.169 77.786 138.037 77.7351 137.856 77.7351C137.615 77.7351 137.439 77.8062 137.327 77.9485C137.216 78.0907 137.16 78.3292 137.16 78.6638V80H136.59V77.318H137.036L137.116 77.6696H137.145C137.226 77.5419 137.341 77.4433 137.49 77.3738C137.638 77.3042 137.803 77.2695 137.984 77.2695C138.628 77.2695 138.949 77.5969 138.949 78.2516V80Z" fill="#41AF4B"/>
<path d="M90.2091 85.2361C90.2091 85.498 90.1138 85.6993 89.923 85.84C89.7322 85.979 89.459 86.0485 89.1034 86.0485C88.7461 86.0485 88.4591 85.9943 88.2425 85.886V85.3938C88.5577 85.5393 88.8512 85.612 89.1228 85.612C89.4736 85.612 89.649 85.5061 89.649 85.2943C89.649 85.2264 89.6296 85.1699 89.5908 85.1246C89.552 85.0793 89.4881 85.0324 89.3992 84.9839C89.3103 84.9354 89.1866 84.8805 89.0282 84.819C88.7194 84.6994 88.5101 84.5798 88.4001 84.4601C88.2918 84.3405 88.2376 84.1853 88.2376 83.9946C88.2376 83.765 88.3298 83.5872 88.5141 83.4611C88.7 83.3333 88.9522 83.2695 89.2707 83.2695C89.5859 83.2695 89.8842 83.3333 90.1655 83.4611L89.9812 83.8903C89.6918 83.7706 89.4485 83.7108 89.2513 83.7108C88.9506 83.7108 88.8002 83.7965 88.8002 83.9679C88.8002 84.0519 88.839 84.1231 88.9166 84.1813C88.9959 84.2395 89.1672 84.3195 89.4307 84.4213C89.6522 84.507 89.8131 84.5854 89.9133 84.6566C90.0135 84.7277 90.0879 84.8101 90.1364 84.9039C90.1849 84.9961 90.2091 85.1068 90.2091 85.2361ZM92.7008 86L92.6208 85.6484H92.5917C92.5124 85.7729 92.3993 85.8707 92.2522 85.9418C92.1067 86.0129 91.9401 86.0485 91.7526 86.0485C91.4277 86.0485 91.1852 85.9677 91.0251 85.806C90.8651 85.6443 90.7851 85.3994 90.7851 85.0712V83.318H91.3598V84.9718C91.3598 85.1771 91.4018 85.3315 91.4859 85.435C91.5699 85.5368 91.7017 85.5878 91.8811 85.5878C92.1204 85.5878 92.2958 85.5166 92.4074 85.3744C92.5205 85.2305 92.5771 84.9904 92.5771 84.6541V83.318H93.1494V86H92.7008ZM95.0251 86.0485C94.6193 86.0485 94.3105 85.9305 94.0988 85.6945C93.8886 85.4568 93.7835 85.1165 93.7835 84.6735C93.7835 84.2225 93.8934 83.8757 94.1133 83.6332C94.3348 83.3907 94.6541 83.2695 95.0712 83.2695C95.3541 83.2695 95.6087 83.322 95.835 83.4271L95.6629 83.8854C95.422 83.7917 95.2231 83.7448 95.0663 83.7448C94.6023 83.7448 94.3703 84.0527 94.3703 84.6687C94.3703 84.9694 94.4277 85.1957 94.5425 85.3477C94.6589 85.498 94.8287 85.5732 95.0518 85.5732C95.3056 85.5732 95.5457 85.5102 95.772 85.3841V85.8812C95.6701 85.941 95.561 85.9838 95.4446 86.0097C95.3298 86.0356 95.19 86.0485 95.0251 86.0485ZM97.4658 86.0485C97.06 86.0485 96.7512 85.9305 96.5395 85.6945C96.3293 85.4568 96.2242 85.1165 96.2242 84.6735C96.2242 84.2225 96.3341 83.8757 96.554 83.6332C96.7755 83.3907 97.0948 83.2695 97.5119 83.2695C97.7948 83.2695 98.0494 83.322 98.2757 83.4271L98.1036 83.8854C97.8627 83.7917 97.6638 83.7448 97.507 83.7448C97.043 83.7448 96.8111 84.0527 96.8111 84.6687C96.8111 84.9694 96.8684 85.1957 96.9832 85.3477C97.0996 85.498 97.2694 85.5732 97.4925 85.5732C97.7463 85.5732 97.9864 85.5102 98.2127 85.3841V85.8812C98.1108 85.941 98.0017 85.9838 97.8853 86.0097C97.7705 86.0356 97.6307 86.0485 97.4658 86.0485ZM99.9962 86.0485C99.5791 86.0485 99.2526 85.9273 99.0165 85.6848C98.7821 85.4406 98.6649 85.1052 98.6649 84.6784C98.6649 84.2403 98.774 83.8959 98.9923 83.6454C99.2105 83.3948 99.5104 83.2695 99.892 83.2695C100.246 83.2695 100.526 83.377 100.731 83.592C100.936 83.807 101.039 84.1029 101.039 84.4795V84.7875H99.2518C99.2598 85.0478 99.3302 85.2483 99.4627 85.3889C99.5953 85.5279 99.782 85.5975 100.023 85.5975C100.181 85.5975 100.328 85.5829 100.464 85.5538C100.602 85.5231 100.749 85.473 100.906 85.4035V85.8666C100.767 85.9329 100.626 85.9798 100.484 86.0073C100.341 86.0348 100.179 86.0485 99.9962 86.0485ZM99.892 83.7011C99.7109 83.7011 99.5654 83.7585 99.4555 83.8733C99.3471 83.9881 99.2825 84.1554 99.2615 84.3753H100.479C100.476 84.1538 100.422 83.9865 100.319 83.8733C100.215 83.7585 100.073 83.7011 99.892 83.7011ZM103.47 85.2361C103.47 85.498 103.375 85.6993 103.184 85.84C102.993 85.979 102.72 86.0485 102.364 86.0485C102.007 86.0485 101.72 85.9943 101.503 85.886V85.3938C101.819 85.5393 102.112 85.612 102.384 85.612C102.734 85.612 102.91 85.5061 102.91 85.2943C102.91 85.2264 102.89 85.1699 102.852 85.1246C102.813 85.0793 102.749 85.0324 102.66 84.9839C102.571 84.9354 102.447 84.8805 102.289 84.819C101.98 84.6994 101.771 84.5798 101.661 84.4601C101.553 84.3405 101.498 84.1853 101.498 83.9946C101.498 83.765 101.591 83.5872 101.775 83.4611C101.961 83.3333 102.213 83.2695 102.532 83.2695C102.847 83.2695 103.145 83.3333 103.426 83.4611L103.242 83.8903C102.953 83.7706 102.709 83.7108 102.512 83.7108C102.211 83.7108 102.061 83.7965 102.061 83.9679C102.061 84.0519 102.1 84.1231 102.177 84.1813C102.257 84.2395 102.428 84.3195 102.692 84.4213C102.913 84.507 103.074 84.5854 103.174 84.6566C103.274 84.7277 103.349 84.8101 103.397 84.9039C103.446 84.9961 103.47 85.1068 103.47 85.2361ZM105.872 85.2361C105.872 85.498 105.777 85.6993 105.586 85.84C105.395 85.979 105.122 86.0485 104.766 86.0485C104.409 86.0485 104.122 85.9943 103.905 85.886V85.3938C104.22 85.5393 104.514 85.612 104.786 85.612C105.136 85.612 105.312 85.5061 105.312 85.2943C105.312 85.2264 105.292 85.1699 105.254 85.1246C105.215 85.0793 105.151 85.0324 105.062 84.9839C104.973 84.9354 104.849 84.8805 104.691 84.819C104.382 84.6994 104.173 84.5798 104.063 84.4601C103.955 84.3405 103.9 84.1853 103.9 83.9946C103.9 83.765 103.993 83.5872 104.177 83.4611C104.363 83.3333 104.615 83.2695 104.933 83.2695C105.249 83.2695 105.547 83.3333 105.828 83.4611L105.644 83.8903C105.355 83.7706 105.111 83.7108 104.914 83.7108C104.613 83.7108 104.463 83.7965 104.463 83.9679C104.463 84.0519 104.502 84.1231 104.579 84.1813C104.659 84.2395 104.83 84.3195 105.093 84.4213C105.315 84.507 105.476 84.5854 105.576 84.6566C105.676 84.7277 105.751 84.8101 105.799 84.9039C105.848 84.9961 105.872 85.1068 105.872 85.2361ZM107.818 83.7496H107.163V86H106.591V83.7496H106.15V83.4829L106.591 83.3083V83.1337C106.591 82.8168 106.665 82.5824 106.814 82.4304C106.963 82.2769 107.19 82.2001 107.495 82.2001C107.696 82.2001 107.893 82.2332 108.087 82.2995L107.937 82.7311C107.796 82.6859 107.662 82.6632 107.534 82.6632C107.405 82.6632 107.31 82.7037 107.25 82.7845C107.192 82.8637 107.163 82.9833 107.163 83.1434V83.318H107.818V83.7496ZM110.149 86L110.069 85.6484H110.04C109.961 85.7729 109.848 85.8707 109.701 85.9418C109.555 86.0129 109.389 86.0485 109.201 86.0485C108.876 86.0485 108.634 85.9677 108.474 85.806C108.314 85.6443 108.234 85.3994 108.234 85.0712V83.318H108.808V84.9718C108.808 85.1771 108.851 85.3315 108.935 85.435C109.019 85.5368 109.15 85.5878 109.33 85.5878C109.569 85.5878 109.745 85.5166 109.856 85.3744C109.969 85.2305 110.026 84.9904 110.026 84.6541V83.318H110.598V86H110.149ZM111.962 86H111.392V82.2267H111.962V86ZM113.331 86H112.761V82.2267H113.331V86ZM113.723 83.318H114.343L114.889 84.8384C114.971 85.0551 115.026 85.2588 115.054 85.4495H115.073C115.088 85.3606 115.115 85.2531 115.153 85.127C115.192 84.9993 115.397 84.3963 115.769 83.318H116.385L115.238 86.3565C115.03 86.9142 114.682 87.1931 114.195 87.1931C114.069 87.1931 113.947 87.1793 113.827 87.1519V86.7008C113.913 86.7202 114.01 86.7299 114.12 86.7299C114.395 86.7299 114.588 86.5707 114.7 86.2522L114.799 86L113.723 83.318ZM119.848 85.2361C119.848 85.498 119.753 85.6993 119.562 85.84C119.371 85.979 119.098 86.0485 118.742 86.0485C118.385 86.0485 118.098 85.9943 117.881 85.886V85.3938C118.197 85.5393 118.49 85.612 118.762 85.612C119.112 85.612 119.288 85.5061 119.288 85.2943C119.288 85.2264 119.268 85.1699 119.23 85.1246C119.191 85.0793 119.127 85.0324 119.038 84.9839C118.949 84.9354 118.826 84.8805 118.667 84.819C118.358 84.6994 118.149 84.5798 118.039 84.4601C117.931 84.3405 117.877 84.1853 117.877 83.9946C117.877 83.765 117.969 83.5872 118.153 83.4611C118.339 83.3333 118.591 83.2695 118.91 83.2695C119.225 83.2695 119.523 83.3333 119.804 83.4611L119.62 83.8903C119.331 83.7706 119.087 83.7108 118.89 83.7108C118.589 83.7108 118.439 83.7965 118.439 83.9679C118.439 84.0519 118.478 84.1231 118.556 84.1813C118.635 84.2395 118.806 84.3195 119.07 84.4213C119.291 84.507 119.452 84.5854 119.552 84.6566C119.652 84.7277 119.727 84.8101 119.775 84.9039C119.824 84.9961 119.848 85.1068 119.848 85.2361ZM121.619 86.0485C121.202 86.0485 120.876 85.9273 120.64 85.6848C120.405 85.4406 120.288 85.1052 120.288 84.6784C120.288 84.2403 120.397 83.8959 120.616 83.6454C120.834 83.3948 121.134 83.2695 121.515 83.2695C121.869 83.2695 122.149 83.377 122.354 83.592C122.56 83.807 122.662 84.1029 122.662 84.4795V84.7875H120.875C120.883 85.0478 120.953 85.2483 121.086 85.3889C121.219 85.5279 121.405 85.5975 121.646 85.5975C121.805 85.5975 121.952 85.5829 122.087 85.5538C122.225 85.5231 122.372 85.473 122.529 85.4035V85.8666C122.39 85.9329 122.249 85.9798 122.107 86.0073C121.965 86.0348 121.802 86.0485 121.619 86.0485ZM121.515 83.7011C121.334 83.7011 121.189 83.7585 121.079 83.8733C120.97 83.9881 120.906 84.1554 120.885 84.3753H122.102C122.099 84.1538 122.045 83.9865 121.942 83.8733C121.839 83.7585 121.696 83.7011 121.515 83.7011ZM124.291 85.5878C124.43 85.5878 124.569 85.5659 124.708 85.5223V85.9515C124.645 85.979 124.563 86.0016 124.463 86.0194C124.364 86.0388 124.261 86.0485 124.155 86.0485C123.615 86.0485 123.345 85.764 123.345 85.1949V83.7496H122.979V83.4974L123.371 83.2889L123.565 82.7214H123.917V83.318H124.681V83.7496H123.917V85.1852C123.917 85.3226 123.951 85.4245 124.019 85.4908C124.088 85.5554 124.179 85.5878 124.291 85.5878ZM128.391 86L128.311 85.6484H128.282C128.203 85.7729 128.09 85.8707 127.942 85.9418C127.797 86.0129 127.63 86.0485 127.443 86.0485C127.118 86.0485 126.876 85.9677 126.715 85.806C126.555 85.6443 126.475 85.3994 126.475 85.0712V83.318H127.05V84.9718C127.05 85.1771 127.092 85.3315 127.176 85.435C127.26 85.5368 127.392 85.5878 127.571 85.5878C127.811 85.5878 127.986 85.5166 128.098 85.3744C128.211 85.2305 128.267 84.9904 128.267 84.6541V83.318H128.84V86H128.391ZM130.994 86.0485C130.655 86.0485 130.391 85.9264 130.204 85.6823H130.17C130.192 85.9087 130.204 86.0461 130.204 86.0946V87.1931H129.634V83.318H130.095C130.108 83.3681 130.134 83.4877 130.175 83.6769H130.204C130.382 83.4053 130.648 83.2695 131.004 83.2695C131.339 83.2695 131.599 83.3907 131.785 83.6332C131.972 83.8757 132.066 84.216 132.066 84.6541C132.066 85.0923 131.971 85.4342 131.78 85.6799C131.591 85.9256 131.329 86.0485 130.994 86.0485ZM130.856 83.7351C130.63 83.7351 130.464 83.8014 130.359 83.9339C130.255 84.0665 130.204 84.2783 130.204 84.5693V84.6541C130.204 84.9807 130.255 85.2175 130.359 85.3647C130.462 85.5102 130.631 85.5829 130.866 85.5829C131.063 85.5829 131.215 85.5021 131.322 85.3404C131.428 85.1787 131.482 84.9484 131.482 84.6493C131.482 84.3486 131.428 84.1215 131.322 83.9679C131.217 83.8127 131.061 83.7351 130.856 83.7351Z" fill="#41AF4B"/>
<path fill-rule="evenodd" clip-rule="evenodd" d="M139.341 118.274H50.3155C48.2255 118.274 46.5304 116.578 46.5304 114.488V111.011C46.5304 108.919 48.2255 107.225 50.3155 107.225H139.341C141.432 107.225 143.126 108.919 143.126 111.011V114.488C143.126 116.578 141.432 118.274 139.341 118.274Z" fill="#DFF4DF"/>
<path fill-rule="evenodd" clip-rule="evenodd" d="M53.6526 131.517H50.8458C49.3642 130.399 47.933 129.232 46.5416 127.999C46.5333 127.908 46.5333 127.825 46.5333 127.734V125.764C48.769 127.825 51.152 129.754 53.6526 131.517Z" fill="#95D898"/>
<path fill-rule="evenodd" clip-rule="evenodd" d="M143.129 124.771V127.031C141.416 128.62 139.628 130.11 137.773 131.517H134.959C137.848 129.472 140.58 127.213 143.129 124.771Z" fill="#95D898"/>
<path fill-rule="evenodd" clip-rule="evenodd" d="M143.129 124.258V124.771C140.58 127.213 137.848 129.472 134.959 131.518H53.6522C51.1525 129.754 48.7687 127.826 46.5338 125.764V124.258C46.5338 122.163 48.2224 120.467 50.3165 120.467H139.338C141.431 120.467 143.129 122.163 143.129 124.258Z" fill="#DFF4DF"/>
<path fill-rule="evenodd" clip-rule="evenodd" d="M134.694 133.71C130.688 136.433 126.384 138.751 121.856 140.63C121.194 140.903 120.524 141.169 119.853 141.424H114.738C115.557 141.177 116.368 140.911 117.171 140.63C122.296 138.875 127.154 136.541 131.666 133.71H134.694Z" fill="#95D898"/>
<path fill-rule="evenodd" clip-rule="evenodd" d="M119.853 141.425C119.125 141.698 118.388 141.963 117.652 142.219C114.573 143.27 111.411 144.123 108.166 144.76H80.4373C77.1926 144.123 74.0307 143.27 70.9516 142.219C70.2149 141.963 69.4782 141.698 68.7498 141.425H73.8652C74.8088 141.714 75.7598 141.979 76.7208 142.219C82.341 143.668 88.2344 144.438 94.3016 144.438C100.369 144.438 106.262 143.668 111.882 142.219C112.843 141.979 113.795 141.714 114.737 141.425H119.853Z" fill="#95D898"/>
<path fill-rule="evenodd" clip-rule="evenodd" d="M73.8655 141.425H68.7493C68.0797 141.168 67.4084 140.903 66.7462 140.63C62.2194 138.759 57.9318 136.434 53.9256 133.71H56.9468C61.4579 136.549 66.3075 138.875 71.432 140.63C72.234 140.912 73.046 141.176 73.8655 141.425Z" fill="#95D898"/>
<path fill-rule="evenodd" clip-rule="evenodd" d="M131.665 133.71C127.154 136.541 122.296 138.875 117.171 140.63C116.369 140.911 115.557 141.177 114.738 141.424C113.794 141.714 112.843 141.979 111.883 142.219C106.263 143.668 100.368 144.437 94.3012 144.437C88.234 144.437 82.3406 143.668 76.7204 142.219C75.7602 141.979 74.8092 141.714 73.8656 141.424C73.0461 141.177 72.2341 140.911 71.4312 140.63C66.3076 138.875 61.458 136.55 56.9461 133.71H131.665Z" fill="#DFF4DF"/>
</g>
<path d="M7.18033 17H4.55773V9.81967L4.58319 8.63992L4.62563 7.34984C4.18994 7.78552 3.88723 8.07126 3.71748 8.20706L2.2916 9.35286L1.02697 7.7742L5.02454 4.59143H7.18033V17ZM11.1949 15.7863C11.1949 15.311 11.3222 14.9517 11.5768 14.7084C11.8314 14.4651 12.202 14.3434 12.6887 14.3434C13.1583 14.3434 13.5204 14.4679 13.775 14.7169C14.0353 14.9659 14.1655 15.3223 14.1655 15.7863C14.1655 16.2333 14.0353 16.5869 13.775 16.8472C13.5148 17.1018 13.1526 17.2292 12.6887 17.2292C12.2134 17.2292 11.8456 17.1047 11.5853 16.8557C11.325 16.6011 11.1949 16.2446 11.1949 15.7863Z" fill="#41AF4B"/>
<defs>
<clipPath id="clip0">
<rect width="160.578" height="145.679" fill="white" transform="translate(6.62178 0.827728)"/>
</clipPath>
</defs>
</svg>
