<svg width="158" height="146" viewBox="0 0 158 146" fill="none" xmlns="http://www.w3.org/2000/svg">
<path d="M9.68295 17H1.00884V15.1752L4.12371 12.0264C5.04601 11.0815 5.64861 10.4279 5.93152 10.0658C6.21444 9.69801 6.41813 9.35852 6.54262 9.04731C6.6671 8.73611 6.72934 8.41359 6.72934 8.07975C6.72934 7.58182 6.59071 7.21121 6.31346 6.9679C6.04186 6.7246 5.6769 6.60294 5.21858 6.60294C4.73763 6.60294 4.27082 6.71328 3.81816 6.93395C3.3655 7.15463 2.89304 7.46866 2.40077 7.87605L0.974887 6.18706C1.58598 5.6665 2.09239 5.29872 2.49413 5.0837C2.89587 4.86869 3.33438 4.7046 3.80968 4.59143C4.28497 4.47261 4.81685 4.4132 5.40531 4.4132C6.18049 4.4132 6.86514 4.55465 7.45925 4.83757C8.05337 5.12048 8.51452 5.51656 8.8427 6.0258C9.17088 6.53505 9.33497 7.11785 9.33497 7.7742C9.33497 8.34569 9.23312 8.88322 9.02942 9.38681C8.83138 9.88474 8.52018 10.3968 8.09581 10.923C7.6771 11.4492 6.93587 12.199 5.87211 13.1722L4.27648 14.6745V14.7933H9.68295V17ZM11.5077 15.7863C11.5077 15.311 11.6351 14.9517 11.8897 14.7084C12.1443 14.4651 12.5149 14.3434 13.0015 14.3434C13.4712 14.3434 13.8333 14.4679 14.0879 14.7169C14.3482 14.9659 14.4783 15.3223 14.4783 15.7863C14.4783 16.2333 14.3482 16.5869 14.0879 16.8472C13.8276 17.1018 13.4655 17.2292 13.0015 17.2292C12.5262 17.2292 12.1584 17.1047 11.8982 16.8557C11.6379 16.6011 11.5077 16.2446 11.5077 15.7863Z" fill="#41AF4B"/>
<path fill-rule="evenodd" clip-rule="evenodd" d="M156.339 73.4604C156.339 112.889 124.376 144.851 84.9475 144.851C45.519 144.851 13.5564 112.889 13.5564 73.4604C13.5564 34.0318 45.519 2.06931 84.9475 2.06931C124.376 2.06931 156.339 34.0318 156.339 73.4604Z" fill="#DFF4DF"/>
<path fill-rule="evenodd" clip-rule="evenodd" d="M156.339 73.4604C156.339 112.889 124.376 144.851 84.9475 144.851C45.519 144.851 13.5564 112.889 13.5564 73.4604C13.5564 34.0318 45.519 2.06931 84.9475 2.06931C124.376 2.06931 156.339 34.0318 156.339 73.4604Z" stroke="#95D898" stroke-width="1.65545"/>
<path fill-rule="evenodd" clip-rule="evenodd" d="M20.1831 101.241C20.1831 101.241 36.7367 144.036 84.834 144.036C132.932 144.036 149.712 101.558 149.712 101.558V22.0903C149.712 19.9489 147.975 18.2124 145.834 18.2124H24.0618C21.9197 18.2124 20.1831 19.9489 20.1831 22.0903L20.1243 101.399" fill="white"/>
<mask id="mask0" mask-type="alpha" maskUnits="userSpaceOnUse" x="12" y="1" width="146" height="145">
<path fill-rule="evenodd" clip-rule="evenodd" d="M12.7287 145.679H157.166V1.24158H12.7287V145.679Z" fill="white"/>
</mask>
<g mask="url(#mask0)">
<path fill-rule="evenodd" clip-rule="evenodd" d="M33.147 62.3457H136.748V40.5261H33.147V62.3457Z" stroke="#95D898" stroke-width="0.827723"/>
<path fill-rule="evenodd" clip-rule="evenodd" d="M33.147 83.7953H136.748V61.9757H33.147V83.7953Z" fill="#DFF4DF"/>
<path fill-rule="evenodd" clip-rule="evenodd" d="M33.147 83.7953H136.748V61.9757H33.147V83.7953Z" stroke="#95D898" stroke-width="0.827723"/>
<path fill-rule="evenodd" clip-rule="evenodd" d="M33.147 105.723H136.748V83.9029H33.147V105.723Z" stroke="#95D898" stroke-width="0.827723"/>
<path fill-rule="evenodd" clip-rule="evenodd" d="M21.4247 104.222C21.4247 104.222 20.5614 102.495 20.1243 101.399C19.6153 100.128 18.9415 98.4407 18.9415 98.4407V22.0908C18.9415 19.2674 21.2376 16.9705 24.0618 16.9705H145.834C148.657 16.9705 150.953 19.2674 150.953 22.0908V98.4507C150.953 98.4507 150.488 99.6078 149.957 100.959C149.37 102.452 148.47 104.222 148.47 104.222V22.0908C148.47 20.6373 147.288 19.4536 145.834 19.4536H24.0618C22.6075 19.4536 21.4247 20.6373 21.4247 22.0908V104.222Z" fill="#2AA43C"/>
<path fill-rule="evenodd" clip-rule="evenodd" d="M43.7554 52.4505C43.7554 52.8238 43.6213 53.1184 43.3531 53.3328C43.0833 53.548 42.71 53.6556 42.2307 53.6556C41.7896 53.6556 41.3989 53.5729 41.0595 53.4065V52.592C41.3385 52.7162 41.5752 52.8039 41.7689 52.8552C41.9617 52.9057 42.1389 52.9314 42.2986 52.9314C42.4915 52.9314 42.6388 52.895 42.7414 52.8213C42.8441 52.7476 42.8954 52.6384 42.8954 52.4927C42.8954 52.4116 42.8731 52.3396 42.8275 52.2767C42.782 52.2129 42.7158 52.1525 42.6289 52.0937C42.5403 52.0358 42.3615 51.9423 42.0917 51.814C41.8401 51.6948 41.6497 51.5814 41.5239 51.4713C41.3972 51.362 41.2962 51.2345 41.2201 51.0897C41.1456 50.9448 41.1075 50.7752 41.1075 50.5806C41.1075 50.2148 41.2317 49.9267 41.48 49.7173C41.7283 49.5079 42.071 49.4036 42.508 49.4036C42.7232 49.4036 42.9285 49.4293 43.123 49.4798C43.3192 49.5311 43.5228 49.6023 43.7364 49.695L43.4533 50.377C43.2323 50.286 43.0494 50.2231 42.9062 50.1875C42.7613 50.1511 42.6198 50.1337 42.4799 50.1337C42.3143 50.1337 42.186 50.1726 42.0983 50.2496C42.0097 50.3265 41.965 50.4275 41.965 50.5525C41.965 50.6295 41.9824 50.6965 42.0188 50.7545C42.0544 50.8124 42.1116 50.8679 42.1894 50.9208C42.268 50.9755 42.4534 51.0715 42.7456 51.2114C43.1321 51.396 43.397 51.5814 43.5402 51.7676C43.6842 51.953 43.7554 52.1806 43.7554 52.4505Z" fill="#2AA43C"/>
<path fill-rule="evenodd" clip-rule="evenodd" d="M46.5506 53.5991L46.4339 53.1943H46.3892C46.2965 53.3417 46.1657 53.4551 45.9961 53.5354C45.8264 53.6157 45.6335 53.6554 45.4158 53.6554C45.045 53.6554 44.7644 53.5561 44.5757 53.3574C44.3878 53.1579 44.2926 52.8724 44.2926 52.4982V50.4364H45.1551V52.2838C45.1551 52.5123 45.1965 52.6828 45.2776 52.797C45.3587 52.9113 45.4878 52.9684 45.665 52.9684C45.9067 52.9684 46.0813 52.8881 46.1889 52.7259C46.2957 52.5653 46.3503 52.2979 46.3503 51.9246V50.4364H47.2128V53.5991H46.5506Z" fill="#2AA43C"/>
<path fill-rule="evenodd" clip-rule="evenodd" d="M49.4735 51.067C49.2599 51.067 49.1051 51.1324 49.0066 51.264C48.9081 51.3948 48.8577 51.6108 48.8543 51.913V52.0065C48.8543 52.3459 48.9048 52.5892 49.0058 52.7365C49.1068 52.883 49.2657 52.9567 49.4851 52.9567C49.6622 52.9567 49.8029 52.8756 49.9072 52.7125C50.0123 52.5495 50.0653 52.3119 50.0653 52.0007C50.0653 51.6895 50.0115 51.456 49.9064 51.3004C49.8013 51.1448 49.6564 51.067 49.4735 51.067ZM49.7508 50.3767C50.1241 50.3767 50.4171 50.5224 50.6282 50.8137C50.8384 51.1051 50.9443 51.5049 50.9443 52.0123C50.9443 52.5346 50.8359 52.9393 50.6182 53.2257C50.3997 53.5121 50.1034 53.6553 49.7284 53.6553C49.3559 53.6553 49.0654 53.5204 48.8543 53.2514H48.7947L48.6507 53.599H47.991V49.1972H48.8543V50.2211C48.8543 50.351 48.8428 50.5596 48.8204 50.846H48.8543C49.0555 50.5331 49.3543 50.3767 49.7508 50.3767Z" fill="#2AA43C"/>
<path fill-rule="evenodd" clip-rule="evenodd" d="M52.862 52.9682C53.0135 52.9682 53.1939 52.9351 53.405 52.8689V53.5112C53.1898 53.6072 52.9266 53.6561 52.6129 53.6561C52.2685 53.6561 52.0169 53.5683 51.8596 53.3937C51.7024 53.2198 51.6237 52.9575 51.6237 52.609V51.0843H51.2099V50.7193L51.685 50.4304L51.9341 49.7625H52.4862V50.4362H53.3711V51.0843H52.4862V52.609C52.4862 52.7315 52.521 52.8217 52.5897 52.8805C52.6584 52.9393 52.7486 52.9682 52.862 52.9682Z" fill="#2AA43C"/>
<path fill-rule="evenodd" clip-rule="evenodd" d="M54.6047 52.012C54.6047 52.3248 54.656 52.5616 54.7595 52.7221C54.8621 52.8827 55.0302 52.9622 55.2611 52.9622C55.4912 52.9622 55.6567 52.8827 55.7585 52.7238C55.8595 52.564 55.9092 52.3265 55.9092 52.012C55.9092 51.6991 55.8587 51.464 55.7569 51.3076C55.6551 51.1511 55.4871 51.0725 55.2561 51.0725C55.026 51.0725 54.8605 51.1503 54.7587 51.3059C54.656 51.4615 54.6047 51.6974 54.6047 52.012ZM56.7924 52.012C56.7924 52.5268 56.6566 52.9291 56.3843 53.2196C56.1128 53.511 55.7345 53.6558 55.2495 53.6558C54.9466 53.6558 54.6792 53.5896 54.4466 53.4563C54.2148 53.3231 54.0361 53.1327 53.9119 52.8835C53.7877 52.6344 53.7257 52.3439 53.7257 52.012C53.7257 51.4946 53.8606 51.0932 54.1296 50.8068C54.3994 50.5204 54.7785 50.3764 55.2677 50.3764C55.5707 50.3764 55.838 50.4426 56.0706 50.575C56.3024 50.7066 56.4812 50.8962 56.6053 51.1437C56.7295 51.3903 56.7924 51.68 56.7924 52.012Z" fill="#2AA43C"/>
<path fill-rule="evenodd" clip-rule="evenodd" d="M58.7102 52.9682C58.8617 52.9682 59.0421 52.9351 59.2532 52.8689V53.5112C59.038 53.6072 58.7748 53.6561 58.4611 53.6561C58.1167 53.6561 57.8651 53.5683 57.7078 53.3937C57.5506 53.2198 57.4719 52.9575 57.4719 52.609V51.0843H57.0581V50.7193L57.5332 50.4304L57.7823 49.7625H58.3344V50.4362H59.2193V51.0843H58.3344V52.609C58.3344 52.7315 58.3692 52.8217 58.4379 52.8805C58.5066 52.9393 58.5968 52.9682 58.7102 52.9682Z" fill="#2AA43C"/>
<path fill-rule="evenodd" clip-rule="evenodd" d="M61.5199 52.1336L61.1863 52.1452C60.9355 52.1527 60.7485 52.1982 60.626 52.281C60.5026 52.3637 60.4414 52.4904 60.4414 52.6601C60.4414 52.9034 60.5813 53.0251 60.8602 53.0251C61.0605 53.0251 61.2211 52.9671 61.3403 52.8521C61.4603 52.737 61.5199 52.5839 61.5199 52.3935V52.1336ZM61.7748 53.5995L61.6068 53.1691H61.5845C61.4396 53.352 61.2906 53.4787 61.1367 53.5499C60.9835 53.6202 60.7824 53.6558 60.5357 53.6558C60.2311 53.6558 59.9928 53.5689 59.8181 53.3951C59.6435 53.2221 59.5565 52.9746 59.5565 52.6543C59.5565 52.3182 59.6741 52.0707 59.9092 51.911C60.1434 51.752 60.4977 51.6643 60.9711 51.6469L61.5199 51.6304V51.4913C61.5199 51.171 61.356 51.0104 61.0274 51.0104C60.775 51.0104 60.4778 51.0866 60.136 51.2397L59.8504 50.657C60.2146 50.4666 60.6185 50.3714 61.0613 50.3714C61.486 50.3714 61.8113 50.4633 62.0372 50.6487C62.2632 50.8333 62.3766 51.1147 62.3766 51.4913V53.5995H61.7748Z" fill="#2AA43C"/>
<path fill-rule="evenodd" clip-rule="evenodd" d="M63.1379 53.5992H64.0012V49.1974H63.1379V53.5992Z" fill="#2AA43C"/>
<path fill-rule="evenodd" clip-rule="evenodd" d="M64.6578 53.1945C64.6578 53.0364 64.7 52.9164 64.7845 52.8353C64.8697 52.7542 64.993 52.7136 65.1561 52.7136C65.3117 52.7136 65.4334 52.755 65.5186 52.8378C65.6047 52.9205 65.6469 53.0397 65.6469 53.1945C65.6469 53.3435 65.6047 53.461 65.5178 53.5463C65.4309 53.6324 65.3101 53.6754 65.1561 53.6754C64.9972 53.6754 64.8747 53.6332 64.7869 53.5496C64.7009 53.466 64.6578 53.3476 64.6578 53.1945ZM64.6578 50.8578C64.6578 50.6989 64.7 50.5797 64.7844 50.4986C64.8697 50.4175 64.993 50.3769 65.1561 50.3769C65.3117 50.3769 65.4334 50.4183 65.5186 50.5011C65.6047 50.5839 65.6469 50.7031 65.6469 50.8578C65.6469 51.0101 65.6039 51.1285 65.5162 51.2129C65.4284 51.2965 65.3076 51.3388 65.1561 51.3388C64.9972 51.3388 64.8747 51.2974 64.7869 51.2138C64.7008 51.131 64.6578 51.0126 64.6578 50.8578Z" fill="#2AA43C"/>
<path fill-rule="evenodd" clip-rule="evenodd" d="M52.4465 71.598C52.1162 71.598 51.8605 71.7222 51.6792 71.9705C51.4979 72.218 51.4077 72.564 51.4077 73.0068C51.4077 73.9289 51.7537 74.3908 52.4465 74.3908C52.737 74.3908 53.088 74.3179 53.501 74.1722V74.9081C53.1616 75.0496 52.7825 75.12 52.3637 75.12C51.7628 75.12 51.3018 74.9379 50.9831 74.5729C50.6652 74.2078 50.5047 73.6839 50.5047 73.001C50.5047 72.5714 50.5833 72.1948 50.7397 71.8712C50.897 71.5475 51.1213 71.2992 51.4151 71.127C51.7082 70.954 52.0517 70.868 52.4465 70.868C52.8471 70.868 53.2519 70.9648 53.6574 71.1593L53.3744 71.8728C53.2196 71.7992 53.064 71.7346 52.9075 71.68C52.7503 71.6253 52.5971 71.598 52.4465 71.598Z" fill="#2AA43C"/>
<path fill-rule="evenodd" clip-rule="evenodd" d="M55.9392 73.5982L55.6057 73.6098C55.3549 73.6173 55.1678 73.6628 55.0453 73.7455C54.922 73.8283 54.8607 73.955 54.8607 74.1246C54.8607 74.368 55.0006 74.4897 55.2795 74.4897C55.4798 74.4897 55.6404 74.4317 55.7596 74.3167C55.8796 74.2016 55.9392 74.0485 55.9392 73.8581V73.5982ZM56.1942 75.0641L56.0261 74.6337H56.0038C55.8589 74.8166 55.71 74.9433 55.556 75.0145C55.4029 75.0848 55.2017 75.1204 54.9551 75.1204C54.6505 75.1204 54.4121 75.0335 54.2374 74.8597C54.0628 74.6867 53.9759 74.4392 53.9759 74.1189C53.9759 73.7828 54.0934 73.5353 54.3285 73.3756C54.5627 73.2166 54.917 73.1289 55.3905 73.1115L55.9392 73.095V72.9559C55.9392 72.6356 55.7753 72.475 55.4467 72.475C55.1943 72.475 54.8971 72.5512 54.5553 72.7043L54.2697 72.1216C54.6339 71.9312 55.0378 71.836 55.4807 71.836C55.9053 71.836 56.2306 71.9279 56.4566 72.1133C56.6825 72.2979 56.7959 72.5793 56.7959 72.9559V75.0641H56.1942Z" fill="#2AA43C"/>
<path fill-rule="evenodd" clip-rule="evenodd" d="M59.3237 71.8413C59.4413 71.8413 59.5381 71.8496 59.6151 71.8669L59.5497 72.6756C59.4802 72.6566 59.3957 72.6475 59.2956 72.6475C59.0199 72.6475 58.8056 72.7187 58.6516 72.8594C58.4985 73.0009 58.4215 73.1996 58.4215 73.4537V75.0636H57.5582V71.9009H58.2113L58.3396 72.4323H58.3809C58.4794 72.2551 58.6127 72.1128 58.7791 72.0043C58.9463 71.8951 59.1275 71.8413 59.3237 71.8413Z" fill="#2AA43C"/>
<path fill-rule="evenodd" clip-rule="evenodd" d="M61.5442 72.5316C61.3306 72.5316 61.1758 72.597 61.0773 72.7286C60.9788 72.8594 60.9283 73.0754 60.925 73.3775V73.4711C60.925 73.8104 60.9755 74.0538 61.0765 74.2011C61.1775 74.3476 61.3364 74.4213 61.5557 74.4213C61.7329 74.4213 61.8736 74.3402 61.9779 74.1771C62.083 74.0141 62.136 73.7765 62.136 73.4653C62.136 73.1541 62.0822 72.9206 61.9771 72.765C61.8719 72.6094 61.7271 72.5316 61.5442 72.5316ZM61.8214 71.8413C62.1947 71.8413 62.4878 71.987 62.6988 72.2783C62.9091 72.5697 63.015 72.9695 63.015 73.4769C63.015 73.9992 62.9066 74.4039 62.6889 74.6903C62.4704 74.9767 62.1741 75.1199 61.7991 75.1199C61.4266 75.1199 61.1361 74.985 60.925 74.716H60.8654L60.7214 75.0636H60.0617V70.6618H60.925V71.6857C60.925 71.8156 60.9134 72.0242 60.8911 72.3106H60.925C61.1262 71.9977 61.425 71.8413 61.8214 71.8413Z" fill="#2AA43C"/>
<path fill-rule="evenodd" clip-rule="evenodd" d="M64.2877 73.4765C64.2877 73.7894 64.339 74.0261 64.4424 74.1867C64.5451 74.3473 64.7131 74.4268 64.944 74.4268C65.1741 74.4268 65.3397 74.3473 65.4415 74.1884C65.5425 74.0286 65.5921 73.7911 65.5921 73.4765C65.5921 73.1637 65.5417 72.9286 65.4398 72.7721C65.338 72.6157 65.17 72.5371 64.9391 72.5371C64.709 72.5371 64.5434 72.6149 64.4416 72.7705C64.339 72.9261 64.2877 73.162 64.2877 73.4765ZM66.4753 73.4765C66.4753 73.9914 66.3396 74.3937 66.0673 74.6842C65.7958 74.9755 65.4175 75.1204 64.9325 75.1204C64.6295 75.1204 64.3622 75.0542 64.1296 74.9209C63.8978 74.7877 63.719 74.5973 63.5949 74.3481C63.4707 74.099 63.4086 73.8085 63.4086 73.4765C63.4086 72.9592 63.5435 72.5578 63.8125 72.2714C64.0824 71.985 64.4615 71.841 64.9507 71.841C65.2536 71.841 65.521 71.9072 65.7536 72.0396C65.9853 72.1712 66.1641 72.3608 66.2883 72.6083C66.4124 72.8549 66.4753 73.1446 66.4753 73.4765Z" fill="#2AA43C"/>
<path fill-rule="evenodd" clip-rule="evenodd" d="M69.9806 75.0637H69.1173V73.2162C69.1173 72.9878 69.0768 72.8173 68.9965 72.7022C68.9154 72.5888 68.7862 72.5317 68.6083 72.5317C68.3674 72.5317 68.1928 72.612 68.0851 72.7734C67.9775 72.9348 67.9246 73.2022 67.9246 73.5755V75.0637H67.0613V71.901H67.721L67.836 72.3049H67.884C67.9809 72.1526 68.1125 72.0367 68.2813 71.9589C68.4502 71.8803 68.6422 71.8414 68.8574 71.8414C69.2258 71.8414 69.5047 71.9407 69.6942 72.1402C69.8854 72.3388 69.9806 72.6261 69.9806 73.001V75.0637Z" fill="#2AA43C"/>
<path fill-rule="evenodd" clip-rule="evenodd" d="M72.9221 72.9899C72.9221 73.4518 73.009 73.8003 73.1853 74.0337C73.36 74.2679 73.6232 74.3846 73.9717 74.3846C74.6711 74.3846 75.0212 73.9203 75.0212 72.9899C75.0212 72.0587 74.6727 71.5927 73.9775 71.5927C73.629 71.5927 73.3649 71.7103 73.1878 71.9445C73.0107 72.1796 72.9221 72.5281 72.9221 72.9899ZM75.94 72.9899C75.94 73.6744 75.7703 74.2009 75.431 74.5684C75.0916 74.9367 74.6049 75.1205 73.9717 75.1205C73.3376 75.1205 72.8509 74.9367 72.5116 74.5684C72.1722 74.2009 72.0025 73.6728 72.0025 72.9841C72.0025 72.2963 72.173 71.7699 72.5132 71.4065C72.8534 71.0439 73.3418 70.8627 73.9775 70.8627C74.6132 70.8627 75.099 71.0456 75.4359 71.4115C75.772 71.7773 75.94 72.3029 75.94 72.9899Z" fill="#2AA43C"/>
<path fill-rule="evenodd" clip-rule="evenodd" d="M80.5939 72.5486H79.8473V75.064H78.9849V72.5486H78.5089V72.1331L78.9849 71.9005V71.6687C78.9849 71.3086 79.0734 71.0454 79.2506 70.8791C79.4277 70.7135 79.7116 70.6307 80.1023 70.6307C80.4003 70.6307 80.6651 70.6746 80.8969 70.7632L80.6767 71.3972C80.5029 71.3426 80.3423 71.3153 80.1958 71.3153C80.0725 71.3153 79.9847 71.3517 79.9293 71.4237C79.8747 71.4965 79.8473 71.5892 79.8473 71.7026V71.9005H80.5939V72.5486ZM78.3508 72.5486H77.6042V75.064H76.7417V72.5486H76.2658V72.1331L76.7417 71.9005V71.6687C76.7417 71.3086 76.8295 71.0454 77.0066 70.8791C77.1846 70.7135 77.4685 70.6307 77.8583 70.6307C78.1571 70.6307 78.4212 70.6746 78.6538 70.7632L78.4328 71.3972C78.2598 71.3426 78.0992 71.3153 77.9527 71.3153C77.8294 71.3153 77.7408 71.3517 77.6853 71.4237C77.6315 71.4965 77.6042 71.5892 77.6042 71.7026V71.9005H78.3508V72.5486Z" fill="#2AA43C"/>
<path fill-rule="evenodd" clip-rule="evenodd" d="M83.166 74.1244C83.166 74.4489 83.0535 74.6955 82.8283 74.866C82.6023 75.0357 82.2655 75.1201 81.816 75.1201C81.5867 75.1201 81.3897 75.1052 81.2275 75.073C81.0661 75.0423 80.9138 74.9968 80.7722 74.9364V74.2237C80.9328 74.299 81.1141 74.3619 81.3144 74.4133C81.5155 74.4638 81.6918 74.4894 81.845 74.4894C82.1579 74.4894 82.3143 74.3992 82.3143 74.2179C82.3143 74.15 82.2936 74.0946 82.2522 74.0524C82.2108 74.0093 82.1396 73.9622 82.0378 73.9075C81.936 73.8546 81.8003 73.7916 81.6306 73.7196C81.3864 73.6178 81.2076 73.5235 81.0934 73.4366C80.9792 73.3496 80.8964 73.2503 80.8443 73.1386C80.7929 73.026 80.7673 72.8878 80.7673 72.7239C80.7673 72.4433 80.8757 72.2256 81.0934 72.0725C81.3119 71.9177 81.6207 71.8415 82.0196 71.8415C82.4012 71.8415 82.7712 71.9243 83.1321 72.0898L82.8722 72.7123C82.7133 72.6444 82.5651 72.589 82.4269 72.5459C82.2895 72.5029 82.1487 72.4805 82.0064 72.4805C81.7514 72.4805 81.624 72.5492 81.624 72.6875C81.624 72.7644 81.6654 72.8315 81.7473 72.8878C81.8292 72.9449 82.0089 73.0285 82.287 73.1402C82.5328 73.2396 82.7141 73.3331 82.83 73.42C82.9442 73.5069 83.0294 73.6071 83.0832 73.7196C83.1387 73.833 83.166 73.9679 83.166 74.1244Z" fill="#2AA43C"/>
<path fill-rule="evenodd" clip-rule="evenodd" d="M85.0211 72.4552C84.8382 72.4552 84.695 72.5132 84.5907 72.629C84.4872 72.7457 84.4285 72.9096 84.4136 73.1232H85.6245C85.6204 72.9096 85.5641 72.7457 85.4573 72.629C85.3489 72.5132 85.2049 72.4552 85.0211 72.4552ZM85.1428 75.1205C84.6337 75.1205 84.2364 74.9798 83.9492 74.6983C83.662 74.4178 83.5196 74.0196 83.5196 73.5048C83.5196 72.975 83.6521 72.5653 83.9169 72.2756C84.1818 71.9859 84.5485 71.841 85.0161 71.841C85.4623 71.841 85.8108 71.9685 86.0599 72.2235C86.309 72.4776 86.4332 72.8294 86.4332 73.2788V73.6968H84.3937C84.4028 73.9426 84.4756 74.1338 84.6114 74.2712C84.7471 74.4095 84.9375 74.4782 85.1825 74.4782C85.3737 74.4782 85.5533 74.4583 85.723 74.4186C85.8927 74.3788 86.0707 74.3159 86.2544 74.229V74.897C86.1046 74.9723 85.9424 75.0278 85.771 75.065C85.5997 75.1014 85.3903 75.1205 85.1428 75.1205Z" fill="#2AA43C"/>
<path fill-rule="evenodd" clip-rule="evenodd" d="M88.3393 74.4328C88.4908 74.4328 88.6712 74.3997 88.8823 74.3335V74.9758C88.6671 75.0718 88.4038 75.1206 88.0901 75.1206C87.7458 75.1206 87.4942 75.0329 87.3369 74.8583C87.1796 74.6844 87.101 74.422 87.101 74.0736V72.5489H86.6871V72.1839L87.1623 71.895L87.4114 71.227H87.9635V71.9008H88.8483V72.5489H87.9635V74.0736C87.9635 74.1961 87.9983 74.2863 88.067 74.3451C88.1357 74.4038 88.2259 74.4328 88.3393 74.4328Z" fill="#2AA43C"/>
<path fill-rule="evenodd" clip-rule="evenodd" d="M89.2745 74.6591C89.2745 74.501 89.3167 74.381 89.4012 74.2999C89.4864 74.2187 89.6098 74.1782 89.7728 74.1782C89.9284 74.1782 90.0501 74.2196 90.1354 74.3023C90.2214 74.3851 90.2637 74.5043 90.2637 74.6591C90.2637 74.8081 90.2214 74.9256 90.1345 75.0109C90.0476 75.097 89.9268 75.14 89.7728 75.14C89.6139 75.14 89.4914 75.0978 89.4037 75.0142C89.3176 74.9306 89.2745 74.8122 89.2745 74.6591ZM89.2745 72.3224C89.2745 72.1635 89.3167 72.0443 89.4012 71.9632C89.4864 71.8821 89.6098 71.8415 89.7728 71.8415C89.9284 71.8415 90.0501 71.8829 90.1354 71.9657C90.2214 72.0485 90.2637 72.1677 90.2637 72.3224C90.2637 72.4747 90.2206 72.5931 90.1329 72.6775C90.0451 72.7611 89.9243 72.8033 89.7728 72.8033C89.6139 72.8033 89.4914 72.762 89.4037 72.6784C89.3176 72.5956 89.2745 72.4772 89.2745 72.3224Z" fill="#2AA43C"/>
<path fill-rule="evenodd" clip-rule="evenodd" d="M42.8137 94.6534H44.4543V96.798C44.1894 96.885 43.9386 96.9454 43.7035 96.9801C43.4693 97.0157 43.2292 97.0331 42.9834 97.0331C42.3593 97.0331 41.8825 96.8494 41.5539 96.4818C41.2245 96.116 41.0598 95.5887 41.0598 94.9026C41.0598 94.2346 41.251 93.7139 41.6325 93.3406C42.015 92.9673 42.5447 92.7803 43.2209 92.7803C43.6464 92.7803 44.0553 92.8655 44.4501 93.0352L44.1579 93.7371C43.8566 93.5856 43.5421 93.5103 43.216 93.5103C42.8361 93.5103 42.5331 93.6378 42.3047 93.8927C42.0762 94.1468 41.9628 94.4895 41.9628 94.9191C41.9628 95.3686 42.0547 95.7112 42.2384 95.948C42.4222 96.1847 42.6895 96.3031 43.0397 96.3031C43.2234 96.3031 43.4097 96.284 43.5976 96.2459V95.3835H42.8137V94.6534Z" fill="#2AA43C"/>
<path fill-rule="evenodd" clip-rule="evenodd" d="M47.0097 93.7538C47.1272 93.7538 47.2241 93.762 47.301 93.7794L47.2357 94.5881C47.1661 94.5691 47.0817 94.56 46.9815 94.56C46.7059 94.56 46.4915 94.6311 46.3376 94.7719C46.1844 94.9134 46.1075 95.112 46.1075 95.3662V96.9761H45.2442V93.8133H45.8972L46.0255 94.3447H46.0669C46.1654 94.1676 46.2987 94.0252 46.465 93.9168C46.6322 93.8076 46.8135 93.7538 47.0097 93.7538Z" fill="#2AA43C"/>
<path fill-rule="evenodd" clip-rule="evenodd" d="M49.5026 95.5106L49.169 95.5222C48.9182 95.5296 48.7312 95.5752 48.6087 95.6579C48.4853 95.7407 48.4241 95.8673 48.4241 96.037C48.4241 96.2804 48.564 96.4021 48.8429 96.4021C49.0432 96.4021 49.2038 96.3441 49.323 96.2291C49.443 96.114 49.5026 95.9609 49.5026 95.7705V95.5106ZM49.7576 96.9765L49.5895 96.5461H49.5672C49.4223 96.729 49.2733 96.8556 49.1194 96.9268C48.9663 96.9972 48.7651 97.0328 48.5185 97.0328C48.2139 97.0328 47.9755 96.9459 47.8008 96.772C47.6262 96.5991 47.5393 96.3516 47.5393 96.0312C47.5393 95.6952 47.6568 95.4477 47.8919 95.2879C48.1261 95.129 48.4804 95.0413 48.9538 95.0239L49.5026 95.0073V94.8683C49.5026 94.548 49.3387 94.3874 49.0101 94.3874C48.7577 94.3874 48.4605 94.4635 48.1187 94.6167L47.8331 94.0339C48.1973 93.8436 48.6012 93.7484 49.0441 93.7484C49.4687 93.7484 49.794 93.8403 50.0199 94.0257C50.2459 94.2102 50.3593 94.4917 50.3593 94.8683V96.9765H49.7576Z" fill="#2AA43C"/>
<path fill-rule="evenodd" clip-rule="evenodd" d="M54.0397 96.9762H53.1764V95.1287C53.1764 94.9002 53.1358 94.7297 53.0555 94.6147C52.9744 94.5013 52.8453 94.4442 52.6673 94.4442C52.4265 94.4442 52.2518 94.5244 52.1442 94.6859C52.0366 94.8473 51.9836 95.1146 51.9836 95.4879V96.9762H51.1203V93.8134H51.78L51.8951 94.2174H51.9431C52.0399 94.0651 52.1715 93.9492 52.3404 93.8714C52.5092 93.7927 52.7013 93.7538 52.9165 93.7538C53.2848 93.7538 53.5638 93.8532 53.7533 94.0526C53.9445 94.2513 54.0397 94.5385 54.0397 94.9135V96.9762Z" fill="#2AA43C"/>
<path fill-rule="evenodd" clip-rule="evenodd" d="M56.1049 96.3452C56.3251 96.3452 56.4874 96.2806 56.59 96.1532C56.6926 96.0249 56.7481 95.8072 56.758 95.4993V95.4057C56.758 95.0664 56.7059 94.823 56.6016 94.6757C56.4965 94.5292 56.3268 94.4555 56.09 94.4555C55.898 94.4555 55.7482 94.5366 55.6414 94.6997C55.5355 94.8627 55.4825 95.1003 55.4825 95.4115C55.4825 95.7228 55.5363 95.9562 55.6431 96.1118C55.7507 96.2674 55.9046 96.3452 56.1049 96.3452ZM55.802 97.033C55.4304 97.033 55.1382 96.8882 54.9263 96.6001C54.7135 96.3113 54.6076 95.9115 54.6076 95.3999C54.6076 94.8818 54.716 94.4779 54.9321 94.1881C55.1481 93.8984 55.4453 93.7536 55.8243 93.7536C56.2225 93.7536 56.5263 93.9084 56.7357 94.2179H56.7638C56.7199 93.982 56.6984 93.7718 56.6984 93.5864V92.5741H57.5651V96.9759H56.902L56.7357 96.5662H56.6984C56.5023 96.8774 56.2034 97.033 55.802 97.033Z" fill="#2AA43C"/>
<path fill-rule="evenodd" clip-rule="evenodd" d="M61.3809 96.9762H60.5035V93.5701H59.3811V92.84H62.5041V93.5701H61.3809V96.9762Z" fill="#2AA43C"/>
<path fill-rule="evenodd" clip-rule="evenodd" d="M63.6321 95.389C63.6321 95.7019 63.6834 95.9386 63.7869 96.0992C63.8895 96.2598 64.0575 96.3392 64.2885 96.3392C64.5186 96.3392 64.6841 96.2598 64.7859 96.1009C64.8869 95.9411 64.9366 95.7035 64.9366 95.389C64.9366 95.0761 64.8861 94.8411 64.7843 94.6846C64.6825 94.5282 64.5144 94.4495 64.2835 94.4495C64.0534 94.4495 63.8879 94.5274 63.786 94.683C63.6834 94.8386 63.6321 95.0745 63.6321 95.389ZM65.8198 95.389C65.8198 95.9038 65.684 96.3061 65.4117 96.5967C65.1402 96.888 64.7619 97.0329 64.2769 97.0329C63.9739 97.0329 63.7066 96.9666 63.474 96.8334C63.2422 96.7001 63.0634 96.5097 62.9393 96.2606C62.8151 96.0115 62.7531 95.7209 62.7531 95.389C62.7531 94.8717 62.888 94.4702 63.157 94.1838C63.4268 93.8974 63.8059 93.7534 64.2951 93.7534C64.598 93.7534 64.8654 93.8196 65.098 93.9521C65.3298 94.0837 65.5085 94.2732 65.6327 94.5207C65.7569 94.7674 65.8198 95.0571 65.8198 95.389Z" fill="#2AA43C"/>
<path fill-rule="evenodd" clip-rule="evenodd" d="M67.7368 96.3452C67.8882 96.3452 68.0687 96.3121 68.2797 96.2459V96.8882C68.0645 96.9842 67.8013 97.033 67.4876 97.033C67.1433 97.033 66.8917 96.9453 66.7344 96.7706C66.5771 96.5968 66.4985 96.3344 66.4985 95.986V94.4613H66.0846V94.0963L66.5597 93.8074L66.8089 93.1394H67.361V93.8132H68.2458V94.4613H67.361V95.986C67.361 96.1085 67.3957 96.1987 67.4644 96.2575C67.5331 96.3162 67.6234 96.3452 67.7368 96.3452Z" fill="#2AA43C"/>
<path fill-rule="evenodd" clip-rule="evenodd" d="M70.5473 95.5106L70.2137 95.5222C69.9629 95.5296 69.7759 95.5752 69.6534 95.6579C69.53 95.7407 69.4688 95.8673 69.4688 96.037C69.4688 96.2804 69.6087 96.4021 69.8876 96.4021C70.0879 96.4021 70.2485 96.3441 70.3677 96.2291C70.4877 96.114 70.5473 95.9609 70.5473 95.7705V95.5106ZM70.8022 96.9765L70.6342 96.5461H70.6119C70.467 96.729 70.318 96.8556 70.1641 96.9268C70.0109 96.9972 69.8098 97.0328 69.5631 97.0328C69.2585 97.0328 69.0201 96.9459 68.8455 96.772C68.6708 96.5991 68.5839 96.3516 68.5839 96.0312C68.5839 95.6952 68.7015 95.4477 68.9365 95.2879C69.1708 95.129 69.5251 95.0413 69.9985 95.0239L70.5473 95.0073V94.8683C70.5473 94.548 70.3834 94.3874 70.0548 94.3874C69.8023 94.3874 69.5052 94.4635 69.1633 94.6167L68.8778 94.0339C69.242 93.8436 69.6459 93.7484 70.0887 93.7484C70.5134 93.7484 70.8387 93.8403 71.0646 94.0257C71.2906 94.2102 71.404 94.4917 71.404 94.8683V96.9765H70.8022Z" fill="#2AA43C"/>
<path fill-rule="evenodd" clip-rule="evenodd" d="M72.1658 96.976H73.0291V92.5742H72.1658V96.976Z" fill="#2AA43C"/>
<path fill-rule="evenodd" clip-rule="evenodd" d="M73.6852 96.5716C73.6852 96.4135 73.7274 96.2935 73.8118 96.2123C73.8971 96.1312 74.0204 96.0907 74.1835 96.0907C74.3391 96.0907 74.4608 96.1321 74.546 96.2148C74.6321 96.2976 74.6743 96.4168 74.6743 96.5716C74.6743 96.7206 74.6321 96.8381 74.5452 96.9234C74.4583 97.0094 74.3374 97.0525 74.1835 97.0525C74.0246 97.0525 73.9021 97.0103 73.8143 96.9267C73.7282 96.8431 73.6852 96.7247 73.6852 96.5716ZM73.6852 94.2349C73.6852 94.076 73.7274 93.9568 73.8118 93.8757C73.8971 93.7946 74.0204 93.754 74.1835 93.754C74.3391 93.754 74.4608 93.7954 74.546 93.8782C74.6321 93.9609 74.6743 94.0801 74.6743 94.2349C74.6743 94.3872 74.6313 94.5056 74.5435 94.59C74.4558 94.6736 74.335 94.7158 74.1835 94.7158C74.0246 94.7158 73.9021 94.6744 73.8143 94.5908C73.7282 94.5081 73.6852 94.3897 73.6852 94.2349Z" fill="#2AA43C"/>
<path fill-rule="evenodd" clip-rule="evenodd" d="M48.126 69.7013C48.2469 69.9769 48.3421 70.2766 48.4108 70.6002C48.4795 70.9238 48.5142 71.245 48.5142 71.5637C48.5142 72.3053 48.3677 72.9865 48.0747 73.6073C47.7809 74.2281 47.3761 74.728 46.8588 75.1071C46.3241 75.4953 45.7207 75.7155 45.0477 75.7668C44.5652 75.819 44.1124 75.737 43.6903 75.521C43.3277 75.3397 43.0306 75.0898 42.798 74.7711C42.5132 75.0037 42.2765 75.2628 42.0861 75.5467C41.9827 75.694 41.909 75.8206 41.8668 75.9282C41.8237 76.0367 41.7476 76.1145 41.64 76.1617C41.5324 76.2088 41.4264 76.2113 41.323 76.1675C41.2195 76.1244 41.1442 76.0491 41.097 75.9415C41.049 75.8339 41.0473 75.7279 41.0904 75.6245C41.2369 75.2801 41.4695 74.9308 41.789 74.5774C42.2285 74.094 42.7591 73.7108 43.3799 73.426C44.1554 73.0635 45.0394 72.883 46.0311 72.883C46.0915 72.883 46.1411 72.8632 46.1792 72.8243C46.2181 72.7862 46.238 72.7365 46.238 72.6761C46.238 72.6157 46.2181 72.566 46.1792 72.5271C46.1411 72.4882 46.0915 72.4692 46.0311 72.4692C44.5734 72.4692 43.341 72.8309 42.332 73.5552L42.3187 73.5295C42.3104 73.426 42.3063 73.3482 42.3063 73.2969C42.3063 72.8483 42.418 72.4344 42.6424 72.0553C42.8667 71.6754 43.1688 71.3741 43.5479 71.1498C43.927 70.9255 44.3408 70.8137 44.7895 70.8137H45.8241C46.2289 70.8137 46.6022 70.7119 46.9424 70.51C47.2826 70.3072 47.5574 70.0291 47.7643 69.6756C47.8065 69.6061 47.8694 69.5722 47.9514 69.5722C48.0333 69.5722 48.0913 69.6152 48.126 69.7013Z" fill="#2AA43C"/>
<path fill-rule="evenodd" clip-rule="evenodd" d="M117.988 52.2157C117.988 52.1362 117.957 52.0691 117.893 52.0145C117.828 51.9599 117.732 51.9036 117.603 51.8448V52.5492C117.861 52.5062 117.988 52.3944 117.988 52.2157ZM116.852 50.4981C116.852 50.5809 116.88 50.6496 116.937 50.7034C116.995 50.7572 117.088 50.8127 117.216 50.869V50.2043C116.973 50.2399 116.852 50.3376 116.852 50.4981ZM118.84 52.1734C118.84 52.4731 118.731 52.7139 118.515 52.896C118.298 53.0781 117.995 53.1866 117.603 53.223V53.8024H117.216V53.2337C116.757 53.2246 116.352 53.1435 116.005 52.9912V52.2438C116.17 52.3249 116.367 52.3969 116.598 52.459C116.829 52.5211 117.035 52.5583 117.216 52.5691V51.6925L117.026 51.6189C116.653 51.4715 116.388 51.3118 116.233 51.1388C116.077 50.9666 116 50.7531 116 50.4981C116 50.225 116.107 49.9998 116.32 49.8235C116.535 49.6472 116.833 49.5404 117.216 49.5024V49.0695H117.603V49.4908C118.036 49.5098 118.426 49.5967 118.775 49.7515L118.509 50.4137C118.214 50.2928 117.913 50.2192 117.603 50.1927V51.027C117.972 51.1686 118.233 51.2911 118.389 51.3954C118.544 51.4988 118.659 51.6131 118.731 51.7372C118.803 51.8622 118.84 52.0071 118.84 52.1734Z" fill="#2AA43C"/>
<path fill-rule="evenodd" clip-rule="evenodd" d="M120.628 52.8239C120.815 52.8239 120.958 52.761 121.059 52.636C121.159 52.5102 121.208 52.3314 121.208 52.0997C121.208 51.8977 121.162 51.7388 121.068 51.6229C120.975 51.507 120.833 51.4491 120.646 51.4491C120.468 51.4491 120.316 51.5062 120.191 51.6213C120.065 51.7371 120.002 51.8704 120.002 52.0235C120.002 52.2478 120.061 52.4374 120.18 52.5922C120.298 52.747 120.447 52.8239 120.628 52.8239ZM119.134 51.709C119.134 50.8912 119.307 50.2812 119.653 49.8814C119.999 49.4816 120.518 49.2821 121.208 49.2821C121.443 49.2821 121.629 49.2962 121.763 49.3243V50.0229C121.595 49.9857 121.429 49.9666 121.265 49.9666C120.964 49.9666 120.72 50.0122 120.53 50.1024C120.341 50.1926 120.199 50.3267 120.104 50.5038C120.011 50.6818 119.955 50.9334 119.938 51.2595H119.975C120.161 50.9392 120.46 50.7786 120.871 50.7786C121.241 50.7786 121.53 50.8945 121.741 51.1263C121.949 51.358 122.054 51.6792 122.054 52.0881C122.054 52.5301 121.929 52.8794 121.68 53.136C121.432 53.3942 121.087 53.5225 120.646 53.5225C120.339 53.5225 120.073 53.4522 119.846 53.3106C119.618 53.1691 119.443 52.9622 119.32 52.6907C119.196 52.4192 119.134 52.0922 119.134 51.709Z" fill="#2AA43C"/>
<path fill-rule="evenodd" clip-rule="evenodd" d="M122.443 53.0616C122.443 52.9035 122.485 52.7835 122.569 52.7024C122.655 52.6212 122.778 52.5807 122.941 52.5807C123.097 52.5807 123.218 52.6221 123.304 52.7048C123.39 52.7876 123.432 52.9068 123.432 53.0616C123.432 53.2106 123.39 53.3281 123.303 53.4134C123.216 53.4995 123.095 53.5425 122.941 53.5425C122.782 53.5425 122.66 53.5003 122.572 53.4167C122.486 53.3331 122.443 53.2147 122.443 53.0616Z" fill="#2AA43C"/>
<path fill-rule="evenodd" clip-rule="evenodd" d="M124.714 51.398C124.714 51.9054 124.758 52.2688 124.845 52.489C124.934 52.7083 125.08 52.8184 125.288 52.8184C125.491 52.8184 125.639 52.7075 125.73 52.484C125.82 52.2613 125.866 51.8996 125.866 51.398C125.866 50.8906 125.819 50.5264 125.728 50.3046C125.636 50.0828 125.49 49.9719 125.288 49.9719C125.083 49.9719 124.936 50.0828 124.847 50.3046C124.758 50.5264 124.714 50.8906 124.714 51.398ZM126.736 51.398C126.736 52.1206 126.619 52.6553 126.382 53.0022C126.145 53.349 125.78 53.5228 125.288 53.5228C124.811 53.5228 124.452 53.344 124.209 52.9848C123.967 52.6264 123.845 52.0975 123.845 51.398C123.845 50.668 123.963 50.13 124.199 49.784C124.434 49.438 124.798 49.265 125.288 49.265C125.765 49.265 126.126 49.4463 126.37 49.808C126.615 50.1705 126.736 50.7003 126.736 51.398Z" fill="#2AA43C"/>
<path fill-rule="evenodd" clip-rule="evenodd" d="M127.894 51.398C127.894 51.9054 127.938 52.2688 128.025 52.489C128.113 52.7083 128.26 52.8184 128.468 52.8184C128.671 52.8184 128.819 52.7075 128.91 52.484C129 52.2613 129.045 51.8996 129.045 51.398C129.045 50.8906 128.999 50.5264 128.908 50.3046C128.816 50.0828 128.67 49.9719 128.468 49.9719C128.262 49.9719 128.116 50.0828 128.027 50.3046C127.938 50.5264 127.894 50.8906 127.894 51.398ZM129.916 51.398C129.916 52.1206 129.799 52.6553 129.562 53.0022C129.325 53.349 128.96 53.5228 128.468 53.5228C127.991 53.5228 127.632 53.344 127.389 52.9848C127.147 52.6264 127.025 52.0975 127.025 51.398C127.025 50.668 127.143 50.13 127.378 49.784C127.614 49.438 127.978 49.265 128.468 49.265C128.945 49.265 129.306 49.4463 129.55 49.808C129.795 50.1705 129.916 50.7003 129.916 51.398Z" fill="#2AA43C"/>
<path fill-rule="evenodd" clip-rule="evenodd" d="M117.988 73.6645C117.988 73.5851 117.957 73.518 117.893 73.4634C117.828 73.4088 117.732 73.3525 117.603 73.2937V73.9981C117.861 73.955 117.988 73.8433 117.988 73.6645ZM116.852 71.947C116.852 72.0298 116.88 72.0985 116.937 72.1523C116.995 72.2061 117.088 72.2615 117.216 72.3178V71.6532C116.973 71.6887 116.852 71.7864 116.852 71.947ZM118.84 73.6223C118.84 73.9219 118.731 74.1628 118.515 74.3449C118.298 74.527 117.995 74.6354 117.603 74.6719V75.2513H117.216V74.6826C116.757 74.6735 116.352 74.5924 116.005 74.4401V73.6927C116.17 73.7738 116.367 73.8458 116.598 73.9079C116.829 73.9699 117.035 74.0072 117.216 74.018V73.1414L117.026 73.0677C116.653 72.9204 116.388 72.7606 116.233 72.5876C116.077 72.4155 116 72.2019 116 71.947C116 71.6738 116.107 71.4487 116.32 71.2724C116.535 71.0961 116.833 70.9893 117.216 70.9512V70.5183H117.603V70.9397C118.036 70.9587 118.426 71.0456 118.775 71.2004L118.509 71.8626C118.214 71.7417 117.913 71.668 117.603 71.6416V72.4759C117.972 72.6174 118.233 72.7399 118.389 72.8442C118.544 72.9477 118.659 73.0619 118.731 73.1861C118.803 73.3111 118.84 73.4559 118.84 73.6223Z" fill="#2AA43C"/>
<path fill-rule="evenodd" clip-rule="evenodd" d="M122.054 74.9149H119.163V74.3066L120.202 73.257C120.509 72.9425 120.709 72.724 120.803 72.6023C120.899 72.4806 120.966 72.368 121.007 72.2638C121.048 72.1603 121.07 72.0527 121.07 71.9418C121.07 71.7754 121.024 71.6521 120.932 71.5709C120.841 71.4898 120.719 71.4493 120.566 71.4493C120.406 71.4493 120.25 71.4857 120.1 71.5594C119.948 71.633 119.791 71.7381 119.626 71.8739L119.151 71.311C119.355 71.1372 119.524 71.0147 119.658 70.9427C119.792 70.8715 119.938 70.8161 120.096 70.7772C120.255 70.7391 120.432 70.7192 120.628 70.7192C120.887 70.7192 121.115 70.7664 121.312 70.8608C121.511 70.9551 121.664 71.0867 121.774 71.2572C121.884 71.4269 121.937 71.6214 121.937 71.84C121.937 72.0303 121.904 72.2083 121.837 72.3763C121.77 72.5427 121.667 72.714 121.526 72.8895C121.385 73.065 121.139 73.3141 120.783 73.6386L120.251 74.1394V74.1791H122.054V74.9149Z" fill="#2AA43C"/>
<path fill-rule="evenodd" clip-rule="evenodd" d="M122.443 74.5104C122.443 74.3523 122.485 74.2323 122.57 74.1512C122.655 74.0701 122.778 74.0295 122.941 74.0295C123.097 74.0295 123.218 74.0709 123.304 74.1537C123.39 74.2365 123.432 74.3557 123.432 74.5104C123.432 74.6594 123.39 74.777 123.303 74.8622C123.216 74.9483 123.095 74.9913 122.941 74.9913C122.782 74.9913 122.66 74.9491 122.572 74.8655C122.486 74.7819 122.443 74.6636 122.443 74.5104Z" fill="#2AA43C"/>
<path fill-rule="evenodd" clip-rule="evenodd" d="M124.714 72.8469C124.714 73.3543 124.758 73.7176 124.845 73.9378C124.934 74.1572 125.08 74.2673 125.288 74.2673C125.491 74.2673 125.639 74.1563 125.73 73.9329C125.82 73.7102 125.866 73.3485 125.866 72.8469C125.866 72.3395 125.819 71.9753 125.728 71.7535C125.636 71.5316 125.49 71.4207 125.288 71.4207C125.083 71.4207 124.936 71.5316 124.847 71.7535C124.758 71.9753 124.714 72.3395 124.714 72.8469ZM126.736 72.8469C126.736 73.5695 126.619 74.1042 126.382 74.451C126.145 74.7978 125.78 74.9717 125.288 74.9717C124.811 74.9717 124.452 74.7929 124.209 74.4336C123.967 74.0752 123.845 73.5463 123.845 72.8469C123.845 72.1168 123.964 71.5788 124.199 71.2328C124.434 70.8868 124.798 70.7138 125.288 70.7138C125.765 70.7138 126.126 70.8951 126.371 71.2568C126.615 71.6194 126.736 72.1491 126.736 72.8469Z" fill="#2AA43C"/>
<path fill-rule="evenodd" clip-rule="evenodd" d="M127.894 72.8469C127.894 73.3543 127.938 73.7176 128.025 73.9378C128.114 74.1572 128.26 74.2673 128.468 74.2673C128.671 74.2673 128.819 74.1563 128.91 73.9329C129 73.7102 129.046 73.3485 129.046 72.8469C129.046 72.3395 128.999 71.9753 128.908 71.7535C128.816 71.5316 128.67 71.4207 128.468 71.4207C128.263 71.4207 128.116 71.5316 128.027 71.7535C127.938 71.9753 127.894 72.3395 127.894 72.8469ZM129.916 72.8469C129.916 73.5695 129.799 74.1042 129.562 74.451C129.325 74.7978 128.96 74.9717 128.468 74.9717C127.991 74.9717 127.632 74.7929 127.389 74.4336C127.147 74.0752 127.025 73.5463 127.025 72.8469C127.025 72.1168 127.143 71.5788 127.379 71.2328C127.614 70.8868 127.978 70.7138 128.468 70.7138C128.945 70.7138 129.306 70.8951 129.55 71.2568C129.795 71.6194 129.916 72.1491 129.916 72.8469Z" fill="#2AA43C"/>
<path fill-rule="evenodd" clip-rule="evenodd" d="M117.988 95.5927C117.988 95.5132 117.957 95.4462 117.893 95.3916C117.828 95.3369 117.732 95.2807 117.603 95.2219V95.9263C117.861 95.8832 117.988 95.7715 117.988 95.5927ZM116.852 93.8752C116.852 93.958 116.88 94.0267 116.937 94.0805C116.995 94.1343 117.088 94.1897 117.216 94.246V93.5813C116.973 93.6169 116.852 93.7146 116.852 93.8752ZM118.84 95.5505C118.84 95.8501 118.731 96.091 118.515 96.2731C118.298 96.4552 117.995 96.5636 117.603 96.6V97.1795H117.216V96.6108C116.757 96.6017 116.352 96.5206 116.005 96.3683V95.6209C116.17 95.702 116.367 95.774 116.598 95.8361C116.829 95.8981 117.035 95.9354 117.216 95.9461V95.0696L117.026 94.9959C116.653 94.8486 116.388 94.6888 116.233 94.5158C116.077 94.3437 116 94.1301 116 93.8752C116 93.602 116.107 93.3769 116.32 93.2006C116.535 93.0243 116.833 92.9175 117.216 92.8794V92.4465H117.603V92.8678C118.036 92.8869 118.426 92.9738 118.775 93.1286L118.509 93.7908C118.214 93.6699 117.913 93.5962 117.603 93.5698V94.4041C117.972 94.5456 118.233 94.6681 118.389 94.7724C118.544 94.8759 118.659 94.9901 118.731 95.1143C118.803 95.2393 118.84 95.3841 118.84 95.5505Z" fill="#2AA43C"/>
<path fill-rule="evenodd" clip-rule="evenodd" d="M120.583 93.2926C120.434 93.2926 120.314 93.3307 120.222 93.4069C120.131 93.4838 120.085 93.5857 120.085 93.714C120.085 93.8273 120.121 93.9292 120.194 94.0177C120.267 94.1079 120.397 94.1998 120.589 94.2942C120.773 94.2073 120.903 94.1187 120.976 94.0285C121.05 93.9374 121.086 93.8331 121.086 93.714C121.086 93.584 121.04 93.4814 120.945 93.406C120.85 93.3299 120.73 93.2926 120.583 93.2926ZM119.944 95.7427C119.944 95.9049 120 96.0316 120.114 96.1218C120.226 96.212 120.381 96.2575 120.577 96.2575C120.794 96.2575 120.956 96.2112 121.064 96.1177C121.171 96.0241 121.224 95.9008 121.224 95.7485C121.224 95.6219 121.172 95.5035 121.065 95.3934C120.959 95.2833 120.786 95.1658 120.546 95.0408C120.145 95.2254 119.944 95.4596 119.944 95.7427ZM120.589 92.6536C120.984 92.6536 121.304 92.743 121.546 92.9235C121.789 93.1031 121.911 93.3464 121.911 93.6519C121.911 93.8629 121.851 94.0517 121.734 94.2164C121.618 94.3811 121.428 94.5293 121.168 94.6592C121.478 94.8256 121.7 94.9986 121.835 95.1782C121.97 95.3586 122.037 95.5556 122.037 95.7708C122.037 96.1102 121.904 96.3834 121.638 96.5903C121.372 96.7964 121.022 96.8999 120.589 96.8999C120.136 96.8999 119.78 96.8038 119.523 96.611C119.263 96.4189 119.134 96.1466 119.134 95.7932C119.134 95.5581 119.197 95.3487 119.323 95.1658C119.448 94.9828 119.649 94.8214 119.926 94.6816C119.691 94.5326 119.521 94.3736 119.417 94.204C119.314 94.0343 119.262 93.848 119.262 93.6461C119.262 93.3497 119.384 93.1105 119.629 92.9276C119.875 92.7447 120.194 92.6536 120.589 92.6536Z" fill="#2AA43C"/>
<path fill-rule="evenodd" clip-rule="evenodd" d="M122.443 96.4386C122.443 96.2805 122.485 96.1604 122.569 96.0793C122.655 95.9982 122.778 95.9577 122.941 95.9577C123.097 95.9577 123.218 95.999 123.304 96.0818C123.39 96.1646 123.432 96.2838 123.432 96.4386C123.432 96.5876 123.39 96.7051 123.303 96.7903C123.216 96.8764 123.095 96.9195 122.941 96.9195C122.782 96.9195 122.66 96.8773 122.572 96.7937C122.486 96.7101 122.443 96.5917 122.443 96.4386Z" fill="#2AA43C"/>
<path fill-rule="evenodd" clip-rule="evenodd" d="M124.714 94.7751C124.714 95.2825 124.758 95.6458 124.845 95.866C124.934 96.0854 125.08 96.1955 125.288 96.1955C125.491 96.1955 125.639 96.0845 125.73 95.8611C125.82 95.6384 125.866 95.2767 125.866 94.7751C125.866 94.2677 125.819 93.9035 125.728 93.6817C125.636 93.4598 125.49 93.3489 125.288 93.3489C125.083 93.3489 124.936 93.4598 124.847 93.6817C124.758 93.9035 124.714 94.2677 124.714 94.7751ZM126.736 94.7751C126.736 95.4977 126.619 96.0324 126.382 96.3792C126.145 96.726 125.78 96.8998 125.288 96.8998C124.811 96.8998 124.452 96.7211 124.209 96.3618C123.967 96.0034 123.845 95.4745 123.845 94.7751C123.845 94.045 123.963 93.507 124.199 93.161C124.434 92.815 124.798 92.642 125.288 92.642C125.765 92.642 126.126 92.8233 126.37 93.185C126.615 93.5476 126.736 94.0773 126.736 94.7751Z" fill="#2AA43C"/>
<path fill-rule="evenodd" clip-rule="evenodd" d="M127.894 94.7751C127.894 95.2825 127.938 95.6458 128.025 95.866C128.113 96.0854 128.26 96.1955 128.468 96.1955C128.671 96.1955 128.819 96.0845 128.91 95.8611C129 95.6384 129.045 95.2767 129.045 94.7751C129.045 94.2677 128.999 93.9035 128.908 93.6817C128.816 93.4598 128.67 93.3489 128.468 93.3489C128.262 93.3489 128.116 93.4598 128.027 93.6817C127.938 93.9035 127.894 94.2677 127.894 94.7751ZM129.916 94.7751C129.916 95.4977 129.799 96.0324 129.562 96.3792C129.325 96.726 128.96 96.8998 128.468 96.8998C127.991 96.8998 127.632 96.7211 127.389 96.3618C127.147 96.0034 127.025 95.4745 127.025 94.7751C127.025 94.045 127.143 93.507 127.378 93.161C127.614 92.815 127.978 92.642 128.468 92.642C128.945 92.642 129.306 92.8233 129.55 93.185C129.795 93.5476 129.916 94.0773 129.916 94.7751Z" fill="#2AA43C"/>
</g>
<path d="M34.5967 28.2883C34.2666 28.2883 34.011 28.4128 33.83 28.6617C33.6489 28.9088 33.5584 29.254 33.5584 29.6972C33.5584 30.6195 33.9045 31.0806 34.5967 31.0806C34.8871 31.0806 35.2389 31.008 35.6519 30.8628V31.5984C35.3124 31.7398 34.9333 31.8106 34.5146 31.8106C33.913 31.8106 33.4528 31.6286 33.134 31.2645C32.8153 30.8986 32.6559 30.3743 32.6559 29.6915C32.6559 29.2615 32.7342 28.8852 32.8907 28.5627C33.0473 28.2383 33.2717 27.9903 33.564 27.8187C33.8583 27.6451 34.2025 27.5584 34.5967 27.5584C34.9984 27.5584 35.402 27.6555 35.8075 27.8498L35.5246 28.5627C35.37 28.4892 35.2144 28.425 35.0578 28.3703C34.9013 28.3156 34.7476 28.2883 34.5967 28.2883ZM39.3682 31.754H38.5053V29.9066C38.5053 29.4501 38.3356 29.2219 37.9961 29.2219C37.7546 29.2219 37.5802 29.304 37.4727 29.468C37.3652 29.6321 37.3114 29.8981 37.3114 30.2659V31.754H36.4485V27.3519H37.3114V28.2487C37.3114 28.3185 37.3048 28.4826 37.2916 28.741L37.2718 28.9956H37.3171C37.5094 28.6863 37.815 28.5316 38.2337 28.5316C38.6053 28.5316 38.8872 28.6316 39.0796 28.8315C39.272 29.0314 39.3682 29.3181 39.3682 29.6915V31.754ZM41.5482 29.1455C41.3653 29.1455 41.2219 29.204 41.1182 29.3209C41.0144 29.436 40.955 29.6001 40.9399 29.8132H42.1508C42.147 29.6001 42.0914 29.436 41.9839 29.3209C41.8764 29.204 41.7312 29.1455 41.5482 29.1455ZM41.6699 31.8106C41.1606 31.8106 40.7627 31.6701 40.476 31.389C40.1893 31.108 40.0459 30.71 40.0459 30.1951C40.0459 29.6651 40.178 29.2559 40.442 28.9673C40.708 28.6768 41.0748 28.5316 41.5426 28.5316C41.9896 28.5316 42.3375 28.6589 42.5865 28.9135C42.8355 29.1682 42.9599 29.5199 42.9599 29.9688V30.3875H40.9201C40.9296 30.6327 41.0022 30.8241 41.138 30.9618C41.2738 31.0995 41.4643 31.1684 41.7095 31.1684C41.9 31.1684 42.0801 31.1485 42.2498 31.1089C42.4196 31.0693 42.5969 31.0061 42.7817 30.9194V31.5871C42.6308 31.6625 42.4696 31.7181 42.2979 31.754C42.1263 31.7917 41.9169 31.8106 41.6699 31.8106ZM44.9278 31.8106C43.9433 31.8106 43.451 31.2702 43.451 30.1895C43.451 29.6519 43.5849 29.2417 43.8527 28.9588C44.1205 28.674 44.5044 28.5316 45.0042 28.5316C45.3701 28.5316 45.6983 28.6033 45.9887 28.7466L45.7341 29.4143C45.5983 29.3596 45.4719 29.3153 45.355 29.2813C45.2381 29.2455 45.1211 29.2276 45.0042 29.2276C44.5553 29.2276 44.3308 29.5463 44.3308 30.1838C44.3308 30.8025 44.5553 31.1118 45.0042 31.1118C45.1702 31.1118 45.3239 31.0901 45.4653 31.0467C45.6068 31.0014 45.7482 30.9316 45.8897 30.8373V31.5757C45.7501 31.6644 45.6087 31.7257 45.4653 31.7596C45.3239 31.7936 45.1447 31.8106 44.9278 31.8106ZM47.436 30.0339L47.8123 29.5529L48.6978 28.591H49.671L48.4149 29.9631L49.7474 31.754H48.7515L47.8406 30.4724L47.4699 30.7694V31.754H46.6071V27.3519H47.4699V29.3153L47.4247 30.0339H47.436ZM50.8693 30.1668C50.8693 30.4799 50.9202 30.7166 51.0221 30.877C51.1258 31.0373 51.2937 31.1174 51.5257 31.1174C51.7558 31.1174 51.9208 31.0382 52.0208 30.8798C52.1226 30.7195 52.1736 30.4818 52.1736 30.1668C52.1736 29.8537 52.1226 29.6189 52.0208 29.4624C51.9189 29.3058 51.752 29.2276 51.52 29.2276C51.2899 29.2276 51.1239 29.3058 51.0221 29.4624C50.9202 29.617 50.8693 29.8519 50.8693 30.1668ZM53.0562 30.1668C53.0562 30.6817 52.9204 31.0844 52.6488 31.3749C52.3772 31.6653 51.9991 31.8106 51.5144 31.8106C51.2107 31.8106 50.9429 31.7446 50.7109 31.6125C50.4789 31.4786 50.3007 31.2872 50.1762 31.0382C50.0517 30.7892 49.9895 30.4988 49.9895 30.1668C49.9895 29.6501 50.1243 29.2483 50.394 28.9616C50.6637 28.6749 51.0428 28.5316 51.5313 28.5316C51.835 28.5316 52.1028 28.5976 52.3348 28.7296C52.5668 28.8617 52.745 29.0512 52.8695 29.2983C52.994 29.5454 53.0562 29.8349 53.0562 30.1668ZM55.9916 31.754L55.8756 31.3494H55.8304C55.738 31.4965 55.6069 31.6106 55.4371 31.6917C55.2674 31.771 55.0741 31.8106 54.8572 31.8106C54.4856 31.8106 54.2055 31.7115 54.0169 31.5135C53.8283 31.3136 53.734 31.0269 53.734 30.6535V28.591H54.5969V30.4384C54.5969 30.6667 54.6374 30.8383 54.7185 30.9533C54.7996 31.0665 54.9288 31.1231 55.1061 31.1231C55.3475 31.1231 55.522 31.0429 55.6295 30.8826C55.737 30.7204 55.7908 30.4526 55.7908 30.0791V28.591H56.6537V31.754H55.9916ZM58.8733 31.1231C59.0242 31.1231 59.2052 31.0901 59.4165 31.0241V31.6663C59.2015 31.7625 58.9374 31.8106 58.6243 31.8106C58.2792 31.8106 58.0274 31.7238 57.869 31.5503C57.7124 31.3749 57.6341 31.1127 57.6341 30.7638V29.2389H57.2211V28.8739L57.6964 28.5854L57.9453 27.9177H58.497V28.591H59.3825V29.2389H58.497V30.7638C58.497 30.8864 58.531 30.9769 58.5989 31.0354C58.6687 31.0939 58.7601 31.1231 58.8733 31.1231Z" fill="#41AF4B"/>
<rect x="53.2871" y="112.57" width="56.2851" height="15.9674" rx="1.19756" fill="#2AA43C"/>
<path d="M74.9026 121.456C74.9026 121.787 74.783 122.053 74.5439 122.254C74.3048 122.454 73.9701 122.573 73.5397 122.613V123.252H73.1125V122.625C72.6052 122.615 72.1603 122.526 71.7777 122.357V121.534C71.9586 121.623 72.1759 121.702 72.4295 121.771C72.6852 121.84 72.9129 121.88 73.1125 121.893V120.926L72.9035 120.845C72.4919 120.683 72.1998 120.507 72.0272 120.318C71.8567 120.126 71.7715 119.89 71.7715 119.61C71.7715 119.308 71.8889 119.061 72.1239 118.868C72.3609 118.672 72.6904 118.554 73.1125 118.512V118.035H73.5397V118.5C74.0159 118.52 74.4462 118.616 74.8309 118.786L74.5377 119.516C74.2134 119.383 73.8807 119.302 73.5397 119.273V120.193C73.9452 120.349 74.2331 120.484 74.4036 120.598C74.5762 120.713 74.702 120.838 74.781 120.976C74.862 121.113 74.9026 121.273 74.9026 121.456ZM73.9639 121.503C73.9639 121.415 73.9285 121.342 73.8578 121.281C73.7872 121.221 73.6811 121.159 73.5397 121.094V121.871C73.8225 121.823 73.9639 121.7 73.9639 121.503ZM72.7102 119.61C72.7102 119.701 72.7414 119.777 72.8037 119.837C72.8682 119.896 72.9711 119.956 73.1125 120.018V119.285C72.8443 119.325 72.7102 119.433 72.7102 119.61ZM78.5888 122.881H75.4016V122.211L76.5461 121.054C76.885 120.706 77.1064 120.466 77.2104 120.333C77.3143 120.198 77.3892 120.073 77.4349 119.959C77.4807 119.845 77.5035 119.726 77.5035 119.604C77.5035 119.421 77.4526 119.284 77.3507 119.195C77.2509 119.106 77.1168 119.061 76.9484 119.061C76.7717 119.061 76.6002 119.101 76.4338 119.182C76.2675 119.264 76.0939 119.379 75.913 119.529L75.3891 118.908C75.6136 118.717 75.7997 118.582 75.9473 118.503C76.0949 118.424 76.2561 118.363 76.4307 118.322C76.6054 118.278 76.8008 118.256 77.017 118.256C77.3019 118.256 77.5534 118.308 77.7717 118.412C77.99 118.516 78.1595 118.662 78.2801 118.849C78.4007 119.036 78.4609 119.25 78.4609 119.491C78.4609 119.701 78.4235 119.899 78.3487 120.084C78.2759 120.267 78.1616 120.455 78.0056 120.648C77.8518 120.842 77.5794 121.117 77.1885 121.475L76.6022 122.027V122.07H78.5888V122.881ZM79.1595 122.435C79.1595 122.261 79.2063 122.129 79.2999 122.039C79.3934 121.95 79.5296 121.905 79.7084 121.905C79.881 121.905 80.014 121.951 80.1076 122.042C80.2032 122.134 80.251 122.265 80.251 122.435C80.251 122.599 80.2032 122.729 80.1076 122.825C80.012 122.919 79.8789 122.965 79.7084 122.965C79.5338 122.965 79.3986 122.92 79.303 122.828C79.2073 122.735 79.1595 122.604 79.1595 122.435ZM84.034 120.601C84.034 121.398 83.903 121.987 83.641 122.37C83.3811 122.752 82.9799 122.944 82.4372 122.944C81.9112 122.944 81.5141 122.746 81.2459 122.351C80.9798 121.956 80.8467 121.373 80.8467 120.601C80.8467 119.797 80.9766 119.204 81.2365 118.824C81.4964 118.441 81.8966 118.25 82.4372 118.25C82.9632 118.25 83.3603 118.45 83.6285 118.849C83.8988 119.248 84.034 119.832 84.034 120.601ZM81.8041 120.601C81.8041 121.161 81.8519 121.562 81.9476 121.805C82.0453 122.046 82.2085 122.167 82.4372 122.167C82.6618 122.167 82.8239 122.044 82.9237 121.799C83.0235 121.554 83.0734 121.155 83.0734 120.601C83.0734 120.042 83.0225 119.641 82.9206 119.398C82.8208 119.152 82.6597 119.03 82.4372 119.03C82.2106 119.03 82.0484 119.152 81.9507 119.398C81.853 119.641 81.8041 120.042 81.8041 120.601ZM87.6828 120.601C87.6828 121.398 87.5518 121.987 87.2898 122.37C87.0299 122.752 86.6287 122.944 86.086 122.944C85.56 122.944 85.1629 122.746 84.8947 122.351C84.6286 121.956 84.4955 121.373 84.4955 120.601C84.4955 119.797 84.6255 119.204 84.8853 118.824C85.1452 118.441 85.5455 118.25 86.086 118.25C86.612 118.25 87.0091 118.45 87.2773 118.849C87.5476 119.248 87.6828 119.832 87.6828 120.601ZM85.4529 120.601C85.4529 121.161 85.5008 121.562 85.5964 121.805C85.6941 122.046 85.8573 122.167 86.086 122.167C86.3106 122.167 86.4727 122.044 86.5725 121.799C86.6723 121.554 86.7222 121.155 86.7222 120.601C86.7222 120.042 86.6713 119.641 86.5694 119.398C86.4696 119.152 86.3085 119.03 86.086 119.03C85.8594 119.03 85.6972 119.152 85.5995 119.398C85.5018 119.641 85.4529 120.042 85.4529 120.601Z" fill="white"/>
<path d="M102.613 121.284H100.803V120.259H102.613V118.435H103.638V120.259H105.448V121.284H103.638V123.085H102.613V121.284Z" fill="white"/>
</svg>
