<svg width="158" height="147" viewBox="0 0 158 147" fill="none" xmlns="http://www.w3.org/2000/svg">
<path d="M9.64669 7.78463C9.64669 8.55982 9.41187 9.219 8.94224 9.7622C8.4726 10.3054 7.81341 10.6788 6.96467 10.8825V10.9335C7.96619 11.0579 8.72439 11.3635 9.2393 11.8501C9.7542 12.331 10.0116 12.9817 10.0116 13.8022C10.0116 14.9961 9.57879 15.9269 8.71308 16.5945C7.84736 17.2566 6.61103 17.5876 5.00409 17.5876C3.65742 17.5876 2.46353 17.3641 1.42241 16.9171V14.6849C1.90336 14.9282 2.43241 15.1262 3.00955 15.279C3.58669 15.4318 4.15818 15.5082 4.724 15.5082C5.58972 15.5082 6.2291 15.361 6.64215 15.0668C7.05521 14.7726 7.26173 14.3001 7.26173 13.6494C7.26173 13.0666 7.02409 12.6536 6.54879 12.4103C6.0735 12.167 5.31529 12.0453 4.27417 12.0453H3.33207V10.0338H4.29115C5.25305 10.0338 5.95468 9.90931 6.39602 9.66035C6.84302 9.40573 7.06652 8.97287 7.06652 8.36178C7.06652 7.4225 6.47806 6.95287 5.30115 6.95287C4.89375 6.95287 4.47787 7.02077 4.0535 7.15657C3.63479 7.29236 3.16798 7.52718 2.65308 7.86102L1.43938 6.05321C2.57103 5.23842 3.92053 4.83102 5.48787 4.83102C6.77229 4.83102 7.78512 5.0913 8.52636 5.61186C9.27325 6.13242 9.64669 6.85668 9.64669 7.78463ZM11.9553 16.2041C11.9553 15.7288 12.0826 15.3695 12.3372 15.1262C12.5918 14.8829 12.9624 14.7613 13.449 14.7613C13.9187 14.7613 14.2808 14.8858 14.5354 15.1347C14.7957 15.3837 14.9258 15.7401 14.9258 16.2041C14.9258 16.6511 14.7957 17.0048 14.5354 17.2651C14.2751 17.5197 13.913 17.647 13.449 17.647C12.9737 17.647 12.606 17.5225 12.3457 17.2735C12.0854 17.0189 11.9553 16.6624 11.9553 16.2041Z" fill="#41AF4B"/>
<path fill-rule="evenodd" clip-rule="evenodd" d="M156.784 74.2928C156.784 113.721 124.821 145.684 85.3933 145.684C45.9647 145.684 14.0022 113.721 14.0022 74.2928C14.0022 34.8651 45.9647 2.90173 85.3933 2.90173C124.821 2.90173 156.784 34.8651 156.784 74.2928Z" fill="#DFF4DF"/>
<mask id="mask0" mask-type="alpha" maskUnits="userSpaceOnUse" x="13" y="2" width="145" height="145">
<path fill-rule="evenodd" clip-rule="evenodd" d="M13.1762 2.07327H157.613V146.511H13.1762V2.07327Z" fill="white"/>
</mask>
<g mask="url(#mask0)">
<path fill-rule="evenodd" clip-rule="evenodd" d="M154.146 52.1505H152.391C154.709 59.1199 155.958 66.5611 155.958 74.2921C155.958 82.2134 154.643 89.8367 152.226 96.9469H153.972C156.339 89.8202 157.613 82.2051 157.613 74.2921C157.613 66.5694 156.397 59.1282 154.146 52.1505ZM145.811 110.704C145.124 111.838 144.411 112.955 143.659 114.039C142.492 115.744 141.258 117.392 139.951 118.981H142.078C143.343 117.383 144.536 115.736 145.662 114.039C146.39 112.955 147.086 111.838 147.748 110.704C148.616 109.222 149.436 107.716 150.19 106.168H148.327C147.548 107.716 146.705 109.23 145.811 110.704ZM141.25 28.5521C140.977 28.221 140.712 27.8982 140.431 27.5837C127.179 11.9811 107.421 2.07327 85.3945 2.07327C63.3696 2.07327 43.6118 11.9811 30.3592 27.5837C30.0777 27.8982 29.8137 28.221 29.5406 28.5521C19.3173 41.0176 13.1756 56.943 13.1756 74.2921C13.1756 114.114 45.5735 146.511 85.3945 146.511C106.792 146.511 126.045 137.158 139.271 122.317H137.037C124.149 136.173 105.766 144.855 85.3945 144.855C46.484 144.855 14.8311 113.203 14.8311 74.2921C14.8311 56.8594 21.188 40.8769 31.7175 28.5521C31.9906 28.221 32.2638 27.8982 32.5535 27.5837C45.4825 12.957 64.3794 3.72871 85.3945 3.72871C106.402 3.72871 125.299 12.957 138.236 27.5837C138.527 27.8982 138.8 28.221 139.073 28.5521C144.726 35.1739 149.18 42.8469 152.085 51.2392H153.848C151.025 42.8966 146.72 35.2236 141.25 28.5521ZM151.903 97.8573C151.299 99.5459 150.637 101.21 149.916 102.831H151.737C152.44 101.201 153.078 99.5459 153.666 97.8573H151.903Z" fill="#95D898"/>
</g>
<path fill-rule="evenodd" clip-rule="evenodd" d="M150.156 102.393C150.156 102.393 148.807 105.812 145.778 110.704C145.124 111.755 144.395 112.872 143.592 114.039C134.885 126.621 116.807 144.871 85.2793 144.871C37.1803 144.871 20.6258 102.07 20.6258 102.07L20.5671 102.236L20.6258 22.9229C20.6258 20.7791 22.364 19.0417 24.5079 19.0417H129.306C129.306 19.0417 134.835 23.0968 140.977 30.8856C147.118 38.6828 150.297 46.5635 150.297 46.5635C150.297 46.5635 155.586 56.3141 155.851 73.621C156.107 90.9286 150.156 102.393 150.156 102.393Z" fill="white"/>
<path fill-rule="evenodd" clip-rule="evenodd" d="M152.391 52.1505C152.3 51.8442 152.193 51.538 152.085 51.2392H33.1329V97.8573H151.903C152.019 97.5594 152.126 97.2531 152.226 96.9468H34.0508V52.1505H152.391Z" fill="#95D898"/>
<path fill-rule="evenodd" clip-rule="evenodd" d="M153.972 96.9469C153.873 97.2532 153.774 97.5503 153.666 97.8574H151.903C152.019 97.5594 152.126 97.2532 152.226 96.9469H153.972Z" fill="#95D898"/>
<path fill-rule="evenodd" clip-rule="evenodd" d="M154.146 52.1505H152.391C152.3 51.8442 152.193 51.538 152.085 51.2392H153.848C153.947 51.5463 154.047 51.8442 154.146 52.1505Z" fill="#95D898"/>
<path fill-rule="evenodd" clip-rule="evenodd" d="M130.857 20.2864H24.5075C23.0532 20.2864 21.8704 21.47 21.8704 22.9235L21.8695 105.054C21.8695 105.054 21.0071 103.328 20.5692 102.233C20.061 100.96 19.3872 99.2735 19.3872 99.2735V22.9235C19.3872 20.1002 21.6833 17.8032 24.5075 17.8032H127.686C127.686 17.8032 128.981 18.7982 129.473 19.1739C130.154 19.6962 130.857 20.2864 130.857 20.2864Z" fill="#41AF4B"/>
<path fill-rule="evenodd" clip-rule="evenodd" d="M26.7859 24.5075C26.7859 25.1481 26.2653 25.6687 25.6238 25.6687C24.9815 25.6687 24.4617 25.1481 24.4617 24.5075C24.4617 23.866 24.9815 23.3453 25.6238 23.3453C26.2653 23.3453 26.7859 23.866 26.7859 24.5075Z" fill="#95D898"/>
<path fill-rule="evenodd" clip-rule="evenodd" d="M29.7985 24.5075C29.7985 25.1481 29.2787 25.6687 28.6372 25.6687C27.9949 25.6687 27.4742 25.1481 27.4742 24.5075C27.4742 23.866 27.9949 23.3453 28.6372 23.3453C29.2787 23.3453 29.7985 23.866 29.7985 24.5075Z" fill="#95D898"/>
<path fill-rule="evenodd" clip-rule="evenodd" d="M32.7294 24.5075C32.7294 25.1481 32.2088 25.6687 31.5673 25.6687C30.925 25.6687 30.4052 25.1481 30.4052 24.5075C30.4052 23.866 30.925 23.3453 31.5673 23.3453C32.2088 23.3453 32.7294 23.866 32.7294 24.5075Z" fill="#95D898"/>
<path fill-rule="evenodd" clip-rule="evenodd" d="M34.1135 48.2236H34.9909V44.0875H34.1135V48.2236Z" fill="#41AF4B"/>
<path fill-rule="evenodd" clip-rule="evenodd" d="M38.7555 48.2236H37.8922V46.377C37.8922 46.1477 37.8517 45.9772 37.7714 45.8621C37.6903 45.7487 37.5611 45.6916 37.3832 45.6916C37.1423 45.6916 36.9676 45.7719 36.86 45.9333C36.7524 46.0947 36.6995 46.3621 36.6995 46.7354V48.2236H35.8362V45.0609H36.4958L36.6109 45.4656H36.6589C36.7558 45.3125 36.8874 45.1975 37.0562 45.1188C37.2251 45.0402 37.4171 45.0013 37.6323 45.0013C38.0006 45.0013 38.2796 45.1014 38.4691 45.3001C38.6603 45.4988 38.7555 45.786 38.7555 46.1618V48.2236Z" fill="#41AF4B"/>
<path fill-rule="evenodd" clip-rule="evenodd" d="M40.9994 45.6919C40.7858 45.6919 40.6311 45.7573 40.5326 45.8881C40.4341 46.0197 40.3836 46.2358 40.3803 46.537V46.6314C40.3803 46.9708 40.4308 47.2141 40.5317 47.3615C40.6327 47.508 40.7916 47.5816 41.011 47.5816C41.1881 47.5816 41.3288 47.5005 41.4331 47.3366C41.5382 47.1736 41.5912 46.9368 41.5912 46.6256C41.5912 46.3144 41.5374 46.081 41.4323 45.9245C41.3272 45.7697 41.1823 45.6919 40.9994 45.6919ZM41.2767 45.0016C41.65 45.0016 41.943 45.1473 42.1541 45.4378C42.3643 45.73 42.4703 46.129 42.4703 46.6372C42.4703 47.1587 42.3618 47.5643 42.1441 47.8498C41.9256 48.137 41.6293 48.2802 41.2543 48.2802C40.8819 48.2802 40.5913 48.1453 40.3803 47.8763H40.3207L40.1766 48.2239H39.517V43.8213H40.3803V44.846C40.3803 44.976 40.3687 45.1845 40.3463 45.4709H40.3803C40.5814 45.1572 40.8802 45.0016 41.2767 45.0016Z" fill="#41AF4B"/>
<path fill-rule="evenodd" clip-rule="evenodd" d="M43.7429 46.6369C43.7429 46.9498 43.7942 47.1865 43.8977 47.3462C44.0003 47.5076 44.1683 47.5871 44.3993 47.5871C44.6294 47.5871 44.7949 47.5076 44.8967 47.3479C44.9977 47.189 45.0474 46.9514 45.0474 46.6369C45.0474 46.3232 44.9969 46.0889 44.8951 45.9317C44.7933 45.776 44.6252 45.6974 44.3943 45.6974C44.1642 45.6974 43.9987 45.7752 43.8968 45.93C43.7942 46.0864 43.7429 46.3215 43.7429 46.6369ZM45.9306 46.6369C45.9306 47.1517 45.7948 47.554 45.5225 47.8445C45.251 48.1359 44.8727 48.2799 44.3877 48.2799C44.0847 48.2799 43.8174 48.2137 43.5848 48.0804C43.353 47.948 43.1742 47.7576 43.0501 47.5085C42.9259 47.2593 42.8638 46.968 42.8638 46.6369C42.8638 46.1195 42.9988 45.7181 43.2678 45.4317C43.5376 45.1445 43.9167 45.0013 44.4059 45.0013C44.7088 45.0013 44.9762 45.0675 45.2088 45.1999C45.4405 45.3316 45.6193 45.5211 45.7435 45.7678C45.8677 46.0152 45.9306 46.305 45.9306 46.6369Z" fill="#41AF4B"/>
<path fill-rule="evenodd" clip-rule="evenodd" d="M47.1637 46.6086L46.1456 45.0608H47.1231L47.7373 46.0681L48.3564 45.0608H49.3365L48.3068 46.6086L49.3845 48.2235H48.402L47.7373 47.1409L47.0702 48.2235H46.091L47.1637 46.6086Z" fill="#41AF4B"/>
<path fill-rule="evenodd" clip-rule="evenodd" d="M63.335 106.17H42.8058C42.3919 106.17 42.0567 105.835 42.0567 105.421V103.585C42.0567 103.171 42.3919 102.836 42.8058 102.836H63.335C63.7488 102.836 64.0841 103.171 64.0841 103.585V105.421C64.0841 105.835 63.7488 106.17 63.335 106.17Z" fill="#DFF4DF"/>
<path fill-rule="evenodd" clip-rule="evenodd" d="M151.737 102.832C151.249 103.957 150.736 105.075 150.189 106.167H148.327C148.89 105.075 149.42 103.957 149.916 102.832H151.737Z" fill="#95D898"/>
<path fill-rule="evenodd" clip-rule="evenodd" d="M147.747 110.704C147.085 111.838 146.39 112.955 145.662 114.039H143.592C144.395 112.872 145.124 111.755 145.777 110.704H147.747Z" fill="#95D898"/>
<path fill-rule="evenodd" clip-rule="evenodd" d="M145.778 110.704C145.124 111.755 144.395 112.872 143.592 114.039H67.3094C66.3906 114.039 65.6374 113.295 65.6374 112.376C65.6374 111.921 65.8278 111.498 66.1257 111.192C66.432 110.893 66.8459 110.704 67.3094 110.704H145.778Z" fill="#DFF4DF"/>
<path fill-rule="evenodd" clip-rule="evenodd" d="M149.916 102.832C149.419 103.957 148.89 105.075 148.327 106.167H67.3094C66.3906 106.167 65.6374 105.423 65.6374 104.504C65.6374 104.04 65.8278 103.626 66.1257 103.321C66.432 103.022 66.8459 102.832 67.3094 102.832H149.916Z" fill="#DFF4DF"/>
<path fill-rule="evenodd" clip-rule="evenodd" d="M63.335 114.041H42.8058C42.3919 114.041 42.0567 113.706 42.0567 113.292V111.456C42.0567 111.042 42.3919 110.707 42.8058 110.707H63.335C63.7488 110.707 64.0841 111.042 64.0841 111.456V113.292C64.0841 113.706 63.7488 114.041 63.335 114.041Z" fill="#DFF4DF"/>
<path fill-rule="evenodd" clip-rule="evenodd" d="M41.2294 83.5111H65.0869V65.2292H41.2294V83.5111Z" fill="#DFF4DF"/>
<path fill-rule="evenodd" clip-rule="evenodd" d="M142.078 118.981C141.184 120.123 140.248 121.232 139.271 122.316H137.037C138.047 121.232 139.015 120.123 139.951 118.981H142.078Z" fill="#95D898"/>
<path fill-rule="evenodd" clip-rule="evenodd" d="M139.95 118.981C139.015 120.123 138.047 121.232 137.037 122.316H67.3093C66.3905 122.316 65.6373 121.572 65.6373 120.653C65.6373 120.198 65.8277 119.776 66.1257 119.469C66.4319 119.171 66.8458 118.981 67.3093 118.981H139.95Z" fill="#DFF4DF"/>
<path fill-rule="evenodd" clip-rule="evenodd" d="M64.495 81.5427V70.9371C63.3155 71.9047 61.4532 73.4004 57.7334 76.3537C56.6474 77.2228 54.79 79.0752 52.9069 79.0595C51.0139 79.0703 49.1408 77.2029 48.0805 76.3537C44.3607 73.4004 42.4983 71.9047 41.3188 70.9371V81.5427C41.3188 81.9979 41.6913 82.3704 42.1465 82.3704H63.6673C64.1226 82.3704 64.495 81.9979 64.495 81.5427ZM41.3188 66.6437V68.7858C42.452 69.7427 44.071 71.0621 49.1093 75.0608C49.9793 75.7544 51.7067 77.4248 52.9069 77.4041C54.1071 77.4248 55.8296 75.7544 56.7045 75.0608C61.7429 71.0621 63.3619 69.7427 64.495 68.7858V66.6437C64.495 66.1884 64.1226 65.816 63.6673 65.816H42.1465C41.6913 65.816 41.3188 66.1884 41.3188 66.6437ZM66.1505 66.6437V81.5427C66.1505 82.9134 65.038 84.0259 63.6673 84.0259H42.1465C40.7758 84.0259 39.6634 82.9134 39.6634 81.5427V66.6437C39.6634 65.273 40.7758 64.1605 42.1465 64.1605H63.6673C65.038 64.1605 66.1505 65.273 66.1505 66.6437Z" fill="#2AA43C"/>
<path fill-rule="evenodd" clip-rule="evenodd" d="M63.335 122.319H42.8058C42.3919 122.319 42.0567 121.983 42.0567 121.569V119.734C42.0567 119.32 42.3919 118.984 42.8058 118.984H63.335C63.7488 118.984 64.0841 119.32 64.0841 119.734V121.569C64.0841 121.983 63.7488 122.319 63.335 122.319Z" fill="#DFF4DF"/>
<path fill-rule="evenodd" clip-rule="evenodd" d="M141.25 28.5523H21.8725V27.5838H140.431C140.712 27.8984 140.977 28.2212 141.25 28.5523Z" fill="#95D898"/>
<path fill-rule="evenodd" clip-rule="evenodd" d="M21.8706 35.9617H144.772V34.9966H21.8706V35.9617Z" fill="#95D898"/>
<path d="M73.5839 67.8947L74.3235 66.4349H75.1335L73.9574 68.6004V69.9802H73.2105V68.6246L72.0344 66.4349H72.8492L73.5839 67.8947ZM76.0925 68.6198C76.0925 68.8881 76.1362 69.091 76.2235 69.2285C76.3124 69.3659 76.4563 69.4346 76.6551 69.4346C76.8524 69.4346 76.9938 69.3667 77.0795 69.2309C77.1668 69.0935 77.2104 68.8898 77.2104 68.6198C77.2104 68.3514 77.1668 68.1502 77.0795 68.016C76.9922 67.8818 76.8491 67.8147 76.6503 67.8147C76.453 67.8147 76.3108 67.8818 76.2235 68.016C76.1362 68.1485 76.0925 68.3498 76.0925 68.6198ZM77.967 68.6198C77.967 69.0611 77.8506 69.4063 77.6178 69.6552C77.385 69.9042 77.0609 70.0287 76.6454 70.0287C76.3851 70.0287 76.1556 69.9721 75.9567 69.8589C75.7579 69.7442 75.6051 69.5801 75.4984 69.3667C75.3917 69.1533 75.3384 68.9043 75.3384 68.6198C75.3384 68.1768 75.454 67.8325 75.6851 67.5867C75.9163 67.341 76.2413 67.2182 76.66 67.2182C76.9203 67.2182 77.1498 67.2747 77.3487 67.3879C77.5475 67.5011 77.7003 67.6635 77.807 67.8753C77.9137 68.0871 77.967 68.3353 77.967 68.6198ZM80.4805 69.9802L80.3811 69.6334H80.3423C80.2631 69.7595 80.1507 69.8573 80.0052 69.9268C79.8597 69.9947 79.694 70.0287 79.5081 70.0287C79.1896 70.0287 78.9495 69.9438 78.7879 69.7741C78.6262 69.6027 78.5454 69.357 78.5454 69.0369V67.2691H79.285V68.8526C79.285 69.0482 79.3197 69.1953 79.3893 69.2939C79.4588 69.3909 79.5695 69.4394 79.7215 69.4394C79.9284 69.4394 80.0779 69.3707 80.1701 69.2333C80.2622 69.0943 80.3083 68.8647 80.3083 68.5446V67.2691H81.0479V69.9802H80.4805ZM82.4023 66.4349L82.4362 66.4882C82.3554 66.8067 82.2131 67.1939 82.0094 67.6498H81.4783C81.5899 67.1713 81.6707 66.7663 81.7208 66.4349H82.4023ZM84.3774 67.2182C84.4776 67.2182 84.5609 67.2254 84.6271 67.24L84.5714 67.9335C84.5116 67.9174 84.4388 67.9093 84.3531 67.9093C84.1171 67.9093 83.9328 67.9699 83.8002 68.0911C83.6693 68.2124 83.6038 68.3821 83.6038 68.6004V69.9802H82.8642V67.2691H83.4244L83.5335 67.725H83.5699C83.6539 67.573 83.7671 67.451 83.9094 67.3588C84.0532 67.265 84.2092 67.2182 84.3774 67.2182ZM86.224 67.7444C86.0671 67.7444 85.9443 67.7945 85.8554 67.8947C85.7665 67.9933 85.7155 68.134 85.7026 68.3167H86.7405C86.7372 68.134 86.6896 67.9933 86.5974 67.8947C86.5053 67.7945 86.3808 67.7444 86.224 67.7444ZM86.3282 70.0287C85.8917 70.0287 85.5506 69.9083 85.3049 69.6674C85.0592 69.4265 84.9363 69.0854 84.9363 68.644C84.9363 68.1898 85.0495 67.8389 85.2758 67.5916C85.5037 67.3426 85.8182 67.2182 86.2191 67.2182C86.6023 67.2182 86.9005 67.3273 87.1139 67.5455C87.3273 67.7638 87.434 68.0653 87.434 68.45V68.8089H85.6856C85.6937 69.0191 85.7559 69.1832 85.8723 69.3012C85.9887 69.4192 86.152 69.4782 86.3622 69.4782C86.5255 69.4782 86.6799 69.4613 86.8254 69.4273C86.9709 69.3934 87.1228 69.3392 87.2813 69.2648V69.8371C87.1519 69.9018 87.0137 69.9495 86.8666 69.9802C86.7195 70.0125 86.54 70.0287 86.3282 70.0287ZM90.4312 69.4394C90.5606 69.4394 90.7158 69.4111 90.8968 69.3546V69.905C90.7125 69.9875 90.4862 70.0287 90.2178 70.0287C89.922 70.0287 89.7062 69.9543 89.5704 69.8056C89.4362 69.6552 89.3691 69.4305 89.3691 69.1315V67.8244H89.0151V67.5116L89.4225 67.2642L89.6359 66.6919H90.1087V67.2691H90.8677V67.8244H90.1087V69.1315C90.1087 69.2365 90.1378 69.3141 90.196 69.3643C90.2558 69.4144 90.3342 69.4394 90.4312 69.4394ZM93.1508 69.9802L93.0077 69.6116H92.9883C92.8639 69.7684 92.7353 69.8775 92.6028 69.939C92.4718 69.9988 92.3005 70.0287 92.0887 70.0287C91.8284 70.0287 91.6231 69.9543 91.4727 69.8056C91.324 69.6569 91.2496 69.4451 91.2496 69.1703C91.2496 68.8825 91.3499 68.6707 91.5503 68.5349C91.7524 68.3975 92.0564 68.3215 92.4621 68.307L92.9326 68.2924V68.1736C92.9326 67.8988 92.7919 67.7613 92.5106 67.7613C92.294 67.7613 92.0394 67.8268 91.7468 67.9578L91.5018 67.4582C91.8139 67.2949 92.1598 67.2133 92.5397 67.2133C92.9035 67.2133 93.1823 67.2925 93.3763 67.451C93.5703 67.6094 93.6673 67.8503 93.6673 68.1736V69.9802H93.1508ZM92.9326 68.7241L92.6464 68.7338C92.4314 68.7402 92.2714 68.779 92.1663 68.8502C92.0612 68.9213 92.0087 69.0296 92.0087 69.1751C92.0087 69.3837 92.1283 69.4879 92.3676 69.4879C92.5389 69.4879 92.6755 69.4386 92.7774 69.34C92.8808 69.2414 92.9326 69.1104 92.9326 68.9472V68.7241ZM95.1235 68.5058L95.446 68.0936L96.205 67.2691H97.0392L95.9625 68.4452L97.1047 69.9802H96.2511L95.4703 68.8817L95.1526 69.1363V69.9802H94.413V66.2069H95.1526V67.8899L95.1138 68.5058H95.1235ZM97.443 66.5683C97.443 66.3274 97.5772 66.2069 97.8455 66.2069C98.1139 66.2069 98.2481 66.3274 98.2481 66.5683C98.2481 66.683 98.2141 66.7728 98.1462 66.8374C98.0799 66.9005 97.9797 66.932 97.8455 66.932C97.5772 66.932 97.443 66.8108 97.443 66.5683ZM98.2141 69.9802H97.4745V67.2691H98.2141V69.9802ZM101.477 69.9802H100.737V68.3967C100.737 68.2011 100.703 68.0548 100.633 67.9578C100.563 67.8592 100.453 67.8098 100.301 67.8098C100.094 67.8098 99.9443 67.8794 99.8522 68.0184C99.76 68.1558 99.7139 68.3846 99.7139 68.7047V69.9802H98.9743V67.2691H99.5393L99.6388 67.6158H99.68C99.7624 67.4849 99.8756 67.3863 100.019 67.32C100.165 67.2521 100.33 67.2182 100.514 67.2182C100.829 67.2182 101.069 67.3038 101.232 67.4752C101.395 67.6449 101.477 67.8907 101.477 68.2124V69.9802ZM104.58 67.2691V67.6449L104.155 67.7541C104.233 67.8753 104.272 68.0111 104.272 68.1615C104.272 68.4525 104.17 68.6796 103.966 68.8429C103.764 69.0045 103.483 69.0854 103.122 69.0854L102.989 69.0781L102.88 69.066C102.804 69.1242 102.766 69.1888 102.766 69.26C102.766 69.3667 102.902 69.42 103.173 69.42H103.634C103.931 69.42 104.158 69.4839 104.313 69.6116C104.47 69.7393 104.548 69.9268 104.548 70.1742C104.548 70.4911 104.416 70.7368 104.15 70.9114C103.887 71.086 103.508 71.1733 103.013 71.1733C102.635 71.1733 102.345 71.107 102.145 70.9744C101.946 70.8435 101.847 70.6592 101.847 70.4215C101.847 70.2583 101.898 70.1217 101.999 70.0117C102.101 69.9018 102.251 69.8234 102.448 69.7765C102.372 69.7442 102.306 69.6916 102.249 69.6189C102.193 69.5445 102.164 69.4661 102.164 69.3837C102.164 69.2802 102.194 69.1945 102.254 69.1266C102.314 69.0571 102.4 68.9892 102.514 68.9229C102.371 68.8615 102.258 68.7629 102.174 68.6271C102.092 68.4913 102.05 68.3312 102.05 68.1469C102.05 67.8511 102.147 67.6223 102.339 67.4607C102.531 67.299 102.806 67.2182 103.163 67.2182C103.239 67.2182 103.329 67.2254 103.433 67.24C103.538 67.2529 103.605 67.2626 103.634 67.2691H104.58ZM102.487 70.3633C102.487 70.4652 102.535 70.5452 102.632 70.6034C102.731 70.6616 102.868 70.6907 103.045 70.6907C103.31 70.6907 103.517 70.6543 103.668 70.5816C103.818 70.5088 103.893 70.4094 103.893 70.2833C103.893 70.1815 103.849 70.1111 103.76 70.0723C103.671 70.0335 103.534 70.0141 103.348 70.0141H102.965C102.829 70.0141 102.715 70.0457 102.623 70.1087C102.532 70.1734 102.487 70.2583 102.487 70.3633ZM102.756 68.1566C102.756 68.3037 102.789 68.4201 102.855 68.5058C102.923 68.5915 103.026 68.6343 103.163 68.6343C103.302 68.6343 103.404 68.5915 103.469 68.5058C103.534 68.4201 103.566 68.3037 103.566 68.1566C103.566 67.8301 103.432 67.6668 103.163 67.6668C102.892 67.6668 102.756 67.8301 102.756 68.1566ZM107.383 70.0287C106.539 70.0287 106.117 69.5655 106.117 68.6392C106.117 68.1784 106.232 67.8268 106.461 67.5843C106.691 67.3402 107.02 67.2182 107.448 67.2182C107.762 67.2182 108.043 67.2796 108.292 67.4025L108.074 67.9747C107.958 67.9279 107.849 67.8899 107.749 67.8608C107.649 67.8301 107.549 67.8147 107.448 67.8147C107.064 67.8147 106.871 68.0879 106.871 68.6343C106.871 69.1646 107.064 69.4297 107.448 69.4297C107.591 69.4297 107.722 69.4111 107.844 69.374C107.965 69.3352 108.086 69.2753 108.207 69.1945V69.8274C108.088 69.9034 107.966 69.9559 107.844 69.985C107.722 70.0141 107.569 70.0287 107.383 70.0287ZM109.559 69.9802H108.82V66.2069H109.559V69.9802ZM110.288 66.5683C110.288 66.3274 110.422 66.2069 110.69 66.2069C110.959 66.2069 111.093 66.3274 111.093 66.5683C111.093 66.683 111.059 66.7728 110.991 66.8374C110.925 66.9005 110.825 66.932 110.69 66.932C110.422 66.932 110.288 66.8108 110.288 66.5683ZM111.059 69.9802H110.319V67.2691H111.059V69.9802ZM114.247 69.9802H113.507V68.3967C113.507 68.2011 113.474 68.0548 113.408 67.9578C113.343 67.8592 113.24 67.8098 113.1 67.8098C112.91 67.8098 112.773 67.8794 112.687 68.0184C112.602 68.1574 112.559 68.3862 112.559 68.7047V69.9802H111.819V67.2691H112.384L112.484 67.6158H112.525C112.598 67.4914 112.703 67.3944 112.84 67.3249C112.978 67.2537 113.135 67.2182 113.313 67.2182C113.719 67.2182 113.994 67.3507 114.138 67.6158H114.203C114.276 67.4898 114.382 67.3919 114.523 67.3224C114.665 67.2529 114.825 67.2182 115.003 67.2182C115.31 67.2182 115.542 67.2974 115.699 67.4558C115.858 67.6126 115.937 67.8648 115.937 68.2124V69.9802H115.195V68.3967C115.195 68.2011 115.162 68.0548 115.095 67.9578C115.031 67.8592 114.928 67.8098 114.787 67.8098C114.606 67.8098 114.471 67.8745 114.38 68.0038C114.291 68.1332 114.247 68.3385 114.247 68.6198V69.9802ZM118.402 69.9802L118.259 69.6116H118.239C118.115 69.7684 117.986 69.8775 117.854 69.939C117.723 69.9988 117.551 70.0287 117.34 70.0287C117.079 70.0287 116.874 69.9543 116.724 69.8056C116.575 69.6569 116.501 69.4451 116.501 69.1703C116.501 68.8825 116.601 68.6707 116.801 68.5349C117.003 68.3975 117.307 68.3215 117.713 68.307L118.184 68.2924V68.1736C118.184 67.8988 118.043 67.7613 117.762 67.7613C117.545 67.7613 117.29 67.8268 116.998 67.9578L116.753 67.4582C117.065 67.2949 117.411 67.2133 117.791 67.2133C118.154 67.2133 118.433 67.2925 118.627 67.451C118.821 67.6094 118.918 67.8503 118.918 68.1736V69.9802H118.402ZM118.184 68.7241L117.897 68.7338C117.682 68.7402 117.522 68.779 117.417 68.8502C117.312 68.9213 117.26 69.0296 117.26 69.1751C117.26 69.3837 117.379 69.4879 117.619 69.4879C117.79 69.4879 117.927 69.4386 118.028 69.34C118.132 69.2414 118.184 69.1104 118.184 68.9472V68.7241ZM120.806 69.4394C120.935 69.4394 121.091 69.4111 121.272 69.3546V69.905C121.087 69.9875 120.861 70.0287 120.593 70.0287C120.297 70.0287 120.081 69.9543 119.945 69.8056C119.811 69.6552 119.744 69.4305 119.744 69.1315V67.8244H119.39V67.5116L119.797 67.2642L120.011 66.6919H120.484V67.2691H121.243V67.8244H120.484V69.1315C120.484 69.2365 120.513 69.3141 120.571 69.3643C120.631 69.4144 120.709 69.4394 120.806 69.4394ZM122.927 67.7444C122.77 67.7444 122.647 67.7945 122.558 67.8947C122.469 67.9933 122.418 68.134 122.405 68.3167H123.443C123.44 68.134 123.392 67.9933 123.3 67.8947C123.208 67.7945 123.084 67.7444 122.927 67.7444ZM123.031 70.0287C122.595 70.0287 122.253 69.9083 122.008 69.6674C121.762 69.4265 121.639 69.0854 121.639 68.644C121.639 68.1898 121.752 67.8389 121.979 67.5916C122.207 67.3426 122.521 67.2182 122.922 67.2182C123.305 67.2182 123.603 67.3273 123.817 67.5455C124.03 67.7638 124.137 68.0653 124.137 68.45V68.8089H122.388C122.396 69.0191 122.459 69.1832 122.575 69.3012C122.692 69.4192 122.855 69.4782 123.065 69.4782C123.228 69.4782 123.383 69.4613 123.528 69.4273C123.674 69.3934 123.826 69.3392 123.984 69.2648V69.8371C123.855 69.9018 123.716 69.9495 123.569 69.9802C123.422 70.0125 123.243 70.0287 123.031 70.0287ZM127.714 69.9802L127.571 69.6116H127.551C127.427 69.7684 127.298 69.8775 127.166 69.939C127.035 69.9988 126.863 70.0287 126.651 70.0287C126.391 70.0287 126.186 69.9543 126.036 69.8056C125.887 69.6569 125.812 69.4451 125.812 69.1703C125.812 68.8825 125.913 68.6707 126.113 68.5349C126.315 68.3975 126.619 68.3215 127.025 68.307L127.495 68.2924V68.1736C127.495 67.8988 127.355 67.7613 127.073 67.7613C126.857 67.7613 126.602 67.8268 126.31 67.9578L126.065 67.4582C126.377 67.2949 126.723 67.2133 127.102 67.2133C127.466 67.2133 127.745 67.2925 127.939 67.451C128.133 67.6094 128.23 67.8503 128.23 68.1736V69.9802H127.714ZM127.495 68.7241L127.209 68.7338C126.994 68.7402 126.834 68.779 126.729 68.8502C126.624 68.9213 126.571 69.0296 126.571 69.1751C126.571 69.3837 126.691 69.4879 126.93 69.4879C127.102 69.4879 127.238 69.4386 127.34 69.34C127.444 69.2414 127.495 69.1104 127.495 68.9472V68.7241ZM130.077 70.0287C129.233 70.0287 128.811 69.5655 128.811 68.6392C128.811 68.1784 128.926 67.8268 129.155 67.5843C129.385 67.3402 129.714 67.2182 130.142 67.2182C130.456 67.2182 130.737 67.2796 130.986 67.4025L130.768 67.9747C130.651 67.9279 130.543 67.8899 130.443 67.8608C130.343 67.8301 130.242 67.8147 130.142 67.8147C129.757 67.8147 129.565 68.0879 129.565 68.6343C129.565 69.1646 129.757 69.4297 130.142 69.4297C130.284 69.4297 130.416 69.4111 130.537 69.374C130.659 69.3352 130.78 69.2753 130.901 69.1945V69.8274C130.782 69.9034 130.66 69.9559 130.537 69.985C130.416 70.0141 130.263 70.0287 130.077 70.0287ZM132.656 69.4394C132.785 69.4394 132.94 69.4111 133.121 69.3546V69.905C132.937 69.9875 132.711 70.0287 132.442 70.0287C132.146 70.0287 131.931 69.9543 131.795 69.8056C131.661 69.6552 131.593 69.4305 131.593 69.1315V67.8244H131.239V67.5116L131.647 67.2642L131.86 66.6919H132.333V67.2691H133.092V67.8244H132.333V69.1315C132.333 69.2365 132.362 69.3141 132.42 69.3643C132.48 69.4144 132.559 69.4394 132.656 69.4394ZM133.622 66.5683C133.622 66.3274 133.756 66.2069 134.025 66.2069C134.293 66.2069 134.427 66.3274 134.427 66.5683C134.427 66.683 134.393 66.7728 134.325 66.8374C134.259 66.9005 134.159 66.932 134.025 66.932C133.756 66.932 133.622 66.8108 133.622 66.5683ZM134.393 69.9802H133.653V67.2691H134.393V69.9802ZM135.743 68.6198C135.743 68.8881 135.786 69.091 135.874 69.2285C135.962 69.3659 136.106 69.4346 136.305 69.4346C136.502 69.4346 136.644 69.3667 136.73 69.2309C136.817 69.0935 136.86 68.8898 136.86 68.6198C136.86 68.3514 136.817 68.1502 136.73 68.016C136.642 67.8818 136.499 67.8147 136.3 67.8147C136.103 67.8147 135.961 67.8818 135.874 68.016C135.786 68.1485 135.743 68.3498 135.743 68.6198ZM137.617 68.6198C137.617 69.0611 137.501 69.4063 137.268 69.6552C137.035 69.9042 136.711 70.0287 136.295 70.0287C136.035 70.0287 135.806 69.9721 135.607 69.8589C135.408 69.7442 135.255 69.5801 135.148 69.3667C135.042 69.1533 134.988 68.9043 134.988 68.6198C134.988 68.1768 135.104 67.8325 135.335 67.5867C135.566 67.341 135.891 67.2182 136.31 67.2182C136.57 67.2182 136.8 67.2747 136.999 67.3879C137.198 67.5011 137.35 67.6635 137.457 67.8753C137.564 68.0871 137.617 68.3353 137.617 68.6198ZM140.713 69.9802H139.973V68.3967C139.973 68.2011 139.938 68.0548 139.869 67.9578C139.799 67.8592 139.688 67.8098 139.536 67.8098C139.329 67.8098 139.18 67.8794 139.088 68.0184C138.996 68.1558 138.95 68.3846 138.95 68.7047V69.9802H138.21V67.2691H138.775L138.874 67.6158H138.916C138.998 67.4849 139.111 67.3863 139.255 67.32C139.401 67.2521 139.566 67.2182 139.75 67.2182C140.065 67.2182 140.304 67.3038 140.468 67.4752C140.631 67.6449 140.713 67.8907 140.713 68.2124V69.9802ZM142.077 68.8041H141.485L141.361 66.4349H142.2L142.077 68.8041ZM141.351 69.6334C141.351 69.4976 141.388 69.395 141.461 69.3255C141.533 69.2559 141.639 69.2212 141.778 69.2212C141.912 69.2212 142.016 69.2567 142.089 69.3279C142.163 69.399 142.2 69.5009 142.2 69.6334C142.2 69.7611 142.163 69.8622 142.089 69.9365C142.014 70.0093 141.911 70.0457 141.778 70.0457C141.642 70.0457 141.537 70.0101 141.463 69.939C141.389 69.8662 141.351 69.7644 141.351 69.6334Z" fill="#41AF4B"/>
<path d="M73.3499 77.4297H73.0064V74.7804H72.0707V74.4753H74.2855V74.7804H73.3499V77.4297ZM76.179 77.4297V75.997C76.179 75.8164 76.1379 75.6817 76.0558 75.5928C75.9736 75.5039 75.8449 75.4594 75.6698 75.4594C75.4367 75.4594 75.2663 75.5227 75.1585 75.6494C75.0521 75.776 74.9989 75.9835 74.9989 76.2718V77.4297H74.6634V74.2853H74.9989V75.2371C74.9989 75.3516 74.9935 75.4466 74.9827 75.5221H75.0029C75.0689 75.4156 75.1626 75.3321 75.2838 75.2715C75.4064 75.2095 75.5458 75.1785 75.7021 75.1785C75.9729 75.1785 76.1757 75.2432 76.3104 75.3725C76.4464 75.5005 76.5145 75.7046 76.5145 75.9848V77.4297H76.179ZM78.5494 77.4297L78.4827 77.1145H78.4666C78.3561 77.2532 78.2456 77.3475 78.1351 77.3974C78.026 77.4459 77.8893 77.4701 77.7249 77.4701C77.5053 77.4701 77.3329 77.4135 77.2076 77.3004C77.0836 77.1872 77.0217 77.0262 77.0217 76.8174C77.0217 76.3701 77.3794 76.1357 78.0947 76.1142L78.4706 76.102V75.9646C78.4706 75.7908 78.4329 75.6628 78.3574 75.5807C78.2833 75.4971 78.1641 75.4554 77.9997 75.4554C77.8152 75.4554 77.6064 75.512 77.3733 75.6251L77.2702 75.3685C77.3794 75.3092 77.4986 75.2627 77.6279 75.229C77.7586 75.1954 77.8893 75.1785 78.02 75.1785C78.284 75.1785 78.4794 75.2371 78.606 75.3543C78.734 75.4715 78.798 75.6595 78.798 75.9181V77.4297H78.5494ZM77.7916 77.1933C78.0004 77.1933 78.1641 77.136 78.2827 77.0215C78.4026 76.907 78.4625 76.7467 78.4625 76.5405V76.3405L78.1271 76.3546C77.8603 76.3641 77.6677 76.4058 77.5491 76.4799C77.4319 76.5527 77.3733 76.6665 77.3733 76.8214C77.3733 76.9427 77.4097 77.035 77.4824 77.0983C77.5565 77.1616 77.6596 77.1933 77.7916 77.1933ZM80.9885 77.4297V75.997C80.9885 75.8164 80.9474 75.6817 80.8652 75.5928C80.7831 75.5039 80.6544 75.4594 80.4793 75.4594C80.2475 75.4594 80.0778 75.5221 79.97 75.6474C79.8622 75.7726 79.8083 75.9794 79.8083 76.2677V77.4297H79.4729V75.2149H79.7457L79.8003 75.518H79.8164C79.8851 75.4089 79.9815 75.3247 80.1054 75.2654C80.2294 75.2048 80.3674 75.1745 80.5197 75.1745C80.7864 75.1745 80.9872 75.2391 81.1219 75.3685C81.2566 75.4965 81.324 75.7019 81.324 75.9848V77.4297H80.9885ZM82.3283 76.296C82.3862 76.2139 82.4744 76.1061 82.593 75.9727L83.3084 75.2149H83.7065L82.8092 76.1586L83.7691 77.4297H83.3629L82.5809 76.3829L82.3283 76.6012V77.4297H81.9969V74.2853H82.3283V75.9525C82.3283 76.0266 82.3229 76.1411 82.3121 76.296H82.3283ZM84.8583 75.2149H85.218L85.703 76.4779C85.8094 76.7662 85.8754 76.9743 85.901 77.1023H85.9172C85.9347 77.0336 85.9711 76.9164 86.0263 76.7507C86.0829 76.5837 86.2661 76.0717 86.576 75.2149H86.9357L85.9839 77.7369C85.8896 77.9861 85.7791 78.1626 85.6525 78.2663C85.5272 78.3714 85.3729 78.4239 85.1897 78.4239C85.0873 78.4239 84.9863 78.4125 84.8866 78.3896V78.1208C84.9607 78.137 85.0435 78.1451 85.1351 78.1451C85.3655 78.1451 85.5299 78.0157 85.6282 77.7571L85.7515 77.4418L84.8583 75.2149ZM89.1888 76.3203C89.1888 76.6813 89.0979 76.9636 88.916 77.167C88.7342 77.3691 88.4829 77.4701 88.1623 77.4701C87.9642 77.4701 87.7884 77.4236 87.6348 77.3307C87.4813 77.2377 87.3627 77.1044 87.2792 76.9306C87.1957 76.7568 87.1539 76.5533 87.1539 76.3203C87.1539 75.9592 87.2442 75.6783 87.4247 75.4776C87.6052 75.2755 87.8558 75.1745 88.1764 75.1745C88.4863 75.1745 88.7321 75.2775 88.914 75.4837C89.0972 75.6898 89.1888 75.9687 89.1888 76.3203ZM87.5015 76.3203C87.5015 76.6032 87.5581 76.8187 87.6712 76.9669C87.7844 77.1151 87.9508 77.1892 88.1704 77.1892C88.39 77.1892 88.5563 77.1158 88.6695 76.969C88.784 76.8208 88.8413 76.6045 88.8413 76.3203C88.8413 76.0387 88.784 75.8252 88.6695 75.6797C88.5563 75.5328 88.3886 75.4594 88.1663 75.4594C87.9467 75.4594 87.781 75.5315 87.6692 75.6756C87.5574 75.8198 87.5015 76.0347 87.5015 76.3203ZM90.076 75.2149V76.6517C90.076 76.8322 90.117 76.9669 90.1992 77.0559C90.2814 77.1448 90.4101 77.1892 90.5852 77.1892C90.8169 77.1892 90.986 77.1259 91.0924 76.9993C91.2002 76.8726 91.2541 76.6658 91.2541 76.3789V75.2149H91.5895V77.4297H91.3127L91.2642 77.1326H91.246C91.1773 77.2418 91.0816 77.3253 90.9591 77.3832C90.8378 77.4412 90.699 77.4701 90.5428 77.4701C90.2733 77.4701 90.0712 77.4061 89.9365 77.2781C89.8031 77.1502 89.7365 76.9454 89.7365 76.6638V75.2149H90.076ZM94.3398 75.4756H93.776V77.4297H93.4406V75.4756H93.0445V75.324L93.4406 75.2028V75.0795C93.4406 74.5352 93.6783 74.2631 94.1539 74.2631C94.2711 74.2631 94.4085 74.2867 94.5661 74.3338L94.4793 74.6026C94.3499 74.5608 94.2395 74.5399 94.1478 74.5399C94.0212 74.5399 93.9276 74.5824 93.8669 74.6673C93.8063 74.7508 93.776 74.8855 93.776 75.0714V75.2149H94.3398V75.4756ZM96.6375 76.3203C96.6375 76.6813 96.5465 76.9636 96.3646 77.167C96.1828 77.3691 95.9315 77.4701 95.6109 77.4701C95.4128 77.4701 95.237 77.4236 95.0835 77.3307C94.9299 77.2377 94.8113 77.1044 94.7278 76.9306C94.6443 76.7568 94.6025 76.5533 94.6025 76.3203C94.6025 75.9592 94.6928 75.6783 94.8733 75.4776C95.0538 75.2755 95.3044 75.1745 95.625 75.1745C95.9349 75.1745 96.1807 75.2775 96.3626 75.4837C96.5458 75.6898 96.6375 75.9687 96.6375 76.3203ZM94.9501 76.3203C94.9501 76.6032 95.0067 76.8187 95.1198 76.9669C95.233 77.1151 95.3994 77.1892 95.619 77.1892C95.8386 77.1892 96.0049 77.1158 96.1181 76.969C96.2326 76.8208 96.2899 76.6045 96.2899 76.3203C96.2899 76.0387 96.2326 75.8252 96.1181 75.6797C96.0049 75.5328 95.8372 75.4594 95.6149 75.4594C95.3953 75.4594 95.2296 75.5315 95.1178 75.6756C95.006 75.8198 94.9501 76.0347 94.9501 76.3203ZM98.2197 75.1745C98.3181 75.1745 98.4063 75.1826 98.4844 75.1987L98.438 75.5099C98.3464 75.4897 98.2655 75.4796 98.1955 75.4796C98.0163 75.4796 97.8627 75.5524 97.7347 75.6979C97.6081 75.8434 97.5448 76.0246 97.5448 76.2415V77.4297H97.2093V75.2149H97.4862L97.5246 75.6251H97.5407C97.6229 75.481 97.7219 75.3698 97.8378 75.2917C97.9536 75.2136 98.081 75.1745 98.2197 75.1745ZM99.5857 75.2149H99.9454L100.43 76.4779C100.537 76.7662 100.603 76.9743 100.628 77.1023H100.645C100.662 77.0336 100.699 76.9164 100.754 76.7507C100.81 76.5837 100.994 76.0717 101.303 75.2149H101.663L100.711 77.7369C100.617 77.9861 100.507 78.1626 100.38 78.2663C100.255 78.3714 100.1 78.4239 99.9172 78.4239C99.8148 78.4239 99.7137 78.4125 99.614 78.3896V78.1208C99.6881 78.137 99.771 78.1451 99.8626 78.1451C100.093 78.1451 100.257 78.0157 100.356 77.7571L100.479 77.4418L99.5857 75.2149ZM103.916 76.3203C103.916 76.6813 103.825 76.9636 103.644 77.167C103.462 77.3691 103.21 77.4701 102.89 77.4701C102.692 77.4701 102.516 77.4236 102.362 77.3307C102.209 77.2377 102.09 77.1044 102.007 76.9306C101.923 76.7568 101.881 76.5533 101.881 76.3203C101.881 75.9592 101.972 75.6783 102.152 75.4776C102.333 75.2755 102.583 75.1745 102.904 75.1745C103.214 75.1745 103.46 75.2775 103.641 75.4837C103.825 75.6898 103.916 75.9687 103.916 76.3203ZM102.229 76.3203C102.229 76.6032 102.286 76.8187 102.399 76.9669C102.512 77.1151 102.678 77.1892 102.898 77.1892C103.117 77.1892 103.284 77.1158 103.397 76.969C103.511 76.8208 103.569 76.6045 103.569 76.3203C103.569 76.0387 103.511 75.8252 103.397 75.6797C103.284 75.5328 103.116 75.4594 102.894 75.4594C102.674 75.4594 102.508 75.5315 102.397 75.6756C102.285 75.8198 102.229 76.0347 102.229 76.3203ZM104.803 75.2149V76.6517C104.803 76.8322 104.845 76.9669 104.927 77.0559C105.009 77.1448 105.138 77.1892 105.313 77.1892C105.544 77.1892 105.713 77.1259 105.82 76.9993C105.928 76.8726 105.982 76.6658 105.982 76.3789V75.2149H106.317V77.4297H106.04L105.992 77.1326H105.973C105.905 77.2418 105.809 77.3253 105.687 77.3832C105.565 77.4412 105.427 77.4701 105.27 77.4701C105.001 77.4701 104.799 77.4061 104.664 77.2781C104.531 77.1502 104.464 76.9454 104.464 76.6638V75.2149H104.803ZM108.023 75.1745C108.121 75.1745 108.209 75.1826 108.287 75.1987L108.241 75.5099C108.149 75.4897 108.068 75.4796 107.998 75.4796C107.819 75.4796 107.666 75.5524 107.538 75.6979C107.411 75.8434 107.348 76.0246 107.348 76.2415V77.4297H107.012V75.2149H107.289L107.327 75.6251H107.344C107.426 75.481 107.525 75.3698 107.641 75.2917C107.756 75.2136 107.884 75.1745 108.023 75.1745ZM110.625 77.4701C110.305 77.4701 110.056 77.3718 109.88 77.1751C109.704 76.977 109.617 76.6975 109.617 76.3364C109.617 75.966 109.706 75.6797 109.884 75.4776C110.063 75.2755 110.317 75.1745 110.648 75.1745C110.754 75.1745 110.86 75.1859 110.967 75.2088C111.073 75.2317 111.157 75.2587 111.217 75.2897L111.114 75.5746C111.04 75.545 110.959 75.5207 110.872 75.5019C110.784 75.4816 110.707 75.4715 110.639 75.4715C110.189 75.4715 109.964 75.7585 109.964 76.3324C109.964 76.6045 110.019 76.8134 110.128 76.9589C110.239 77.1044 110.402 77.1771 110.617 77.1771C110.802 77.1771 110.991 77.1374 111.185 77.0579V77.3549C111.037 77.4317 110.85 77.4701 110.625 77.4701ZM113.606 76.3203C113.606 76.6813 113.515 76.9636 113.333 77.167C113.151 77.3691 112.9 77.4701 112.579 77.4701C112.381 77.4701 112.206 77.4236 112.052 77.3307C111.898 77.2377 111.78 77.1044 111.696 76.9306C111.613 76.7568 111.571 76.5533 111.571 76.3203C111.571 75.9592 111.661 75.6783 111.842 75.4776C112.022 75.2755 112.273 75.1745 112.594 75.1745C112.903 75.1745 113.149 75.2775 113.331 75.4837C113.514 75.6898 113.606 75.9687 113.606 76.3203ZM111.919 76.3203C111.919 76.6032 111.975 76.8187 112.088 76.9669C112.202 77.1151 112.368 77.1892 112.587 77.1892C112.807 77.1892 112.973 77.1158 113.087 76.969C113.201 76.8208 113.258 76.6045 113.258 76.3203C113.258 76.0387 113.201 75.8252 113.087 75.6797C112.973 75.5328 112.806 75.4594 112.583 75.4594C112.364 75.4594 112.198 75.5315 112.086 75.6756C111.975 75.8198 111.919 76.0347 111.919 76.3203ZM115.693 77.4297V75.997C115.693 75.8164 115.652 75.6817 115.57 75.5928C115.488 75.5039 115.359 75.4594 115.184 75.4594C114.952 75.4594 114.783 75.5221 114.675 75.6474C114.567 75.7726 114.513 75.9794 114.513 76.2677V77.4297H114.178V75.2149H114.451L114.505 75.518H114.521C114.59 75.4089 114.686 75.3247 114.81 75.2654C114.934 75.2048 115.072 75.1745 115.225 75.1745C115.491 75.1745 115.692 75.2391 115.827 75.3685C115.962 75.4965 116.029 75.7019 116.029 75.9848V77.4297H115.693ZM117.417 77.1933C117.476 77.1933 117.534 77.1892 117.589 77.1811C117.644 77.1717 117.688 77.1623 117.72 77.1529V77.4095C117.684 77.427 117.63 77.4412 117.559 77.4519C117.489 77.4641 117.425 77.4701 117.369 77.4701C116.94 77.4701 116.726 77.2445 116.726 76.7931V75.4756H116.409V75.3139L116.726 75.1745L116.868 74.7016H117.062V75.2149H117.704V75.4756H117.062V76.779C117.062 76.9124 117.093 77.0148 117.156 77.0862C117.22 77.1576 117.307 77.1933 117.417 77.1933ZM119.157 75.1745C119.255 75.1745 119.344 75.1826 119.422 75.1987L119.375 75.5099C119.284 75.4897 119.203 75.4796 119.133 75.4796C118.954 75.4796 118.8 75.5524 118.672 75.6979C118.545 75.8434 118.482 76.0246 118.482 76.2415V77.4297H118.147V75.2149H118.424L118.462 75.6251H118.478C118.56 75.481 118.659 75.3698 118.775 75.2917C118.891 75.2136 119.018 75.1745 119.157 75.1745ZM120.153 77.4297H119.818V75.2149H120.153V77.4297ZM119.79 74.6147C119.79 74.5379 119.808 74.482 119.846 74.447C119.884 74.4106 119.931 74.3924 119.988 74.3924C120.041 74.3924 120.088 74.4106 120.127 74.447C120.166 74.4834 120.186 74.5393 120.186 74.6147C120.186 74.6902 120.166 74.7467 120.127 74.7845C120.088 74.8208 120.041 74.839 119.988 74.839C119.931 74.839 119.884 74.8208 119.846 74.7845C119.808 74.7467 119.79 74.6902 119.79 74.6147ZM121.877 75.1785C122.168 75.1785 122.394 75.2782 122.554 75.4776C122.716 75.6756 122.796 75.9565 122.796 76.3203C122.796 76.684 122.715 76.9669 122.552 77.169C122.39 77.3698 122.165 77.4701 121.877 77.4701C121.733 77.4701 121.601 77.4438 121.481 77.3913C121.362 77.3374 121.263 77.2552 121.182 77.1448H121.158L121.087 77.4297H120.846V74.2853H121.182V75.0492C121.182 75.2203 121.176 75.3739 121.166 75.5099H121.182C121.338 75.289 121.57 75.1785 121.877 75.1785ZM121.829 75.4594C121.599 75.4594 121.434 75.5254 121.333 75.6575C121.232 75.7881 121.182 76.0091 121.182 76.3203C121.182 76.6315 121.234 76.8544 121.337 76.9892C121.441 77.1225 121.608 77.1892 121.837 77.1892C122.043 77.1892 122.196 77.1145 122.297 76.9649C122.398 76.814 122.449 76.5978 122.449 76.3162C122.449 76.0279 122.398 75.8131 122.297 75.6716C122.196 75.5301 122.04 75.4594 121.829 75.4594ZM123.682 75.2149V76.6517C123.682 76.8322 123.723 76.9669 123.805 77.0559C123.887 77.1448 124.016 77.1892 124.191 77.1892C124.423 77.1892 124.592 77.1259 124.698 76.9993C124.806 76.8726 124.86 76.6658 124.86 76.3789V75.2149H125.195V77.4297H124.918L124.87 77.1326H124.852C124.783 77.2418 124.687 77.3253 124.565 77.3832C124.443 77.4412 124.305 77.4701 124.148 77.4701C123.879 77.4701 123.677 77.4061 123.542 77.2781C123.409 77.1502 123.342 76.9454 123.342 76.6638V75.2149H123.682ZM126.606 77.1933C126.665 77.1933 126.722 77.1892 126.777 77.1811C126.833 77.1717 126.876 77.1623 126.909 77.1529V77.4095C126.872 77.427 126.819 77.4412 126.747 77.4519C126.677 77.4641 126.614 77.4701 126.557 77.4701C126.129 77.4701 125.915 77.2445 125.915 76.7931V75.4756H125.597V75.3139L125.915 75.1745L126.056 74.7016H126.25V75.2149H126.893V75.4756H126.25V76.779C126.25 76.9124 126.282 77.0148 126.345 77.0862C126.408 77.1576 126.495 77.1933 126.606 77.1933ZM127.671 77.4297H127.335V75.2149H127.671V77.4297ZM127.307 74.6147C127.307 74.5379 127.326 74.482 127.363 74.447C127.401 74.4106 127.448 74.3924 127.505 74.3924C127.559 74.3924 127.605 74.4106 127.644 74.447C127.683 74.4834 127.703 74.5393 127.703 74.6147C127.703 74.6902 127.683 74.7467 127.644 74.7845C127.605 74.8208 127.559 74.839 127.505 74.839C127.448 74.839 127.401 74.8208 127.363 74.7845C127.326 74.7467 127.307 74.6902 127.307 74.6147ZM130.275 76.3203C130.275 76.6813 130.184 76.9636 130.003 77.167C129.821 77.3691 129.569 77.4701 129.249 77.4701C129.051 77.4701 128.875 77.4236 128.721 77.3307C128.568 77.2377 128.449 77.1044 128.366 76.9306C128.282 76.7568 128.24 76.5533 128.24 76.3203C128.24 75.9592 128.331 75.6783 128.511 75.4776C128.692 75.2755 128.942 75.1745 129.263 75.1745C129.573 75.1745 129.819 75.2775 130.001 75.4837C130.184 75.6898 130.275 75.9687 130.275 76.3203ZM128.588 76.3203C128.588 76.6032 128.645 76.8187 128.758 76.9669C128.871 77.1151 129.037 77.1892 129.257 77.1892C129.477 77.1892 129.643 77.1158 129.756 76.969C129.871 76.8208 129.928 76.6045 129.928 76.3203C129.928 76.0387 129.871 75.8252 129.756 75.6797C129.643 75.5328 129.475 75.4594 129.253 75.4594C129.033 75.4594 128.868 75.5315 128.756 75.6756C128.644 75.8198 128.588 76.0347 128.588 76.3203ZM132.363 77.4297V75.997C132.363 75.8164 132.322 75.6817 132.24 75.5928C132.157 75.5039 132.029 75.4594 131.854 75.4594C131.622 75.4594 131.452 75.5221 131.344 75.6474C131.237 75.7726 131.183 75.9794 131.183 76.2677V77.4297H130.847V75.2149H131.12L131.175 75.518H131.191C131.26 75.4089 131.356 75.3247 131.48 75.2654C131.604 75.2048 131.742 75.1745 131.894 75.1745C132.161 75.1745 132.362 75.2391 132.496 75.3685C132.631 75.4965 132.698 75.7019 132.698 75.9848V77.4297H132.363ZM133.323 77.2155C133.323 77.1252 133.343 77.0572 133.383 77.0114C133.425 76.9642 133.484 76.9407 133.561 76.9407C133.639 76.9407 133.7 76.9642 133.743 77.0114C133.788 77.0572 133.81 77.1252 133.81 77.2155C133.81 77.3031 133.788 77.3704 133.743 77.4176C133.699 77.4647 133.638 77.4883 133.561 77.4883C133.492 77.4883 133.435 77.4674 133.389 77.4257C133.345 77.3826 133.323 77.3125 133.323 77.2155ZM73.1923 81.9525L73.9804 80.4753H74.3522L73.3661 82.2839V83.4297H73.0185V82.3001L72.0344 80.4753H72.4102L73.1923 81.9525ZM76.6034 82.3203C76.6034 82.6813 76.5125 82.9636 76.3306 83.167C76.1487 83.3691 75.8975 83.4701 75.5768 83.4701C75.3788 83.4701 75.203 83.4236 75.0494 83.3307C74.8958 83.2377 74.7773 83.1044 74.6937 82.9306C74.6102 82.7568 74.5684 82.5533 74.5684 82.3203C74.5684 81.9592 74.6587 81.6783 74.8392 81.4776C75.0198 81.2755 75.2703 81.1745 75.591 81.1745C75.9008 81.1745 76.1467 81.2775 76.3286 81.4837C76.5118 81.6898 76.6034 81.9687 76.6034 82.3203ZM74.916 82.3203C74.916 82.6032 74.9726 82.8187 75.0858 82.9669C75.1989 83.1151 75.3653 83.1892 75.5849 83.1892C75.8045 83.1892 75.9709 83.1158 76.084 82.969C76.1986 82.8208 76.2558 82.6045 76.2558 82.3203C76.2558 82.0387 76.1986 81.8252 76.084 81.6797C75.9709 81.5328 75.8032 81.4594 75.5809 81.4594C75.3613 81.4594 75.1956 81.5315 75.0837 81.6756C74.9719 81.8198 74.916 82.0347 74.916 82.3203ZM77.4905 81.2149V82.6517C77.4905 82.8322 77.5316 82.9669 77.6138 83.0559C77.696 83.1448 77.8246 83.1892 77.9997 83.1892C78.2315 83.1892 78.4005 83.1259 78.507 82.9993C78.6147 82.8726 78.6686 82.6658 78.6686 82.3789V81.2149H79.0041V83.4297H78.7272L78.6787 83.1326H78.6606C78.5918 83.2418 78.4962 83.3253 78.3736 83.3832C78.2523 83.4412 78.1136 83.4701 77.9573 83.4701C77.6879 83.4701 77.4858 83.4061 77.3511 83.2781C77.2177 83.1502 77.151 82.9454 77.151 82.6638V81.2149H77.4905ZM80.7096 81.1745C80.808 81.1745 80.8962 81.1826 80.9744 81.1987L80.9279 81.5099C80.8363 81.4897 80.7554 81.4796 80.6854 81.4796C80.5062 81.4796 80.3526 81.5524 80.2246 81.6979C80.098 81.8434 80.0347 82.0246 80.0347 82.2415V83.4297H79.6992V81.2149H79.9761L80.0145 81.6251H80.0306C80.1128 81.481 80.2118 81.3698 80.3277 81.2917C80.4436 81.2136 80.5709 81.1745 80.7096 81.1745ZM83.1426 83.1933C83.2019 83.1933 83.2592 83.1892 83.3144 83.1811C83.3696 83.1717 83.4134 83.1623 83.4458 83.1529V83.4095C83.4094 83.427 83.3555 83.4412 83.2841 83.4519C83.214 83.4641 83.1507 83.4701 83.0941 83.4701C82.6657 83.4701 82.4515 83.2445 82.4515 82.7931V81.4756H82.1343V81.3139L82.4515 81.1745L82.593 80.7016H82.787V81.2149H83.4296V81.4756H82.787V82.779C82.787 82.9124 82.8186 83.0148 82.882 83.0862C82.9453 83.1576 83.0322 83.1933 83.1426 83.1933ZM84.8825 81.1745C84.9809 81.1745 85.0691 81.1826 85.1473 81.1987L85.1008 81.5099C85.0092 81.4897 84.9283 81.4796 84.8583 81.4796C84.6791 81.4796 84.5255 81.5524 84.3975 81.6979C84.2709 81.8434 84.2076 82.0246 84.2076 82.2415V83.4297H83.8721V81.2149H84.149L84.1874 81.6251H84.2035C84.2857 81.481 84.3847 81.3698 84.5006 81.2917C84.6165 81.2136 84.7438 81.1745 84.8825 81.1745ZM86.9053 83.4297L86.8386 83.1145H86.8225C86.712 83.2532 86.6015 83.3475 86.4911 83.3974C86.3819 83.4459 86.2452 83.4701 86.0808 83.4701C85.8613 83.4701 85.6888 83.4135 85.5635 83.3004C85.4396 83.1872 85.3776 83.0262 85.3776 82.8174C85.3776 82.3701 85.7353 82.1357 86.4507 82.1142L86.8265 82.102V81.9646C86.8265 81.7908 86.7888 81.6628 86.7134 81.5807C86.6393 81.4971 86.52 81.4554 86.3557 81.4554C86.1711 81.4554 85.9623 81.512 85.7292 81.6251L85.6262 81.3685C85.7353 81.3092 85.8545 81.2627 85.9838 81.229C86.1145 81.1954 86.2452 81.1785 86.3759 81.1785C86.6399 81.1785 86.8353 81.2371 86.9619 81.3543C87.0899 81.4715 87.1539 81.6595 87.1539 81.9181V83.4297H86.9053ZM86.1475 83.1933C86.3563 83.1933 86.52 83.136 86.6386 83.0215C86.7585 82.907 86.8184 82.7467 86.8184 82.5405V82.3405L86.483 82.3546C86.2162 82.3641 86.0236 82.4058 85.905 82.4799C85.7878 82.5527 85.7292 82.6665 85.7292 82.8214C85.7292 82.9427 85.7656 83.035 85.8383 83.0983C85.9124 83.1616 86.0155 83.1933 86.1475 83.1933ZM88.7139 83.4701C88.3933 83.4701 88.1447 83.3718 87.9683 83.1751C87.7931 82.977 87.7056 82.6975 87.7056 82.3364C87.7056 81.966 87.7945 81.6797 87.9723 81.4776C88.1515 81.2755 88.4061 81.1745 88.7362 81.1745C88.8426 81.1745 88.949 81.1859 89.0555 81.2088C89.1619 81.2317 89.2454 81.2587 89.306 81.2897L89.203 81.5746C89.1289 81.545 89.048 81.5207 88.9605 81.5019C88.8729 81.4816 88.7954 81.4715 88.7281 81.4715C88.2781 81.4715 88.0531 81.7585 88.0531 82.3324C88.0531 82.6045 88.1077 82.8134 88.2168 82.9589C88.3273 83.1044 88.4903 83.1771 88.7059 83.1771C88.8904 83.1771 89.0797 83.1374 89.2737 83.0579V83.3549C89.1255 83.4317 88.9389 83.4701 88.7139 83.4701ZM90.1143 82.296C90.1723 82.2139 90.2605 82.1061 90.3791 81.9727L91.0944 81.2149H91.4925L90.5953 82.1586L91.5552 83.4297H91.149L90.3669 82.3829L90.1143 82.6012V83.4297H89.7829V80.2853H90.1143V81.9525C90.1143 82.0266 90.1089 82.1411 90.0982 82.296H90.1143ZM94.358 83.4297L94.2913 83.1145H94.2751C94.1647 83.2532 94.0542 83.3475 93.9437 83.3974C93.8346 83.4459 93.6979 83.4701 93.5335 83.4701C93.3139 83.4701 93.1415 83.4135 93.0162 83.3004C92.8922 83.1872 92.8303 83.0262 92.8303 82.8174C92.8303 82.3701 93.1879 82.1357 93.9033 82.1142L94.2792 82.102V81.9646C94.2792 81.7908 94.2414 81.6628 94.166 81.5807C94.0919 81.4971 93.9727 81.4554 93.8083 81.4554C93.6238 81.4554 93.4149 81.512 93.1819 81.6251L93.0788 81.3685C93.1879 81.3092 93.3072 81.2627 93.4365 81.229C93.5672 81.1954 93.6979 81.1785 93.8285 81.1785C94.0926 81.1785 94.2879 81.2371 94.4146 81.3543C94.5425 81.4715 94.6065 81.6595 94.6065 81.9181V83.4297H94.358ZM93.6002 83.1933C93.809 83.1933 93.9727 83.136 94.0912 83.0215C94.2111 82.907 94.2711 82.7467 94.2711 82.5405V82.3405L93.9356 82.3546C93.6689 82.3641 93.4762 82.4058 93.3577 82.4799C93.2405 82.5527 93.1819 82.6665 93.1819 82.8214C93.1819 82.9427 93.2182 83.035 93.291 83.0983C93.3651 83.1616 93.4682 83.1933 93.6002 83.1933ZM96.7971 83.4297V81.997C96.7971 81.8164 96.756 81.6817 96.6738 81.5928C96.5916 81.5039 96.463 81.4594 96.2878 81.4594C96.0561 81.4594 95.8864 81.5221 95.7786 81.6474C95.6708 81.7726 95.6169 81.9794 95.6169 82.2677V83.4297H95.2815V81.2149H95.5543L95.6088 81.518H95.625C95.6937 81.4089 95.79 81.3247 95.914 81.2654C96.0379 81.2048 96.176 81.1745 96.3282 81.1745C96.595 81.1745 96.7957 81.2391 96.9304 81.3685C97.0652 81.4965 97.1325 81.7019 97.1325 81.9848V83.4297H96.7971ZM99.313 83.1326H99.2948C99.1398 83.3576 98.9081 83.4701 98.5996 83.4701C98.31 83.4701 98.0843 83.3711 97.9226 83.1731C97.7623 82.975 97.6822 82.6935 97.6822 82.3284C97.6822 81.9633 97.763 81.6797 97.9247 81.4776C98.0863 81.2755 98.3113 81.1745 98.5996 81.1745C98.9 81.1745 99.1304 81.2836 99.2907 81.5019H99.317L99.3029 81.3422L99.2948 81.1866V80.2853H99.6302V83.4297H99.3574L99.313 83.1326ZM98.642 83.1892C98.8711 83.1892 99.0368 83.1273 99.1392 83.0033C99.2429 82.878 99.2948 82.6766 99.2948 82.3991V82.3284C99.2948 82.0145 99.2422 81.7908 99.1371 81.6575C99.0334 81.5227 98.867 81.4554 98.638 81.4554C98.4413 81.4554 98.2904 81.5322 98.1853 81.6857C98.0816 81.838 98.0297 82.0535 98.0297 82.3324C98.0297 82.6153 98.0816 82.8288 98.1853 82.973C98.2891 83.1172 98.4413 83.1892 98.642 83.1892ZM102.098 83.1933C102.157 83.1933 102.214 83.1892 102.269 83.1811C102.325 83.1717 102.368 83.1623 102.401 83.1529V83.4095C102.364 83.427 102.31 83.4412 102.239 83.4519C102.169 83.4641 102.106 83.4701 102.049 83.4701C101.621 83.4701 101.406 83.2445 101.406 82.7931V81.4756H101.089V81.3139L101.406 81.1745L101.548 80.7016H101.742V81.2149H102.385V81.4756H101.742V82.779C101.742 82.9124 101.774 83.0148 101.837 83.0862C101.9 83.1576 101.987 83.1933 102.098 83.1933ZM103.837 81.1745C103.936 81.1745 104.024 81.1826 104.102 81.1987L104.056 81.5099C103.964 81.4897 103.883 81.4796 103.813 81.4796C103.634 81.4796 103.48 81.5524 103.352 81.6979C103.226 81.8434 103.163 82.0246 103.163 82.2415V83.4297H102.827V81.2149H103.104L103.142 81.6251H103.158C103.241 81.481 103.34 81.3698 103.456 81.2917C103.571 81.2136 103.699 81.1745 103.837 81.1745ZM105.86 83.4297L105.794 83.1145H105.777C105.667 83.2532 105.556 83.3475 105.446 83.3974C105.337 83.4459 105.2 83.4701 105.036 83.4701C104.816 83.4701 104.644 83.4135 104.518 83.3004C104.395 83.1872 104.333 83.0262 104.333 82.8174C104.333 82.3701 104.69 82.1357 105.406 82.1142L105.781 82.102V81.9646C105.781 81.7908 105.744 81.6628 105.668 81.5807C105.594 81.4971 105.475 81.4554 105.311 81.4554C105.126 81.4554 104.917 81.512 104.684 81.6251L104.581 81.3685C104.69 81.3092 104.809 81.2627 104.939 81.229C105.069 81.1954 105.2 81.1785 105.331 81.1785C105.595 81.1785 105.79 81.2371 105.917 81.3543C106.045 81.4715 106.109 81.6595 106.109 81.9181V83.4297H105.86ZM105.102 83.1933C105.311 83.1933 105.475 83.136 105.594 83.0215C105.713 82.907 105.773 82.7467 105.773 82.5405V82.3405L105.438 82.3546C105.171 82.3641 104.979 82.4058 104.86 82.4799C104.743 82.5527 104.684 82.6665 104.684 82.8214C104.684 82.9427 104.721 83.035 104.793 83.0983C104.867 83.1616 104.97 83.1933 105.102 83.1933ZM107.669 83.4701C107.348 83.4701 107.1 83.3718 106.923 83.1751C106.748 82.977 106.66 82.6975 106.66 82.3364C106.66 81.966 106.749 81.6797 106.927 81.4776C107.106 81.2755 107.361 81.1745 107.691 81.1745C107.798 81.1745 107.904 81.1859 108.01 81.2088C108.117 81.2317 108.2 81.2587 108.261 81.2897L108.158 81.5746C108.084 81.545 108.003 81.5207 107.915 81.5019C107.828 81.4816 107.75 81.4715 107.683 81.4715C107.233 81.4715 107.008 81.7585 107.008 82.3324C107.008 82.6045 107.063 82.8134 107.172 82.9589C107.282 83.1044 107.445 83.1771 107.661 83.1771C107.845 83.1771 108.035 83.1374 108.229 83.0579V83.3549C108.08 83.4317 107.894 83.4701 107.669 83.4701ZM109.673 83.4701C109.346 83.4701 109.087 83.3704 108.898 83.171C108.709 82.9717 108.615 82.6948 108.615 82.3405C108.615 81.9835 108.702 81.6999 108.877 81.4897C109.054 81.2796 109.29 81.1745 109.587 81.1745C109.864 81.1745 110.084 81.2661 110.245 81.4493C110.407 81.6312 110.488 81.8717 110.488 82.1707V82.3829H108.962C108.969 82.6429 109.034 82.8403 109.158 82.975C109.283 83.1097 109.459 83.1771 109.686 83.1771C109.924 83.1771 110.16 83.1273 110.393 83.0276V83.3266C110.274 83.3778 110.162 83.4142 110.055 83.4358C109.95 83.4587 109.823 83.4701 109.673 83.4701ZM109.583 81.4554C109.405 81.4554 109.263 81.5133 109.156 81.6292C109.051 81.745 108.989 81.9053 108.97 82.1101H110.128C110.128 81.8986 110.081 81.7369 109.987 81.6251C109.892 81.512 109.758 81.4554 109.583 81.4554ZM112.986 83.4701C112.665 83.4701 112.416 83.3718 112.24 83.1751C112.065 82.977 111.977 82.6975 111.977 82.3364C111.977 81.966 112.066 81.6797 112.244 81.4776C112.423 81.2755 112.678 81.1745 113.008 81.1745C113.114 81.1745 113.221 81.1859 113.327 81.2088C113.434 81.2317 113.517 81.2587 113.578 81.2897L113.475 81.5746C113.4 81.545 113.32 81.5207 113.232 81.5019C113.145 81.4816 113.067 81.4715 113 81.4715C112.55 81.4715 112.325 81.7585 112.325 82.3324C112.325 82.6045 112.379 82.8134 112.488 82.9589C112.599 83.1044 112.762 83.1771 112.977 83.1771C113.162 83.1771 113.351 83.1374 113.545 83.0579V83.3549C113.397 83.4317 113.211 83.4701 112.986 83.4701ZM115.966 82.3203C115.966 82.6813 115.875 82.9636 115.693 83.167C115.512 83.3691 115.26 83.4701 114.94 83.4701C114.742 83.4701 114.566 83.4236 114.412 83.3307C114.259 83.2377 114.14 83.1044 114.057 82.9306C113.973 82.7568 113.931 82.5533 113.931 82.3203C113.931 81.9592 114.022 81.6783 114.202 81.4776C114.383 81.2755 114.633 81.1745 114.954 81.1745C115.264 81.1745 115.51 81.2775 115.691 81.4837C115.875 81.6898 115.966 81.9687 115.966 82.3203ZM114.279 82.3203C114.279 82.6032 114.335 82.8187 114.449 82.9669C114.562 83.1151 114.728 83.1892 114.948 83.1892C115.167 83.1892 115.334 83.1158 115.447 82.969C115.561 82.8208 115.619 82.6045 115.619 82.3203C115.619 82.0387 115.561 81.8252 115.447 81.6797C115.334 81.5328 115.166 81.4594 114.944 81.4594C114.724 81.4594 114.558 81.5315 114.447 81.6756C114.335 81.8198 114.279 82.0347 114.279 82.3203ZM118.046 83.1326H118.027C117.872 83.3576 117.641 83.4701 117.332 83.4701C117.043 83.4701 116.817 83.3711 116.655 83.1731C116.495 82.975 116.415 82.6935 116.415 82.3284C116.415 81.9633 116.496 81.6797 116.657 81.4776C116.819 81.2755 117.044 81.1745 117.332 81.1745C117.633 81.1745 117.863 81.2836 118.023 81.5019H118.05L118.036 81.3422L118.027 81.1866V80.2853H118.363V83.4297H118.09L118.046 83.1326ZM117.375 83.1892C117.604 83.1892 117.769 83.1273 117.872 83.0033C117.976 82.878 118.027 82.6766 118.027 82.3991V82.3284C118.027 82.0145 117.975 81.7908 117.87 81.6575C117.766 81.5227 117.6 81.4554 117.371 81.4554C117.174 81.4554 117.023 81.5322 116.918 81.6857C116.814 81.838 116.762 82.0535 116.762 82.3324C116.762 82.6153 116.814 82.8288 116.918 82.973C117.022 83.1172 117.174 83.1892 117.375 83.1892ZM119.994 83.4701C119.666 83.4701 119.408 83.3704 119.218 83.171C119.029 82.9717 118.935 82.6948 118.935 82.3405C118.935 81.9835 119.022 81.6999 119.197 81.4897C119.374 81.2796 119.61 81.1745 119.907 81.1745C120.184 81.1745 120.404 81.2661 120.566 81.4493C120.727 81.6312 120.808 81.8717 120.808 82.1707V82.3829H119.282C119.289 82.6429 119.354 82.8403 119.478 82.975C119.604 83.1097 119.779 83.1771 120.006 83.1771C120.244 83.1771 120.48 83.1273 120.713 83.0276V83.3266C120.595 83.3778 120.482 83.4142 120.376 83.4358C120.271 83.4587 120.143 83.4701 119.994 83.4701ZM119.903 81.4554C119.725 81.4554 119.583 81.5133 119.476 81.6292C119.371 81.745 119.309 81.9053 119.29 82.1101H120.448C120.448 81.8986 120.401 81.7369 120.307 81.6251C120.213 81.512 120.078 81.4554 119.903 81.4554ZM122.756 83.4297H122.421V81.2149H122.756V83.4297ZM122.392 80.6147C122.392 80.5379 122.411 80.482 122.449 80.447C122.487 80.4106 122.534 80.3924 122.59 80.3924C122.644 80.3924 122.691 80.4106 122.73 80.447C122.769 80.4834 122.788 80.5393 122.788 80.6147C122.788 80.6902 122.769 80.7467 122.73 80.7845C122.691 80.8208 122.644 80.839 122.59 80.839C122.534 80.839 122.487 80.8208 122.449 80.7845C122.411 80.7467 122.392 80.6902 122.392 80.6147ZM124.878 82.8255C124.878 83.0316 124.801 83.1906 124.648 83.3024C124.494 83.4142 124.278 83.4701 124.001 83.4701C123.707 83.4701 123.478 83.4236 123.314 83.3307V83.0195C123.42 83.0734 123.534 83.1158 123.655 83.1468C123.778 83.1778 123.896 83.1933 124.009 83.1933C124.184 83.1933 124.319 83.1657 124.413 83.1104C124.507 83.0538 124.555 82.9683 124.555 82.8538C124.555 82.7676 124.517 82.6941 124.441 82.6335C124.367 82.5715 124.222 82.4988 124.005 82.4153C123.799 82.3385 123.652 82.2718 123.564 82.2152C123.478 82.1573 123.413 82.0919 123.37 82.0192C123.329 81.9464 123.308 81.8595 123.308 81.7585C123.308 81.578 123.381 81.4358 123.528 81.3321C123.675 81.227 123.876 81.1745 124.132 81.1745C124.371 81.1745 124.604 81.223 124.831 81.32L124.712 81.5928C124.49 81.5012 124.288 81.4554 124.108 81.4554C123.949 81.4554 123.829 81.4803 123.748 81.5301C123.667 81.58 123.627 81.6487 123.627 81.7363C123.627 81.7955 123.642 81.8461 123.671 81.8878C123.702 81.9296 123.752 81.9693 123.819 82.0071C123.886 82.0448 124.016 82.0993 124.207 82.1707C124.47 82.2664 124.647 82.3627 124.738 82.4597C124.831 82.5567 124.878 82.6786 124.878 82.8255ZM128.372 83.4297L128.004 82.49H126.82L126.456 83.4297H126.109L127.277 80.4632H127.566L128.727 83.4297H128.372ZM127.897 82.1808L127.553 81.2654C127.509 81.1496 127.463 81.0074 127.416 80.839C127.386 80.9684 127.344 81.1105 127.289 81.2654L126.941 82.1808H127.897ZM129.115 80.4753H129.95C130.342 80.4753 130.626 80.5339 130.801 80.6511C130.976 80.7683 131.063 80.9535 131.063 81.2068C131.063 81.382 131.014 81.5268 130.916 81.6413C130.819 81.7545 130.677 81.8279 130.49 81.8616V81.8818C130.938 81.9586 131.163 82.1943 131.163 82.589C131.163 82.8531 131.073 83.0592 130.894 83.2074C130.716 83.3556 130.467 83.4297 130.146 83.4297H129.115V80.4753ZM129.459 81.7403H130.025C130.267 81.7403 130.442 81.7026 130.548 81.6271C130.655 81.5504 130.708 81.4217 130.708 81.2412C130.708 81.0755 130.649 80.9562 130.53 80.8835C130.411 80.8094 130.223 80.7723 129.964 80.7723H129.459V81.7403ZM129.459 82.0313V83.1367H130.075C130.314 83.1367 130.493 83.0909 130.613 82.9993C130.734 82.9063 130.795 82.7615 130.795 82.5648C130.795 82.3816 130.733 82.2469 130.609 82.1606C130.486 82.0744 130.299 82.0313 130.047 82.0313H129.459ZM133.046 80.74C132.721 80.74 132.465 80.8485 132.276 81.0654C132.089 81.2809 131.995 81.5766 131.995 81.9525C131.995 82.3391 132.085 82.6382 132.266 82.8497C132.448 83.0599 132.706 83.165 133.042 83.165C133.248 83.165 133.483 83.1279 133.747 83.0538V83.3549C133.542 83.4317 133.29 83.4701 132.989 83.4701C132.554 83.4701 132.218 83.3381 131.981 83.074C131.745 82.81 131.627 82.4348 131.627 81.9485C131.627 81.644 131.684 81.3772 131.797 81.1482C131.912 80.9192 132.076 80.7427 132.29 80.6188C132.506 80.4948 132.759 80.4328 133.05 80.4328C133.36 80.4328 133.631 80.4894 133.862 80.6026L133.717 80.8976C133.493 80.7925 133.27 80.74 133.046 80.74ZM135.412 83.4297H135.085V81.324C135.085 81.1489 135.09 80.9832 135.101 80.8269C135.073 80.8552 135.041 80.8848 135.006 80.9158C134.971 80.9468 134.811 81.0782 134.525 81.3099L134.347 81.0795L135.129 80.4753H135.412V83.4297ZM138.462 83.4297H136.52V83.1407L137.298 82.3587C137.535 82.1189 137.691 81.9478 137.766 81.8454C137.842 81.743 137.898 81.6433 137.936 81.5463C137.974 81.4493 137.993 81.3449 137.993 81.2331C137.993 81.0755 137.945 80.9508 137.849 80.8592C137.754 80.7663 137.621 80.7198 137.451 80.7198C137.329 80.7198 137.212 80.74 137.102 80.7804C136.992 80.8208 136.871 80.8943 136.736 81.0007L136.558 80.7723C136.83 80.546 137.127 80.4328 137.447 80.4328C137.725 80.4328 137.942 80.5042 138.1 80.6471C138.258 80.7885 138.336 80.9791 138.336 81.2189C138.336 81.4062 138.284 81.5914 138.179 81.7747C138.074 81.9579 137.877 82.1896 137.589 82.4698L136.942 83.1023V83.1185H138.462V83.4297ZM140.701 81.1704C140.701 81.359 140.647 81.5133 140.541 81.6332C140.436 81.7531 140.286 81.8333 140.092 81.8737V81.8898C140.329 81.9195 140.505 81.9949 140.62 82.1162C140.734 82.2374 140.792 82.3964 140.792 82.5931C140.792 82.8747 140.694 83.0916 140.499 83.2438C140.303 83.3947 140.026 83.4701 139.666 83.4701C139.51 83.4701 139.366 83.458 139.236 83.4337C139.106 83.4108 138.98 83.3698 138.858 83.3105V82.9912C138.986 83.0545 139.122 83.103 139.266 83.1367C139.411 83.169 139.549 83.1852 139.678 83.1852C140.189 83.1852 140.444 82.9851 140.444 82.585C140.444 82.2266 140.162 82.0475 139.599 82.0475H139.308V81.7585H139.603C139.834 81.7585 140.016 81.708 140.151 81.6069C140.286 81.5045 140.353 81.3631 140.353 81.1826C140.353 81.0384 140.303 80.9252 140.204 80.8431C140.105 80.7609 139.971 80.7198 139.801 80.7198C139.672 80.7198 139.55 80.7373 139.436 80.7723C139.321 80.8074 139.19 80.872 139.044 80.9663L138.874 80.74C138.995 80.6444 139.135 80.5696 139.292 80.5157C139.451 80.4605 139.618 80.4328 139.793 80.4328C140.08 80.4328 140.303 80.4989 140.462 80.6309C140.621 80.7616 140.701 80.9414 140.701 81.1704ZM141.325 83.2155C141.325 83.1252 141.345 83.0572 141.386 83.0114C141.427 82.9642 141.487 82.9407 141.564 82.9407C141.642 82.9407 141.702 82.9642 141.745 83.0114C141.79 83.0572 141.812 83.1252 141.812 83.2155C141.812 83.3031 141.79 83.3704 141.745 83.4176C141.701 83.4647 141.64 83.4883 141.564 83.4883C141.495 83.4883 141.438 83.4674 141.392 83.4257C141.347 83.3826 141.325 83.3125 141.325 83.2155Z" fill="#41AF4B"/>
</svg>
