<svg width="167" height="147" viewBox="0 0 167 147" fill="none" xmlns="http://www.w3.org/2000/svg">
<path fill-rule="evenodd" clip-rule="evenodd" d="M166.072 74.2951C166.072 113.724 134.109 145.686 94.6809 145.686C55.2532 145.686 23.2898 113.724 23.2898 74.2951C23.2898 34.8665 55.2532 2.90397 94.6809 2.90397C134.109 2.90397 166.072 34.8665 166.072 74.2951Z" fill="#DFF4DF"/>
<path fill-rule="evenodd" clip-rule="evenodd" d="M46.9139 128.152C46.9139 128.243 46.9139 128.326 46.9221 128.417C43.9092 125.76 41.1198 122.846 38.5795 119.726C38.3138 119.395 38.049 119.064 37.7841 118.724V115.968C38.0407 116.324 38.3064 116.68 38.5795 117.036C41.0867 120.322 43.8761 123.384 46.9139 126.182V128.152Z" fill="#95D898"/>
<path fill-rule="evenodd" clip-rule="evenodd" d="M152.25 115.057V117.864C151.986 118.203 151.728 118.534 151.463 118.873C149.046 121.944 146.39 124.816 143.509 127.449V125.189C146.406 122.399 149.071 119.37 151.463 116.134C151.728 115.777 151.993 115.421 152.25 115.057Z" fill="#95D898"/>
<path fill-rule="evenodd" clip-rule="evenodd" d="M152.251 30.7208V33.535C151.993 33.1708 151.729 32.8149 151.464 32.4598C149.627 29.9592 147.615 27.5837 145.463 25.3488C145.215 25.084 144.957 24.8274 144.702 24.5633H147.011C147.259 24.8274 147.499 25.084 147.739 25.3488C149.039 26.7477 150.289 28.2045 151.464 29.7109C151.729 30.0503 151.986 30.3814 152.251 30.7208Z" fill="#95D898"/>
<path fill-rule="evenodd" clip-rule="evenodd" d="M152.251 24.563V30.7204C151.986 30.3811 151.729 30.0508 151.464 29.7114C150.289 28.2041 149.039 26.7482 147.739 25.3485C147.499 25.0845 147.259 24.827 147.011 24.563H152.251Z" fill="white"/>
<path fill-rule="evenodd" clip-rule="evenodd" d="M151.464 32.4595C151.729 32.8154 151.994 33.1705 152.25 33.5355V115.058C151.994 115.421 151.729 115.777 151.464 116.134C143.03 127.557 131.235 136.355 117.552 141.048C116.75 141.329 115.938 141.595 115.119 141.842H74.2458C73.4263 141.595 72.6152 141.329 71.8131 141.048C58.4942 136.479 46.9557 128.019 38.5792 117.036C38.306 116.68 38.0412 116.324 37.7846 115.968V24.563H144.702C144.958 24.827 145.215 25.0845 145.463 25.3485C147.616 27.5833 149.626 29.9589 151.464 32.4595Z" fill="white"/>
<path fill-rule="evenodd" clip-rule="evenodd" d="M152.251 30.7208C151.986 30.3814 151.729 30.0503 151.464 29.7109V118.873C151.729 118.534 151.986 118.203 152.251 117.863C152.515 117.508 152.78 117.152 153.045 116.787V31.7968C152.78 31.4326 152.515 31.0767 152.251 30.7208ZM36.9901 30.8946V117.69C37.255 118.037 37.5199 118.385 37.7847 118.724C38.0496 119.064 38.3145 119.395 38.5794 119.726V28.8584C38.3145 29.1895 38.0496 29.5206 37.7847 29.8599C37.5199 30.1993 37.255 30.5469 36.9901 30.8946ZM147.011 24.5633C146.754 24.2976 146.498 24.0328 146.232 23.7687H43.1318C42.867 24.0328 42.6104 24.2976 42.3529 24.5633C42.1055 24.8274 41.8654 25.084 41.6254 25.3488H147.739C147.499 25.084 147.259 24.8274 147.011 24.5633ZM67.1275 141.048C67.7897 141.321 68.4601 141.586 69.1306 141.843C69.859 142.116 70.5957 142.381 71.3323 142.637H118.032C118.769 142.381 119.505 142.116 120.234 141.843C120.905 141.586 121.574 141.321 122.237 141.048H67.1275Z" fill="#95D898"/>
<path fill-rule="evenodd" clip-rule="evenodd" d="M57.3267 134.128H54.3063C53.2543 133.424 52.237 132.697 51.2264 131.935H54.0332C55.1076 132.697 56.2084 133.433 57.3267 134.128Z" fill="#95D898"/>
<path fill-rule="evenodd" clip-rule="evenodd" d="M138.153 131.935C137.144 132.696 136.118 133.433 135.074 134.128H132.046C133.163 133.433 134.264 132.696 135.34 131.935H138.153Z" fill="#95D898"/>
<path fill-rule="evenodd" clip-rule="evenodd" d="M108.546 145.178C104.06 146.048 99.4246 146.51 94.6817 146.51C89.9389 146.51 85.3036 146.048 80.8174 145.178H108.546Z" fill="#95D898"/>
<path fill-rule="evenodd" clip-rule="evenodd" d="M153.045 31.7967C152.781 31.4333 152.515 31.0774 152.25 30.7207V33.5358C152.515 33.9082 152.781 34.289 153.045 34.6772C160.743 45.9764 165.246 59.6165 165.246 74.2928C165.246 88.9675 160.743 102.609 153.045 113.907C152.781 114.296 152.515 114.677 152.25 115.058V117.863C152.515 117.508 152.781 117.151 153.045 116.788C161.761 104.861 166.901 90.1603 166.901 74.2928C166.901 58.4246 161.761 43.7242 153.045 31.7967Z" fill="#95D898"/>
<path fill-rule="evenodd" clip-rule="evenodd" d="M94.6826 2.07384C74.511 2.07384 56.2431 10.3842 43.132 23.7685C42.8663 24.0325 42.6105 24.2982 42.3539 24.5631C42.1048 24.8271 41.8656 25.0845 41.6247 25.3486C40.5661 26.4826 39.5554 27.6497 38.5795 28.8581C38.3138 29.19 38.0498 29.5203 37.7849 29.8597C37.52 30.199 37.2552 30.5467 36.9903 30.8943C27.8688 42.9799 22.4638 58.0196 22.4638 74.2927C22.4638 90.5649 27.8688 105.605 36.9903 117.69C37.2552 118.038 37.52 118.385 37.7849 118.725V115.969C37.5118 115.603 37.2469 115.24 36.9903 114.875C28.8869 103.395 24.1192 89.3895 24.1192 74.2927C24.1192 59.2033 28.8786 45.1982 36.9903 33.7169C37.2469 33.3444 37.5118 32.981 37.7849 32.616C38.0407 32.2609 38.3064 31.905 38.5795 31.5482C40.235 29.3796 42.0146 27.3103 43.901 25.3486C44.1501 25.0845 44.4067 24.8271 44.6625 24.5631C44.9356 24.2982 45.2088 24.0325 45.4827 23.7685C58.1966 11.3683 75.5613 3.72929 94.6826 3.72929C113.803 3.72929 131.169 11.3683 143.882 23.7685C144.156 24.0325 144.429 24.2982 144.702 24.5631H147.011C146.755 24.2982 146.498 24.0325 146.233 23.7685C133.122 10.3842 114.854 2.07384 94.6826 2.07384Z" fill="#95D898"/>
<path fill-rule="evenodd" clip-rule="evenodd" d="M43.2748 29.282C43.2748 29.897 42.7757 30.3961 42.1607 30.3961C41.5457 30.3961 41.0482 29.897 41.0482 29.282C41.0482 28.667 41.5457 28.1679 42.1607 28.1679C42.7757 28.1679 43.2748 28.667 43.2748 29.282Z" fill="#95D898"/>
<path fill-rule="evenodd" clip-rule="evenodd" d="M46.1638 29.282C46.1638 29.897 45.6647 30.3961 45.0497 30.3961C44.4347 30.3961 43.9364 29.897 43.9364 29.282C43.9364 28.667 44.4347 28.1679 45.0497 28.1679C45.6647 28.1679 46.1638 28.667 46.1638 29.282Z" fill="#95D898"/>
<path fill-rule="evenodd" clip-rule="evenodd" d="M48.9727 29.282C48.9727 29.897 48.4735 30.3961 47.8585 30.3961C47.2435 30.3961 46.7453 29.897 46.7453 29.282C46.7453 28.667 47.2435 28.1679 47.8585 28.1679C48.4735 28.1679 48.9727 28.667 48.9727 29.282Z" fill="#95D898"/>
<path fill-rule="evenodd" clip-rule="evenodd" d="M153.001 33.1595H38.5655V32.2316H152.215C152.485 32.5329 152.739 32.8416 153.001 33.1595Z" fill="#95D898"/>
<mask id="mask0" mask-type="alpha" maskUnits="userSpaceOnUse" x="7" y="2" width="160" height="145">
<path fill-rule="evenodd" clip-rule="evenodd" d="M7.00198 146.511H166.901V2.07327H7.00198V146.511Z" fill="white"/>
</mask>
<g mask="url(#mask0)">
<path fill-rule="evenodd" clip-rule="evenodd" d="M38.5631 40.2644H153.045V39.3373H38.5631V40.2644Z" fill="#95D898"/>
<path fill-rule="evenodd" clip-rule="evenodd" d="M77.4361 99.8057H12.291C10.0562 99.8057 8.24348 97.9938 8.24348 95.7573V55.2188C8.24348 52.9831 10.0562 51.1704 12.291 51.1704H77.4361C79.6718 51.1704 81.4845 52.9831 81.4845 55.2188V95.7573C81.4845 97.9938 79.6718 99.8057 77.4361 99.8057Z" fill="white"/>
<path fill-rule="evenodd" clip-rule="evenodd" d="M77.4361 99.8057H12.291C10.0562 99.8057 8.24348 97.9938 8.24348 95.7573V55.2188C8.24348 52.9831 10.0562 51.1704 12.291 51.1704H77.4361C79.6718 51.1704 81.4845 52.9831 81.4845 55.2188V95.7573C81.4845 97.9938 79.6718 99.8057 77.4361 99.8057Z" stroke="#41AF4B" stroke-width="2.48317"/>
<path fill-rule="evenodd" clip-rule="evenodd" d="M9.52902 68.0452H80.2016V58.13H9.52902V68.0452Z" fill="#95D898"/>
<path fill-rule="evenodd" clip-rule="evenodd" d="M53.6528 77.0352H13.1524C12.0647 77.0352 11.1824 76.1537 11.1824 75.0653V72.5001C11.1824 71.4125 12.0647 70.5302 13.1524 70.5302H53.6528C54.7405 70.5302 55.6228 71.4125 55.6228 72.5001V75.0653C55.6228 76.1537 54.7405 77.0352 53.6528 77.0352Z" fill="#DFF4DF"/>
<path fill-rule="evenodd" clip-rule="evenodd" d="M75.0831 77.0352H58.7248C58.0146 77.0352 57.4394 76.46 57.4394 75.749V71.8156C57.4394 71.1063 58.0146 70.5302 58.7248 70.5302H75.0831C75.7933 70.5302 76.3694 71.1063 76.3694 71.8156V75.749C76.3694 76.46 75.7933 77.0352 75.0831 77.0352Z" fill="#DFF4DF"/>
</g>
<path d="M10.0304 14.8461H8.53658V17.4178H5.97339V14.8461H0.677256V13.0214L6.11767 5.00926H8.53658V12.8092H10.0304V14.8461ZM5.97339 12.8092V10.7043C5.97339 10.3535 5.98753 9.84424 6.01583 9.17657C6.04412 8.50889 6.06675 8.1213 6.08373 8.01379H6.01583C5.80647 8.47777 5.55468 8.93043 5.26045 9.37178L2.98583 12.8092H5.97339ZM11.5751 16.2041C11.5751 15.7288 11.7024 15.3695 11.957 15.1262C12.2116 14.8829 12.5822 14.7613 13.0688 14.7613C13.5385 14.7613 13.9006 14.8858 14.1552 15.1347C14.4155 15.3837 14.5457 15.7401 14.5457 16.2041C14.5457 16.6511 14.4155 17.0048 14.1552 17.2651C13.895 17.5197 13.5328 17.647 13.0688 17.647C12.5936 17.647 12.2258 17.5225 11.9655 17.2735C11.7052 17.0189 11.5751 16.6624 11.5751 16.2041Z" fill="#41AF4B"/>
<path d="M90.5018 65.8607H89.6247V62.4544H88.5016V61.7245H91.6249V62.4544H90.5018V65.8607ZM92.8629 64.2736C92.8629 64.5867 92.9138 64.8234 93.0156 64.9837C93.1194 65.144 93.2872 65.2242 93.5192 65.2242C93.7493 65.2242 93.9144 65.1449 94.0143 64.9865C94.1162 64.8262 94.1671 64.5886 94.1671 64.2736C94.1671 63.9605 94.1162 63.7257 94.0143 63.5691C93.9125 63.4126 93.7456 63.3343 93.5136 63.3343C93.2835 63.3343 93.1175 63.4126 93.0156 63.5691C92.9138 63.7238 92.8629 63.9586 92.8629 64.2736ZM95.0498 64.2736C95.0498 64.7885 94.914 65.1912 94.6424 65.4816C94.3708 65.7721 93.9926 65.9173 93.5079 65.9173C93.2043 65.9173 92.9364 65.8513 92.7044 65.7193C92.4724 65.5853 92.2942 65.3939 92.1697 65.1449C92.0452 64.896 91.983 64.6055 91.983 64.2736C91.983 63.7568 92.1179 63.3551 92.3876 63.0684C92.6573 62.7817 93.0364 62.6383 93.5249 62.6383C93.8285 62.6383 94.0964 62.7044 94.3284 62.8364C94.5603 62.9684 94.7386 63.158 94.8631 63.405C94.9875 63.6521 95.0498 63.9416 95.0498 64.2736ZM97.4816 65.9173C97.11 65.9173 96.8186 65.7824 96.6074 65.5127H96.5621C96.5923 65.7768 96.6074 65.9296 96.6074 65.9711V67.2527H95.7445V62.6977H96.4461L96.5678 63.108H96.6074C96.8092 62.7949 97.1082 62.6383 97.5042 62.6383C97.8777 62.6383 98.17 62.7826 98.3813 63.0712C98.5925 63.3598 98.6981 63.7606 98.6981 64.2736C98.6981 64.6112 98.6481 64.9045 98.5482 65.1534C98.4501 65.4024 98.3096 65.592 98.1266 65.7221C97.9437 65.8522 97.7287 65.9173 97.4816 65.9173ZM97.227 63.3286C97.0139 63.3286 96.8583 63.3947 96.7602 63.5267C96.6621 63.6568 96.6112 63.8728 96.6074 64.1746V64.2679C96.6074 64.6074 96.6574 64.8507 96.7573 64.9978C96.8592 65.1449 97.0195 65.2185 97.2383 65.2185C97.6249 65.2185 97.8183 64.8998 97.8183 64.2623C97.8183 63.9511 97.7702 63.7181 97.674 63.5635C97.5797 63.4069 97.4307 63.3286 97.227 63.3286ZM101.634 65.8607L101.518 65.4562H101.472C101.38 65.6033 101.249 65.7174 101.079 65.7985C100.909 65.8777 100.716 65.9173 100.499 65.9173C100.127 65.9173 99.8474 65.8183 99.6588 65.6202C99.4702 65.4203 99.3759 65.1336 99.3759 64.7602V62.6977H100.239V64.5452C100.239 64.7734 100.279 64.945 100.36 65.0601C100.442 65.1732 100.571 65.2298 100.748 65.2298C100.989 65.2298 101.164 65.1497 101.271 64.9893C101.379 64.8271 101.433 64.5593 101.433 64.1859V62.6977H102.296V65.8607H101.634ZM104.92 65.9173C104.548 65.9173 104.257 65.7824 104.046 65.5127H104C104.03 65.7768 104.046 65.9296 104.046 65.9711V67.2527H103.183V62.6977H103.884L104.006 63.108H104.046C104.247 62.7949 104.546 62.6383 104.942 62.6383C105.316 62.6383 105.608 62.7826 105.819 63.0712C106.031 63.3598 106.136 63.7606 106.136 64.2736C106.136 64.6112 106.086 64.9045 105.986 65.1534C105.888 65.4024 105.748 65.592 105.565 65.7221C105.382 65.8522 105.167 65.9173 104.92 65.9173ZM104.665 63.3286C104.452 63.3286 104.296 63.3947 104.198 63.5267C104.1 63.6568 104.049 63.8728 104.046 64.1746V64.2679C104.046 64.6074 104.096 64.8507 104.195 64.9978C104.297 65.1449 104.458 65.2185 104.676 65.2185C105.063 65.2185 105.256 64.8998 105.256 64.2623C105.256 63.9511 105.208 63.7181 105.112 63.5635C105.018 63.4069 104.869 63.3286 104.665 63.3286ZM110.525 64.9214C110.525 65.2459 110.411 65.4929 110.185 65.6627C109.961 65.8324 109.624 65.9173 109.175 65.9173C108.945 65.9173 108.749 65.9013 108.587 65.8692C108.424 65.839 108.273 65.7938 108.131 65.7334V65.0205C108.291 65.0959 108.472 65.1591 108.672 65.21C108.873 65.2609 109.051 65.2864 109.203 65.2864C109.516 65.2864 109.673 65.1959 109.673 65.0148C109.673 64.9469 109.652 64.8922 109.611 64.8507C109.569 64.8073 109.498 64.7592 109.396 64.7064C109.294 64.6517 109.158 64.5886 108.988 64.5169C108.745 64.415 108.566 64.3207 108.451 64.234C108.338 64.1472 108.255 64.0482 108.202 63.9369C108.151 63.8237 108.126 63.6851 108.126 63.521C108.126 63.24 108.234 63.0231 108.451 62.8703C108.67 62.7157 108.979 62.6383 109.379 62.6383C109.76 62.6383 110.13 62.7213 110.491 62.8873L110.23 63.5097C110.072 63.4418 109.924 63.3862 109.786 63.3428C109.649 63.2994 109.508 63.2777 109.365 63.2777C109.11 63.2777 108.983 63.3466 108.983 63.4842C108.983 63.5616 109.023 63.6285 109.104 63.6851C109.187 63.7417 109.367 63.8256 109.645 63.9369C109.892 64.0369 110.073 64.1302 110.188 64.217C110.303 64.3038 110.388 64.4037 110.443 64.5169C110.497 64.63 110.525 64.7649 110.525 64.9214ZM113.42 65.8607L113.304 65.4562H113.259C113.167 65.6033 113.036 65.7174 112.866 65.7985C112.696 65.8777 112.503 65.9173 112.286 65.9173C111.914 65.9173 111.634 65.8183 111.446 65.6202C111.257 65.4203 111.163 65.1336 111.163 64.7602V62.6977H112.026V64.5452C112.026 64.7734 112.066 64.945 112.147 65.0601C112.228 65.1732 112.358 65.2298 112.535 65.2298C112.776 65.2298 112.951 65.1497 113.058 64.9893C113.166 64.8271 113.22 64.5593 113.22 64.1859V62.6977H114.082V65.8607H113.42ZM116.254 65.9173C115.269 65.9173 114.777 65.3769 114.777 64.2962C114.777 63.7587 114.911 63.3484 115.179 63.0655C115.447 62.7807 115.831 62.6383 116.33 62.6383C116.696 62.6383 117.024 62.71 117.315 62.8534L117.06 63.521C116.924 63.4663 116.798 63.422 116.681 63.3881C116.564 63.3522 116.447 63.3343 116.33 63.3343C115.881 63.3343 115.657 63.6531 115.657 64.2906C115.657 64.9092 115.881 65.2185 116.33 65.2185C116.496 65.2185 116.65 65.1968 116.791 65.1534C116.933 65.1082 117.074 65.0384 117.216 64.9441V65.6825C117.076 65.7711 116.935 65.8324 116.791 65.8664C116.65 65.9003 116.471 65.9173 116.254 65.9173ZM119.218 65.9173C118.233 65.9173 117.741 65.3769 117.741 64.2962C117.741 63.7587 117.875 63.3484 118.143 63.0655C118.41 62.7807 118.794 62.6383 119.294 62.6383C119.66 62.6383 119.988 62.71 120.279 62.8534L120.024 63.521C119.888 63.4663 119.762 63.422 119.645 63.3881C119.528 63.3522 119.411 63.3343 119.294 63.3343C118.845 63.3343 118.621 63.6531 118.621 64.2906C118.621 64.9092 118.845 65.2185 119.294 65.2185C119.46 65.2185 119.614 65.1968 119.755 65.1534C119.897 65.1082 120.038 65.0384 120.18 64.9441V65.6825C120.04 65.7711 119.899 65.8324 119.755 65.8664C119.614 65.9003 119.435 65.9173 119.218 65.9173ZM122.207 63.2523C122.024 63.2523 121.881 63.3107 121.777 63.4277C121.673 63.5427 121.614 63.7068 121.599 63.9199H122.809C122.806 63.7068 122.75 63.5427 122.642 63.4277C122.535 63.3107 122.39 63.2523 122.207 63.2523ZM122.328 65.9173C121.819 65.9173 121.421 65.7768 121.135 65.4958C120.848 65.2147 120.705 64.8168 120.705 64.3019C120.705 63.7719 120.837 63.3626 121.101 63.074C121.367 62.7836 121.733 62.6383 122.201 62.6383C122.648 62.6383 122.996 62.7656 123.245 63.0203C123.494 63.2749 123.619 63.6266 123.619 64.0755V64.4942H121.579C121.588 64.7394 121.661 64.9309 121.797 65.0686C121.932 65.2062 122.123 65.2751 122.368 65.2751C122.559 65.2751 122.739 65.2553 122.908 65.2157C123.078 65.1761 123.255 65.1129 123.44 65.0261V65.6938C123.289 65.7692 123.128 65.8249 122.957 65.8607C122.785 65.8984 122.576 65.9173 122.328 65.9173ZM126.509 64.9214C126.509 65.2459 126.396 65.4929 126.169 65.6627C125.945 65.8324 125.608 65.9173 125.159 65.9173C124.929 65.9173 124.733 65.9013 124.571 65.8692C124.409 65.839 124.257 65.7938 124.115 65.7334V65.0205C124.276 65.0959 124.456 65.1591 124.656 65.21C124.857 65.2609 125.035 65.2864 125.187 65.2864C125.501 65.2864 125.657 65.1959 125.657 65.0148C125.657 64.9469 125.636 64.8922 125.595 64.8507C125.553 64.8073 125.482 64.7592 125.38 64.7064C125.278 64.6517 125.142 64.5886 124.972 64.5169C124.729 64.415 124.55 64.3207 124.435 64.234C124.322 64.1472 124.239 64.0482 124.186 63.9369C124.135 63.8237 124.11 63.6851 124.11 63.521C124.11 63.24 124.218 63.0231 124.435 62.8703C124.654 62.7157 124.963 62.6383 125.363 62.6383C125.744 62.6383 126.114 62.7213 126.475 62.8873L126.214 63.5097C126.056 63.4418 125.908 63.3862 125.77 63.3428C125.633 63.2994 125.492 63.2777 125.349 63.2777C125.094 63.2777 124.967 63.3466 124.967 63.4842C124.967 63.5616 125.007 63.6285 125.088 63.6851C125.171 63.7417 125.352 63.8256 125.629 63.9369C125.876 64.0369 126.057 64.1302 126.172 64.217C126.287 64.3038 126.372 64.4037 126.427 64.5169C126.481 64.63 126.509 64.7649 126.509 64.9214ZM129.371 64.9214C129.371 65.2459 129.257 65.4929 129.031 65.6627C128.807 65.8324 128.47 65.9173 128.021 65.9173C127.791 65.9173 127.595 65.9013 127.433 65.8692C127.27 65.839 127.119 65.7938 126.977 65.7334V65.0205C127.137 65.0959 127.318 65.1591 127.517 65.21C127.719 65.2609 127.897 65.2864 128.049 65.2864C128.362 65.2864 128.519 65.1959 128.519 65.0148C128.519 64.9469 128.498 64.8922 128.457 64.8507C128.415 64.8073 128.344 64.7592 128.242 64.7064C128.14 64.6517 128.004 64.5886 127.834 64.5169C127.591 64.415 127.412 64.3207 127.297 64.234C127.184 64.1472 127.101 64.0482 127.048 63.9369C126.997 63.8237 126.971 63.6851 126.971 63.521C126.971 63.24 127.08 63.0231 127.297 62.8703C127.516 62.7157 127.825 62.6383 128.225 62.6383C128.606 62.6383 128.976 62.7213 129.337 62.8873L129.076 63.5097C128.918 63.4418 128.77 63.3862 128.632 63.3428C128.494 63.2994 128.354 63.2777 128.211 63.2777C127.956 63.2777 127.829 63.3466 127.829 63.4842C127.829 63.5616 127.869 63.6285 127.95 63.6851C128.033 63.7417 128.213 63.8256 128.491 63.9369C128.738 64.0369 128.919 64.1302 129.034 64.217C129.149 64.3038 129.234 64.4037 129.288 64.5169C129.343 64.63 129.371 64.7649 129.371 64.9214ZM131.774 63.3456H131.027V65.8607H130.164V63.3456H129.689V62.9297L130.164 62.6977V62.4658C130.164 62.1055 130.253 61.8424 130.43 61.6764C130.608 61.5105 130.891 61.4275 131.282 61.4275C131.58 61.4275 131.845 61.4718 132.077 61.5604L131.856 62.1942C131.683 62.1395 131.522 62.1121 131.375 62.1121C131.253 62.1121 131.164 62.1489 131.109 62.2225C131.055 62.2941 131.027 62.3865 131.027 62.4997V62.6977H131.774V63.3456ZM134.494 65.8607L134.378 65.4562H134.333C134.241 65.6033 134.11 65.7174 133.94 65.7985C133.77 65.8777 133.577 65.9173 133.36 65.9173C132.988 65.9173 132.708 65.8183 132.52 65.6202C132.331 65.4203 132.237 65.1336 132.237 64.7602V62.6977H133.1V64.5452C133.1 64.7734 133.14 64.945 133.221 65.0601C133.302 65.1732 133.432 65.2298 133.609 65.2298C133.85 65.2298 134.025 65.1497 134.132 64.9893C134.24 64.8271 134.294 64.5593 134.294 64.1859V62.6977H135.156V65.8607H134.494ZM136.906 65.8607H136.044V61.4586H136.906V65.8607Z" fill="#3B933F"/>
<path d="M91.0531 74.4312L90.699 73.4467H89.3435L88.9967 74.4312H88.3856L89.712 70.8714H90.3425L91.669 74.4312H91.0531ZM90.5462 72.9471L90.214 71.982C90.1898 71.9173 90.1558 71.8155 90.1122 71.6764C90.0701 71.5374 90.041 71.4356 90.0249 71.3709C89.9812 71.5697 89.9174 71.7872 89.8333 72.0232L89.5132 72.9471H90.5462ZM93.9497 74.4312L93.8696 74.0796H93.8405C93.7613 74.2041 93.6482 74.3019 93.501 74.373C93.3555 74.4441 93.189 74.4797 93.0015 74.4797C92.6765 74.4797 92.4341 74.3989 92.274 74.2372C92.114 74.0756 92.0339 73.8306 92.0339 73.5025V71.7492H92.6087V73.403C92.6087 73.6083 92.6507 73.7627 92.7347 73.8662C92.8188 73.968 92.9506 74.019 93.13 74.019C93.3693 74.019 93.5447 73.9478 93.6562 73.8056C93.7694 73.6617 93.826 73.4216 93.826 73.0854V71.7492H94.3983V74.4312H93.9497ZM96.1915 74.019C96.3306 74.019 96.4696 73.9971 96.6086 73.9535V74.3827C96.5456 74.4102 96.4639 74.4328 96.3637 74.4506C96.2651 74.47 96.1624 74.4797 96.0557 74.4797C95.5158 74.4797 95.2458 74.1952 95.2458 73.6261V72.1808H94.8796V71.9286L95.2725 71.7201L95.4665 71.1527H95.8181V71.7492H96.5819V72.1808H95.8181V73.6164C95.8181 73.7538 95.852 73.8557 95.9199 73.922C95.9894 73.9866 96.08 74.019 96.1915 74.019ZM99.5076 73.0854C99.5076 73.5235 99.3953 73.8654 99.1706 74.1111C98.9459 74.3568 98.633 74.4797 98.2321 74.4797C97.9815 74.4797 97.76 74.4231 97.5677 74.31C97.3753 74.1968 97.2274 74.0343 97.1239 73.8225C97.0204 73.6108 96.9687 73.365 96.9687 73.0854C96.9687 72.6505 97.0802 72.311 97.3033 72.0669C97.5264 71.8228 97.8409 71.7007 98.2467 71.7007C98.6347 71.7007 98.9418 71.826 99.1681 72.0766C99.3945 72.3255 99.5076 72.6618 99.5076 73.0854ZM97.5555 73.0854C97.5555 73.7045 97.7843 74.0141 98.2418 74.0141C98.6945 74.0141 98.9208 73.7045 98.9208 73.0854C98.9208 72.4726 98.6929 72.1663 98.237 72.1663C97.9977 72.1663 97.8239 72.2455 97.7156 72.4039C97.6089 72.5624 97.5555 72.7895 97.5555 73.0854ZM102.407 74.4312H101.834V72.7774C101.834 72.5721 101.796 72.4193 101.718 72.3191C101.64 72.2172 101.519 72.1663 101.354 72.1663C101.134 72.1663 100.973 72.2382 100.869 72.3821C100.767 72.5244 100.716 72.762 100.716 73.0951V74.4312H100.147V71.7492H100.593L100.673 72.1008H100.702C100.776 71.9731 100.884 71.8745 101.024 71.805C101.167 71.7355 101.323 71.7007 101.492 71.7007C101.905 71.7007 102.178 71.8413 102.312 72.1226H102.351C102.43 71.9901 102.542 71.8866 102.686 71.8122C102.829 71.7379 102.994 71.7007 103.18 71.7007C103.5 71.7007 103.733 71.7815 103.879 71.9432C104.026 72.1049 104.099 72.3514 104.099 72.6828V74.4312H103.529V72.7774C103.529 72.5721 103.49 72.4193 103.411 72.3191C103.333 72.2172 103.212 72.1663 103.047 72.1663C102.825 72.1663 102.663 72.2358 102.559 72.3748C102.458 72.5123 102.407 72.724 102.407 73.0102V74.4312ZM106.555 74.4312L106.441 74.0578H106.421C106.292 74.221 106.162 74.3326 106.031 74.3924C105.9 74.4506 105.732 74.4797 105.526 74.4797C105.263 74.4797 105.057 74.4086 104.908 74.2663C104.761 74.1241 104.687 73.9228 104.687 73.6625C104.687 73.3861 104.79 73.1775 104.995 73.0369C105.201 72.8962 105.513 72.8194 105.934 72.8065L106.397 72.7919V72.6489C106.397 72.4775 106.357 72.3498 106.276 72.2657C106.196 72.18 106.073 72.1372 105.905 72.1372C105.767 72.1372 105.635 72.1574 105.509 72.1978C105.383 72.2382 105.262 72.2859 105.146 72.3409L104.961 71.9335C105.107 71.8575 105.266 71.8001 105.439 71.7613C105.612 71.7209 105.775 71.7007 105.929 71.7007C106.27 71.7007 106.527 71.7751 106.7 71.9238C106.875 72.0725 106.962 72.3061 106.962 72.6246V74.4312H106.555ZM105.706 74.0432C105.913 74.0432 106.078 73.9858 106.203 73.871C106.329 73.7546 106.392 73.5922 106.392 73.3836V73.1508L106.048 73.1654C105.779 73.1751 105.584 73.2203 105.461 73.3012C105.34 73.3804 105.279 73.5025 105.279 73.6673C105.279 73.787 105.315 73.8799 105.386 73.9462C105.457 74.0109 105.564 74.0432 105.706 74.0432ZM108.738 74.019C108.877 74.019 109.016 73.9971 109.155 73.9535V74.3827C109.092 74.4102 109.011 74.4328 108.91 74.4506C108.812 74.47 108.709 74.4797 108.602 74.4797C108.062 74.4797 107.792 74.1952 107.792 73.6261V72.1808H107.426V71.9286L107.819 71.7201L108.013 71.1527H108.365V71.7492H109.129V72.1808H108.365V73.6164C108.365 73.7538 108.399 73.8557 108.467 73.922C108.536 73.9866 108.627 74.019 108.738 74.019ZM110.245 74.4312H109.675V71.7492H110.245V74.4312ZM109.641 71.0387C109.641 70.9368 109.669 70.8584 109.724 70.8035C109.781 70.7485 109.861 70.721 109.964 70.721C110.064 70.721 110.142 70.7485 110.197 70.8035C110.253 70.8584 110.282 70.9368 110.282 71.0387C110.282 71.1357 110.253 71.2125 110.197 71.2691C110.142 71.324 110.064 71.3515 109.964 71.3515C109.861 71.3515 109.781 71.324 109.724 71.2691C109.669 71.2125 109.641 71.1357 109.641 71.0387ZM112.126 74.4797C111.72 74.4797 111.411 74.3617 111.2 74.1257C110.989 73.888 110.884 73.5477 110.884 73.1048C110.884 72.6537 110.994 72.3069 111.214 72.0644C111.436 71.8219 111.755 71.7007 112.172 71.7007C112.455 71.7007 112.709 71.7532 112.936 71.8583L112.764 72.3166C112.523 72.2229 112.324 72.176 112.167 72.176C111.703 72.176 111.471 72.484 111.471 73.0999C111.471 73.4006 111.529 73.6269 111.643 73.7789C111.76 73.9292 111.929 74.0044 112.153 74.0044C112.406 74.0044 112.646 73.9414 112.873 73.8153V74.3124C112.771 74.3722 112.662 74.415 112.545 74.4409C112.431 74.4668 112.291 74.4797 112.126 74.4797ZM116.117 74.4797C115.778 74.4797 115.514 74.3577 115.327 74.1135H115.293C115.315 74.3399 115.327 74.4773 115.327 74.5258V75.6243H114.757V71.7492H115.218C115.231 71.7993 115.257 71.9189 115.298 72.1081H115.327C115.505 71.8365 115.771 71.7007 116.127 71.7007C116.462 71.7007 116.722 71.8219 116.908 72.0644C117.095 72.3069 117.189 72.6472 117.189 73.0854C117.189 73.5235 117.094 73.8654 116.903 74.1111C116.714 74.3568 116.452 74.4797 116.117 74.4797ZM115.979 72.1663C115.753 72.1663 115.587 72.2326 115.482 72.3651C115.379 72.4977 115.327 72.7095 115.327 73.0005V73.0854C115.327 73.4119 115.379 73.6488 115.482 73.7959C115.585 73.9414 115.754 74.0141 115.989 74.0141C116.186 74.0141 116.338 73.9333 116.445 73.7716C116.551 73.61 116.605 73.3796 116.605 73.0805C116.605 72.7798 116.551 72.5527 116.445 72.3991C116.34 72.2439 116.184 72.1663 115.979 72.1663ZM119.511 74.4312L119.397 74.0578H119.378C119.248 74.221 119.118 74.3326 118.987 74.3924C118.856 74.4506 118.688 74.4797 118.483 74.4797C118.219 74.4797 118.013 74.4086 117.864 74.2663C117.717 74.1241 117.644 73.9228 117.644 73.6625C117.644 73.3861 117.746 73.1775 117.952 73.0369C118.157 72.8962 118.47 72.8194 118.89 72.8065L119.353 72.7919V72.6489C119.353 72.4775 119.313 72.3498 119.232 72.2657C119.153 72.18 119.029 72.1372 118.861 72.1372C118.724 72.1372 118.592 72.1574 118.466 72.1978C118.34 72.2382 118.219 72.2859 118.102 72.3409L117.918 71.9335C118.063 71.8575 118.223 71.8001 118.396 71.7613C118.569 71.7209 118.732 71.7007 118.885 71.7007C119.227 71.7007 119.484 71.7751 119.657 71.9238C119.831 72.0725 119.918 72.3061 119.918 72.6246V74.4312H119.511ZM118.662 74.0432C118.869 74.0432 119.035 73.9858 119.159 73.871C119.286 73.7546 119.349 73.5922 119.349 73.3836V73.1508L119.004 73.1654C118.736 73.1751 118.54 73.2203 118.417 73.3012C118.296 73.3804 118.235 73.5025 118.235 73.6673C118.235 73.787 118.271 73.8799 118.342 73.9462C118.413 74.0109 118.52 74.0432 118.662 74.0432ZM120.288 71.7492H120.909L121.455 73.2697C121.537 73.4863 121.592 73.69 121.62 73.8807H121.639C121.653 73.7918 121.68 73.6843 121.719 73.5582C121.758 73.4305 121.963 72.8275 122.335 71.7492H122.951L121.804 74.7877C121.595 75.3454 121.248 75.6243 120.761 75.6243C120.635 75.6243 120.512 75.6106 120.392 75.5831V75.132C120.478 75.1514 120.576 75.1611 120.686 75.1611C120.961 75.1611 121.154 75.0019 121.265 74.6834L121.365 74.4312L120.288 71.7492ZM125.6 74.4312H125.028V72.7774C125.028 72.5721 124.989 72.4193 124.911 72.3191C124.834 72.2172 124.713 72.1663 124.548 72.1663C124.328 72.1663 124.166 72.2382 124.063 72.3821C123.961 72.5244 123.91 72.762 123.91 73.0951V74.4312H123.34V71.7492H123.786L123.866 72.1008H123.895C123.97 71.9731 124.077 71.8745 124.218 71.805C124.36 71.7355 124.516 71.7007 124.686 71.7007C125.098 71.7007 125.371 71.8413 125.506 72.1226H125.544C125.624 71.9901 125.735 71.8866 125.879 71.8122C126.023 71.7379 126.188 71.7007 126.374 71.7007C126.694 71.7007 126.927 71.7815 127.072 71.9432C127.219 72.1049 127.293 72.3514 127.293 72.6828V74.4312H126.723V72.7774C126.723 72.5721 126.683 72.4193 126.604 72.3191C126.526 72.2172 126.405 72.1663 126.24 72.1663C126.019 72.1663 125.856 72.2358 125.753 72.3748C125.651 72.5123 125.6 72.724 125.6 73.0102V74.4312ZM129.241 74.4797C128.824 74.4797 128.497 74.3585 128.261 74.116C128.027 73.8719 127.91 73.5364 127.91 73.1096C127.91 72.6715 128.019 72.3271 128.237 72.0766C128.455 71.826 128.755 71.7007 129.137 71.7007C129.491 71.7007 129.771 71.8082 129.976 72.0232C130.181 72.2382 130.284 72.5341 130.284 72.9108V73.2187H128.497C128.505 73.479 128.575 73.6795 128.708 73.8201C128.84 73.9592 129.027 74.0287 129.268 74.0287C129.426 74.0287 129.573 74.0141 129.709 73.985C129.847 73.9543 129.994 73.9042 130.151 73.8347V74.2978C130.011 74.3641 129.871 74.411 129.729 74.4385C129.586 74.466 129.424 74.4797 129.241 74.4797ZM129.137 72.1323C128.956 72.1323 128.81 72.1897 128.7 72.3045C128.592 72.4193 128.527 72.5866 128.506 72.8065H129.724C129.72 72.585 129.667 72.4177 129.564 72.3045C129.46 72.1897 129.318 72.1323 129.137 72.1323ZM133.273 74.4312H132.7V72.7822C132.7 72.5753 132.658 72.4209 132.574 72.3191C132.492 72.2172 132.36 72.1663 132.179 72.1663C131.938 72.1663 131.762 72.2374 131.65 72.3797C131.539 72.522 131.483 72.7604 131.483 73.0951V74.4312H130.913V71.7492H131.359L131.439 72.1008H131.468C131.549 71.9731 131.664 71.8745 131.813 71.805C131.962 71.7355 132.126 71.7007 132.308 71.7007C132.951 71.7007 133.273 72.0281 133.273 72.6828V74.4312ZM135.046 74.019C135.186 74.019 135.325 73.9971 135.464 73.9535V74.3827C135.401 74.4102 135.319 74.4328 135.219 74.4506C135.12 74.47 135.017 74.4797 134.911 74.4797C134.371 74.4797 134.101 74.1952 134.101 73.6261V72.1808H133.735V71.9286L134.127 71.7201L134.321 71.1527H134.673V71.7492H135.437V72.1808H134.673V73.6164C134.673 73.7538 134.707 73.8557 134.775 73.922C134.844 73.9866 134.935 74.019 135.046 74.019ZM138.255 74.019C138.394 74.019 138.533 73.9971 138.672 73.9535V74.3827C138.609 74.4102 138.527 74.4328 138.427 74.4506C138.328 74.47 138.226 74.4797 138.119 74.4797C137.579 74.4797 137.309 74.1952 137.309 73.6261V72.1808H136.943V71.9286L137.336 71.7201L137.53 71.1527H137.881V71.7492H138.645V72.1808H137.881V73.6164C137.881 73.7538 137.915 73.8557 137.983 73.922C138.053 73.9866 138.143 74.019 138.255 74.019ZM141.571 73.0854C141.571 73.5235 141.458 73.8654 141.234 74.1111C141.009 74.3568 140.696 74.4797 140.295 74.4797C140.045 74.4797 139.823 74.4231 139.631 74.31C139.438 74.1968 139.291 74.0343 139.187 73.8225C139.084 73.6108 139.032 73.365 139.032 73.0854C139.032 72.6505 139.143 72.311 139.366 72.0669C139.59 71.8228 139.904 71.7007 140.31 71.7007C140.698 71.7007 141.005 71.826 141.231 72.0766C141.458 72.3255 141.571 72.6618 141.571 73.0854ZM139.619 73.0854C139.619 73.7045 139.847 74.0141 140.305 74.0141C140.758 74.0141 140.984 73.7045 140.984 73.0854C140.984 72.4726 140.756 72.1663 140.3 72.1663C140.061 72.1663 139.887 72.2455 139.779 72.4039C139.672 72.5624 139.619 72.7895 139.619 73.0854Z" fill="#41AF4B"/>
<path d="M90.3619 77.2917C90.0289 77.2917 89.767 77.4097 89.5762 77.6457C89.3855 77.8818 89.2901 78.2075 89.2901 78.623C89.2901 79.0579 89.3814 79.3869 89.5641 79.61C89.7484 79.833 90.0144 79.9446 90.3619 79.9446C90.5123 79.9446 90.6578 79.93 90.7984 79.9009C90.9391 79.8702 91.0854 79.8314 91.2374 79.7846V80.2817C90.9593 80.3868 90.644 80.4393 90.2916 80.4393C89.7727 80.4393 89.3742 80.2825 89.0961 79.9688C88.818 79.6536 88.679 79.2034 88.679 78.6181C88.679 78.2495 88.7461 77.927 88.8803 77.6506C89.0161 77.3741 89.2117 77.1624 89.4671 77.0152C89.7226 76.8681 90.0224 76.7946 90.3668 76.7946C90.7289 76.7946 91.0636 76.8705 91.3707 77.0225L91.1622 77.5051C91.0425 77.4485 90.9156 77.3992 90.7815 77.3572C90.6489 77.3135 90.5091 77.2917 90.3619 77.2917ZM93.6005 80.3908L93.4865 80.0173H93.4671C93.3378 80.1806 93.2076 80.2922 93.0767 80.352C92.9457 80.4102 92.7776 80.4393 92.5723 80.4393C92.3088 80.4393 92.1026 80.3682 91.9539 80.2259C91.8068 80.0836 91.7332 79.8824 91.7332 79.6221C91.7332 79.3456 91.8359 79.1371 92.0412 78.9964C92.2465 78.8558 92.5593 78.779 92.9797 78.7661L93.4428 78.7515V78.6084C93.4428 78.4371 93.4024 78.3094 93.3216 78.2253C93.2424 78.1396 93.1187 78.0968 92.9506 78.0968C92.8132 78.0968 92.6814 78.117 92.5553 78.1574C92.4292 78.1978 92.308 78.2455 92.1916 78.3005L92.0073 77.8931C92.1528 77.8171 92.312 77.7597 92.485 77.7209C92.658 77.6805 92.8212 77.6603 92.9748 77.6603C93.3159 77.6603 93.573 77.7346 93.746 77.8834C93.9206 78.0321 94.0079 78.2657 94.0079 78.5842V80.3908H93.6005ZM92.7517 80.0028C92.9587 80.0028 93.1244 79.9454 93.2488 79.8306C93.3749 79.7142 93.438 79.5518 93.438 79.3432V79.1104L93.0936 79.125C92.8253 79.1347 92.6297 79.1799 92.5068 79.2608C92.3856 79.34 92.3249 79.462 92.3249 79.6269C92.3249 79.7466 92.3605 79.8395 92.4316 79.9058C92.5028 79.9705 92.6095 80.0028 92.7517 80.0028ZM96.1454 77.6603C96.2602 77.6603 96.3548 77.6684 96.4292 77.6845L96.3734 78.2156C96.2926 78.1962 96.2085 78.1865 96.1212 78.1865C95.8932 78.1865 95.7081 78.2609 95.5659 78.4096C95.4252 78.5583 95.3549 78.7515 95.3549 78.9892V80.3908H94.785V77.7088H95.2312L95.3064 78.1816H95.3355C95.4244 78.0216 95.54 77.8947 95.6823 77.8009C95.8262 77.7072 95.9805 77.6603 96.1454 77.6603ZM98.2806 77.6603C98.6153 77.6603 98.8755 77.7815 99.0614 78.024C99.249 78.2665 99.3427 78.6068 99.3427 79.0449C99.3427 79.4847 99.2482 79.8274 99.059 80.0731C98.8699 80.3172 98.6072 80.4393 98.2709 80.4393C97.9314 80.4393 97.6679 80.3172 97.4804 80.0731H97.4416L97.3373 80.3908H96.9105V76.6175H97.4804V77.5148C97.4804 77.5811 97.4771 77.6797 97.4707 77.8106C97.4642 77.9416 97.4594 78.0248 97.4561 78.0604H97.4804C97.6614 77.7937 97.9282 77.6603 98.2806 77.6603ZM98.1327 78.1259C97.9031 78.1259 97.7374 78.1938 97.6356 78.3296C97.5353 78.4638 97.4836 78.6893 97.4804 79.0061V79.0449C97.4804 79.3715 97.5321 79.6083 97.6356 79.7555C97.739 79.9009 97.908 79.9737 98.1424 79.9737C98.3445 79.9737 98.4972 79.8937 98.6007 79.7336C98.7058 79.5736 98.7583 79.3424 98.7583 79.0401C98.7583 78.4306 98.5498 78.1259 98.1327 78.1259ZM102.365 79.0449C102.365 79.483 102.253 79.825 102.028 80.0707C101.804 80.3164 101.491 80.4393 101.09 80.4393C100.839 80.4393 100.618 80.3827 100.425 80.2695C100.233 80.1564 100.085 79.9939 99.9817 79.7821C99.8782 79.5703 99.8265 79.3246 99.8265 79.0449C99.8265 78.6101 99.9381 78.2706 100.161 78.0264C100.384 77.7823 100.699 77.6603 101.104 77.6603C101.492 77.6603 101.8 77.7856 102.026 78.0361C102.252 78.2851 102.365 78.6214 102.365 79.0449ZM100.413 79.0449C100.413 79.6641 100.642 79.9737 101.1 79.9737C101.552 79.9737 101.779 79.6641 101.779 79.0449C101.779 78.4322 101.551 78.1259 101.095 78.1259C100.855 78.1259 100.682 78.2051 100.573 78.3635C100.467 78.5219 100.413 78.7491 100.413 79.0449ZM105.364 80.3908H104.792V78.7418C104.792 78.5349 104.75 78.3805 104.666 78.2786C104.583 78.1768 104.451 78.1259 104.27 78.1259C104.029 78.1259 103.853 78.197 103.742 78.3393C103.63 78.4815 103.574 78.72 103.574 79.0546V80.3908H103.004V77.7088H103.451L103.531 78.0604H103.56C103.641 77.9327 103.755 77.8341 103.904 77.7646C104.053 77.695 104.218 77.6603 104.399 77.6603C105.042 77.6603 105.364 77.9876 105.364 78.6424V80.3908ZM107.708 77.2917C107.375 77.2917 107.113 77.4097 106.922 77.6457C106.731 77.8818 106.636 78.2075 106.636 78.623C106.636 79.0579 106.727 79.3869 106.91 79.61C107.094 79.833 107.36 79.9446 107.708 79.9446C107.858 79.9446 108.003 79.93 108.144 79.9009C108.285 79.8702 108.431 79.8314 108.583 79.7846V80.2817C108.305 80.3868 107.99 80.4393 107.637 80.4393C107.118 80.4393 106.72 80.2825 106.442 79.9688C106.164 79.6536 106.025 79.2034 106.025 78.6181C106.025 78.2495 106.092 77.927 106.226 77.6506C106.362 77.3741 106.557 77.1624 106.813 77.0152C107.068 76.8681 107.368 76.7946 107.712 76.7946C108.075 76.7946 108.409 76.8705 108.716 77.0225L108.508 77.5051C108.388 77.4485 108.261 77.3992 108.127 77.3572C107.995 77.3135 107.855 77.2917 107.708 77.2917ZM109.838 80.3908H109.268V76.6175H109.838V80.3908ZM111.207 80.3908H110.637V77.7088H111.207V80.3908ZM110.603 76.9983C110.603 76.8964 110.63 76.818 110.685 76.763C110.742 76.7081 110.822 76.6806 110.925 76.6806C111.026 76.6806 111.103 76.7081 111.158 76.763C111.215 76.818 111.243 76.8964 111.243 76.9983C111.243 77.0953 111.215 77.1721 111.158 77.2286C111.103 77.2836 111.026 77.3111 110.925 77.3111C110.822 77.3111 110.742 77.2836 110.685 77.2286C110.63 77.1721 110.603 77.0953 110.603 76.9983ZM113.087 80.4393C112.682 80.4393 112.373 80.3213 112.161 80.0852C111.951 79.8476 111.846 79.5073 111.846 79.0643C111.846 78.6133 111.956 78.2665 112.176 78.024C112.397 77.7815 112.716 77.6603 113.133 77.6603C113.416 77.6603 113.671 77.7128 113.897 77.8179L113.725 78.2762C113.484 78.1825 113.285 78.1356 113.129 78.1356C112.665 78.1356 112.433 78.4435 112.433 79.0595C112.433 79.3602 112.49 79.5865 112.605 79.7385C112.721 79.8888 112.891 79.964 113.114 79.964C113.368 79.964 113.608 79.9009 113.834 79.7749V80.272C113.732 80.3318 113.623 80.3746 113.507 80.4005C113.392 80.4264 113.252 80.4393 113.087 80.4393ZM114.997 78.9746L115.319 78.5721L116.129 77.7088H116.787L115.707 78.8606L116.855 80.3908H116.185L115.324 79.2147L115.012 79.4717V80.3908H114.447V76.6175H115.012V78.4581L114.982 78.9746H114.997ZM120.902 80.3908H120.329V78.7418C120.329 78.5349 120.287 78.3805 120.203 78.2786C120.121 78.1768 119.989 78.1259 119.808 78.1259C119.569 78.1259 119.393 78.1978 119.279 78.3417C119.168 78.484 119.112 78.7232 119.112 79.0595V80.3908H118.542V76.6175H119.112V77.5754C119.112 77.729 119.102 77.8931 119.083 78.0677H119.119C119.197 77.9383 119.304 77.8381 119.442 77.767C119.581 77.6958 119.743 77.6603 119.927 77.6603C120.577 77.6603 120.902 77.9876 120.902 78.6424V80.3908ZM123.355 80.3908L123.241 80.0173H123.221C123.092 80.1806 122.962 80.2922 122.831 80.352C122.7 80.4102 122.532 80.4393 122.326 80.4393C122.063 80.4393 121.857 80.3682 121.708 80.2259C121.561 80.0836 121.487 79.8824 121.487 79.6221C121.487 79.3456 121.59 79.1371 121.795 78.9964C122.001 78.8558 122.313 78.779 122.734 78.7661L123.197 78.7515V78.6084C123.197 78.4371 123.157 78.3094 123.076 78.2253C122.996 78.1396 122.873 78.0968 122.705 78.0968C122.567 78.0968 122.435 78.117 122.309 78.1574C122.183 78.1978 122.062 78.2455 121.946 78.3005L121.761 77.8931C121.907 77.8171 122.066 77.7597 122.239 77.7209C122.412 77.6805 122.575 77.6603 122.729 77.6603C123.07 77.6603 123.327 77.7346 123.5 77.8834C123.675 78.0321 123.762 78.2657 123.762 78.5842V80.3908H123.355ZM122.506 80.0028C122.713 80.0028 122.878 79.9454 123.003 79.8306C123.129 79.7142 123.192 79.5518 123.192 79.3432V79.1104L122.848 79.125C122.579 79.1347 122.384 79.1799 122.261 79.2608C122.14 79.34 122.079 79.462 122.079 79.6269C122.079 79.7466 122.115 79.8395 122.186 79.9058C122.257 79.9705 122.364 80.0028 122.506 80.0028ZM126.341 79.6269C126.341 79.8888 126.246 80.0901 126.055 80.2307C125.864 80.3698 125.591 80.4393 125.235 80.4393C124.878 80.4393 124.591 80.3851 124.374 80.2768V79.7846C124.689 79.93 124.983 80.0028 125.255 80.0028C125.605 80.0028 125.781 79.8969 125.781 79.6851C125.781 79.6172 125.761 79.5606 125.723 79.5154C125.684 79.4701 125.62 79.4232 125.531 79.3747C125.442 79.3262 125.318 79.2713 125.16 79.2098C124.851 79.0902 124.642 78.9706 124.532 78.8509C124.424 78.7313 124.369 78.5761 124.369 78.3853C124.369 78.1558 124.462 77.9779 124.646 77.8519C124.832 77.7241 125.084 77.6603 125.402 77.6603C125.718 77.6603 126.016 77.7241 126.297 77.8519L126.113 78.2811C125.824 78.1614 125.58 78.1016 125.383 78.1016C125.082 78.1016 124.932 78.1873 124.932 78.3587C124.932 78.4427 124.971 78.5139 125.048 78.5721C125.128 78.6303 125.299 78.7103 125.562 78.8121C125.784 78.8978 125.945 78.9762 126.045 79.0474C126.145 79.1185 126.22 79.2009 126.268 79.2947C126.317 79.3869 126.341 79.4976 126.341 79.6269ZM129.583 77.6603C129.918 77.6603 130.178 77.7815 130.364 78.024C130.551 78.2665 130.645 78.6068 130.645 79.0449C130.645 79.4847 130.551 79.8274 130.361 80.0731C130.172 80.3172 129.91 80.4393 129.573 80.4393C129.234 80.4393 128.97 80.3172 128.783 80.0731H128.744L128.64 80.3908H128.213V76.6175H128.783V77.5148C128.783 77.5811 128.78 77.6797 128.773 77.8106C128.767 77.9416 128.762 78.0248 128.759 78.0604H128.783C128.964 77.7937 129.231 77.6603 129.583 77.6603ZM129.435 78.1259C129.206 78.1259 129.04 78.1938 128.938 78.3296C128.838 78.4638 128.786 78.6893 128.783 79.0061V79.0449C128.783 79.3715 128.835 79.6083 128.938 79.7555C129.041 79.9009 129.21 79.9737 129.445 79.9737C129.647 79.9737 129.8 79.8937 129.903 79.7336C130.008 79.5736 130.061 79.3424 130.061 79.0401C130.061 78.4306 129.852 78.1259 129.435 78.1259ZM132.46 80.4393C132.043 80.4393 131.717 80.318 131.481 80.0755C131.246 79.8314 131.129 79.496 131.129 79.0692C131.129 78.6311 131.238 78.2867 131.456 78.0361C131.675 77.7856 131.974 77.6603 132.356 77.6603C132.71 77.6603 132.99 77.7678 133.195 77.9828C133.4 78.1978 133.503 78.4937 133.503 78.8703V79.1783H131.716C131.724 79.4386 131.794 79.6391 131.927 79.7797C132.059 79.9187 132.246 79.9882 132.487 79.9882C132.645 79.9882 132.792 79.9737 132.928 79.9446C133.066 79.9139 133.213 79.8638 133.37 79.7943V80.2574C133.231 80.3237 133.09 80.3706 132.948 80.3981C132.805 80.4256 132.643 80.4393 132.46 80.4393ZM132.356 78.0919C132.175 78.0919 132.029 78.1493 131.919 78.2641C131.811 78.3789 131.746 78.5462 131.725 78.7661H132.943C132.94 78.5446 132.886 78.3773 132.783 78.2641C132.679 78.1493 132.537 78.0919 132.356 78.0919ZM135.303 80.4393C134.886 80.4393 134.56 80.318 134.324 80.0755C134.089 79.8314 133.972 79.496 133.972 79.0692C133.972 78.6311 134.081 78.2867 134.3 78.0361C134.518 77.7856 134.818 77.6603 135.199 77.6603C135.553 77.6603 135.833 77.7678 136.038 77.9828C136.244 78.1978 136.346 78.4937 136.346 78.8703V79.1783H134.559C134.567 79.4386 134.637 79.6391 134.77 79.7797C134.903 79.9187 135.089 79.9882 135.33 79.9882C135.489 79.9882 135.636 79.9737 135.772 79.9446C135.909 79.9139 136.056 79.8638 136.213 79.7943V80.2574C136.074 80.3237 135.933 80.3706 135.791 80.3981C135.649 80.4256 135.486 80.4393 135.303 80.4393ZM135.199 78.0919C135.018 78.0919 134.873 78.1493 134.763 78.2641C134.654 78.3789 134.59 78.5462 134.569 78.7661H135.786C135.783 78.5446 135.729 78.3773 135.626 78.2641C135.523 78.1493 135.38 78.0919 135.199 78.0919ZM139.335 80.3908H138.763V78.7418C138.763 78.5349 138.721 78.3805 138.637 78.2786C138.554 78.1768 138.422 78.1259 138.241 78.1259C138 78.1259 137.824 78.197 137.713 78.3393C137.601 78.4815 137.545 78.72 137.545 79.0546V80.3908H136.975V77.7088H137.422L137.502 78.0604H137.531C137.612 77.9327 137.726 77.8341 137.875 77.7646C138.024 77.695 138.189 77.6603 138.37 77.6603C139.013 77.6603 139.335 77.9876 139.335 78.6424V80.3908ZM90.5947 86.6269C90.5947 86.8888 90.4994 87.0901 90.3086 87.2307C90.1178 87.3698 89.8446 87.4393 89.489 87.4393C89.1317 87.4393 88.8447 87.3851 88.6281 87.2768V86.7846C88.9433 86.93 89.2368 87.0028 89.5084 87.0028C89.8592 87.0028 90.0346 86.8969 90.0346 86.6851C90.0346 86.6172 90.0152 86.5606 89.9764 86.5154C89.9376 86.4701 89.8737 86.4232 89.7848 86.3747C89.6959 86.3262 89.5722 86.2713 89.4138 86.2098C89.105 86.0902 88.8956 85.9706 88.7857 85.8509C88.6774 85.7313 88.6232 85.5761 88.6232 85.3853C88.6232 85.1558 88.7154 84.9779 88.8997 84.8519C89.0856 84.7241 89.3378 84.6603 89.6563 84.6603C89.9715 84.6603 90.2698 84.7241 90.5511 84.8519L90.3668 85.2811C90.0774 85.1614 89.8341 85.1016 89.6369 85.1016C89.3362 85.1016 89.1858 85.1873 89.1858 85.3587C89.1858 85.4427 89.2246 85.5139 89.3022 85.5721C89.3814 85.6303 89.5528 85.7103 89.8163 85.8121C90.0378 85.8978 90.1987 85.9762 90.2989 86.0474C90.3991 86.1185 90.4735 86.2009 90.522 86.2947C90.5705 86.3869 90.5947 86.4976 90.5947 86.6269ZM93.0864 87.3908L93.0063 87.0392H92.9772C92.898 87.1637 92.7849 87.2615 92.6378 87.3326C92.4923 87.4037 92.3257 87.4393 92.1382 87.4393C91.8133 87.4393 91.5708 87.3585 91.4107 87.1968C91.2507 87.0351 91.1706 86.7902 91.1706 86.462V84.7088H91.7454V86.3626C91.7454 86.5679 91.7874 86.7223 91.8715 86.8258C91.9555 86.9276 92.0873 86.9785 92.2667 86.9785C92.506 86.9785 92.6814 86.9074 92.7929 86.7652C92.9061 86.6213 92.9627 86.3812 92.9627 86.0449V84.7088H93.535V87.3908H93.0864ZM95.4107 87.4393C95.0049 87.4393 94.6961 87.3213 94.4843 87.0852C94.2742 86.8476 94.1691 86.5073 94.1691 86.0643C94.1691 85.6133 94.279 85.2665 94.4989 85.024C94.7204 84.7815 95.0397 84.6603 95.4568 84.6603C95.7397 84.6603 95.9943 84.7128 96.2206 84.8179L96.0484 85.2762C95.8076 85.1825 95.6087 85.1356 95.4519 85.1356C94.9879 85.1356 94.7559 85.4435 94.7559 86.0595C94.7559 86.3602 94.8133 86.5865 94.9281 86.7385C95.0445 86.8888 95.2143 86.964 95.4374 86.964C95.6912 86.964 95.9312 86.9009 96.1576 86.7749V87.272C96.0557 87.3318 95.9466 87.3746 95.8302 87.4005C95.7154 87.4264 95.5756 87.4393 95.4107 87.4393ZM97.8514 87.4393C97.4456 87.4393 97.1368 87.3213 96.9251 87.0852C96.7149 86.8476 96.6098 86.5073 96.6098 86.0643C96.6098 85.6133 96.7197 85.2665 96.9396 85.024C97.1611 84.7815 97.4804 84.6603 97.8975 84.6603C98.1804 84.6603 98.435 84.7128 98.6613 84.8179L98.4892 85.2762C98.2483 85.1825 98.0494 85.1356 97.8926 85.1356C97.4286 85.1356 97.1966 85.4435 97.1966 86.0595C97.1966 86.3602 97.254 86.5865 97.3688 86.7385C97.4852 86.8888 97.655 86.964 97.8781 86.964C98.1319 86.964 98.3719 86.9009 98.5983 86.7749V87.272C98.4964 87.3318 98.3873 87.3746 98.2709 87.4005C98.1561 87.4264 98.0163 87.4393 97.8514 87.4393ZM100.382 87.4393C99.9647 87.4393 99.6382 87.318 99.4021 87.0755C99.1677 86.8314 99.0505 86.496 99.0505 86.0692C99.0505 85.6311 99.1596 85.2867 99.3779 85.0361C99.5961 84.7856 99.896 84.6603 100.278 84.6603C100.632 84.6603 100.911 84.7678 101.117 84.9828C101.322 85.1978 101.425 85.4937 101.425 85.8703V86.1783H99.6374C99.6454 86.4386 99.7158 86.6391 99.8483 86.7797C99.9809 86.9187 100.168 86.9882 100.408 86.9882C100.567 86.9882 100.714 86.9737 100.85 86.9446C100.987 86.9139 101.134 86.8638 101.291 86.7943V87.2574C101.152 87.3237 101.012 87.3706 100.869 87.3981C100.727 87.4256 100.565 87.4393 100.382 87.4393ZM100.278 85.0919C100.096 85.0919 99.951 85.1493 99.8411 85.2641C99.7327 85.3789 99.6681 85.5462 99.6471 85.7661H100.864C100.861 85.5446 100.808 85.3773 100.704 85.2641C100.601 85.1493 100.459 85.0919 100.278 85.0919ZM103.856 86.6269C103.856 86.8888 103.76 87.0901 103.569 87.2307C103.379 87.3698 103.105 87.4393 102.75 87.4393C102.393 87.4393 102.106 87.3851 101.889 87.2768V86.7846C102.204 86.93 102.498 87.0028 102.769 87.0028C103.12 87.0028 103.295 86.8969 103.295 86.6851C103.295 86.6172 103.276 86.5606 103.237 86.5154C103.198 86.4701 103.135 86.4232 103.046 86.3747C102.957 86.3262 102.833 86.2713 102.675 86.2098C102.366 86.0902 102.156 85.9706 102.047 85.8509C101.938 85.7313 101.884 85.5761 101.884 85.3853C101.884 85.1558 101.976 84.9779 102.161 84.8519C102.346 84.7241 102.599 84.6603 102.917 84.6603C103.232 84.6603 103.531 84.7241 103.812 84.8519L103.628 85.2811C103.338 85.1614 103.095 85.1016 102.898 85.1016C102.597 85.1016 102.447 85.1873 102.447 85.3587C102.447 85.4427 102.485 85.5139 102.563 85.5721C102.642 85.6303 102.814 85.7103 103.077 85.8121C103.299 85.8978 103.459 85.9762 103.56 86.0474C103.66 86.1185 103.734 86.2009 103.783 86.2947C103.831 86.3869 103.856 86.4976 103.856 86.6269ZM106.257 86.6269C106.257 86.8888 106.162 87.0901 105.971 87.2307C105.781 87.3698 105.507 87.4393 105.152 87.4393C104.794 87.4393 104.507 87.3851 104.291 87.2768V86.7846C104.606 86.93 104.899 87.0028 105.171 87.0028C105.522 87.0028 105.697 86.8969 105.697 86.6851C105.697 86.6172 105.678 86.5606 105.639 86.5154C105.6 86.4701 105.536 86.4232 105.448 86.3747C105.359 86.3262 105.235 86.2713 105.077 86.2098C104.768 86.0902 104.558 85.9706 104.448 85.8509C104.34 85.7313 104.286 85.5761 104.286 85.3853C104.286 85.1558 104.378 84.9779 104.562 84.8519C104.748 84.7241 105.001 84.6603 105.319 84.6603C105.634 84.6603 105.933 84.7241 106.214 84.8519L106.03 85.2811C105.74 85.1614 105.497 85.1016 105.3 85.1016C104.999 85.1016 104.849 85.1873 104.849 85.3587C104.849 85.4427 104.887 85.5139 104.965 85.5721C105.044 85.6303 105.216 85.7103 105.479 85.8121C105.701 85.8978 105.861 85.9762 105.962 86.0474C106.062 86.1185 106.136 86.2009 106.185 86.2947C106.233 86.3869 106.257 86.4976 106.257 86.6269ZM108.203 85.1404H107.549V87.3908H106.976V85.1404H106.535V84.8737L106.976 84.6991V84.5245C106.976 84.2076 107.051 83.9732 107.2 83.8212C107.348 83.6677 107.575 83.5909 107.881 83.5909C108.081 83.5909 108.279 83.624 108.473 83.6903L108.322 84.1219C108.182 84.0767 108.047 84.054 107.92 84.054C107.79 84.054 107.696 84.0945 107.636 84.1753C107.578 84.2545 107.549 84.3741 107.549 84.5342V84.7088H108.203V85.1404ZM110.535 87.3908L110.455 87.0392H110.426C110.347 87.1637 110.234 87.2615 110.086 87.3326C109.941 87.4037 109.774 87.4393 109.587 87.4393C109.262 87.4393 109.019 87.3585 108.859 87.1968C108.699 87.0351 108.619 86.7902 108.619 86.462V84.7088H109.194V86.3626C109.194 86.5679 109.236 86.7223 109.32 86.8258C109.404 86.9276 109.536 86.9785 109.715 86.9785C109.955 86.9785 110.13 86.9074 110.242 86.7652C110.355 86.6213 110.411 86.3812 110.411 86.0449V84.7088H110.984V87.3908H110.535ZM112.348 87.3908H111.778V83.6175H112.348V87.3908Z" fill="#41AF4B"/>
<path fill-rule="evenodd" clip-rule="evenodd" d="M139.721 118.691H50.6957C48.6057 118.691 46.9106 116.996 46.9106 114.906V111.429C46.9106 109.337 48.6057 107.643 50.6957 107.643H139.721C141.812 107.643 143.507 109.337 143.507 111.429V114.906C143.507 116.996 141.812 118.691 139.721 118.691Z" fill="#DFF4DF"/>
<path fill-rule="evenodd" clip-rule="evenodd" d="M54.0328 131.935H51.226C49.7443 130.817 48.3132 129.65 46.9218 128.417C46.9135 128.326 46.9135 128.243 46.9135 128.152V126.182C49.1492 128.243 51.5322 130.172 54.0328 131.935Z" fill="#95D898"/>
<path fill-rule="evenodd" clip-rule="evenodd" d="M143.509 125.189V127.448C141.796 129.038 140.008 130.527 138.153 131.935H135.34C138.228 129.89 140.96 127.63 143.509 125.189Z" fill="#95D898"/>
<path fill-rule="evenodd" clip-rule="evenodd" d="M143.509 124.675V125.189C140.96 127.63 138.228 129.89 135.34 131.935H54.0325C51.5327 130.172 49.1489 128.244 46.914 126.182V124.675C46.914 122.581 48.6026 120.884 50.6967 120.884H139.718C141.812 120.884 143.509 122.581 143.509 124.675Z" fill="#DFF4DF"/>
<path fill-rule="evenodd" clip-rule="evenodd" d="M135.074 134.128C131.068 136.851 126.764 139.169 122.236 141.048C121.574 141.321 120.904 141.587 120.233 141.842H115.118C115.938 141.595 116.749 141.329 117.552 141.048C122.676 139.293 127.534 136.959 132.046 134.128H135.074Z" fill="#95D898"/>
<path fill-rule="evenodd" clip-rule="evenodd" d="M120.234 141.843C119.505 142.116 118.768 142.381 118.032 142.637C114.953 143.688 111.791 144.541 108.546 145.178H80.8175C77.5728 144.541 74.4109 143.688 71.3318 142.637C70.5951 142.381 69.8584 142.116 69.13 141.843H74.2454C75.189 142.132 76.14 142.397 77.101 142.637C82.7212 144.086 88.6146 144.855 94.6818 144.855C100.749 144.855 106.642 144.086 112.263 142.637C113.223 142.397 114.175 142.132 115.117 141.843H120.234Z" fill="#95D898"/>
<path fill-rule="evenodd" clip-rule="evenodd" d="M74.2457 141.843H69.1295C68.4599 141.586 67.7886 141.321 67.1264 141.048C62.5996 139.177 58.312 136.851 54.3058 134.128H57.327C61.8381 136.967 66.6878 139.293 71.8122 141.048C72.6142 141.329 73.4262 141.594 74.2457 141.843Z" fill="#95D898"/>
<path fill-rule="evenodd" clip-rule="evenodd" d="M132.046 134.128C127.534 136.959 122.676 139.293 117.551 141.048C116.749 141.329 115.937 141.595 115.118 141.842C114.174 142.132 113.223 142.397 112.263 142.637C106.643 144.085 100.749 144.855 94.6814 144.855C88.6142 144.855 82.7208 144.085 77.1006 142.637C76.1404 142.397 75.1894 142.132 74.2458 141.842C73.4263 141.595 72.6143 141.329 71.8114 141.048C66.6878 139.293 61.8382 136.968 57.3263 134.128H132.046Z" fill="#DFF4DF"/>
</svg>
