<?xml version="1.0" encoding="utf-8"?>
<!-- Generator: Adobe Illustrator 23.0.0, SVG Export Plug-In . SVG Version: 6.00 Build 0)  -->
<svg version="1.1" id="Layer_1" xmlns="http://www.w3.org/2000/svg" xmlns:xlink="http://www.w3.org/1999/xlink" x="0px" y="0px"
	 viewBox="0 0 247 45" style="enable-background:new 0 0 247 45;" xml:space="preserve">
<style type="text/css">
	.st0{fill:#FFFFFF;}
</style>
<g>
	<path class="st0" d="M42.3,28.9c-0.9-0.4-1.9,0-2.3,0.9c-2.7,6.5-8.8,10.8-15.7,11.5v-6.8c3.6-0.5,6.9-2.7,8.8-5.9
		c0.5-0.8,0.2-1.9-0.6-2.4c-0.8-0.5-1.9-0.2-2.4,0.6c-1.2,2.1-3.3,3.6-5.7,4.1v-7.8c0-1-0.8-1.8-1.8-1.8c-1,0-1.8,0.8-1.8,1.8V31
		c-3.9-0.8-6.9-4.3-6.9-8.5c0-4.8,3.9-8.7,8.7-8.7c3.3,0,6.4,1.9,7.8,4.9c0.4,0.9,1.5,1.3,2.4,0.8c0.9-0.4,1.3-1.5,0.8-2.4
		c-2-4.2-6.4-6.9-11-6.9c-6.7,0-12.2,5.5-12.2,12.2c0,6.1,4.5,11.2,10.4,12.1v6.8c-9.6-0.9-17.2-9-17.2-18.9
		c0-10.4,8.5-18.9,18.9-18.9C30.1,3.6,36.9,8,39.9,15c0.4,0.9,1.4,1.3,2.3,0.9c0.9-0.4,1.3-1.4,0.9-2.3C39.6,5.3,31.5,0,22.5,0
		C10.1,0,0,10.1,0,22.5S10.1,45,22.5,45c9.1,0,17.2-5.4,20.7-13.7C43.6,30.4,43.2,29.3,42.3,28.9z"/>
	<path class="st0" d="M66.2,27c-2.7,0-4.7-2-4.7-4.7c0-2.8,2-4.8,4.7-4.8c1.8,0,3.3,0.9,4,2.3l3.9-2.3c-1.4-2.7-4.4-4.5-7.8-4.5
		c-5.3,0-9.2,4-9.2,9.2s3.9,9.2,9.2,9.2c3.4,0,6.4-1.8,7.9-4.5l-3.9-2.2C69.5,26.2,68,27,66.2,27z"/>
	<path class="st0" d="M89.8,15.6c-1.3-1.6-3.1-2.5-5.7-2.5c-4.6,0-8.5,4-8.5,9.2s3.8,9.2,8.5,9.2c2.5,0,4.4-1,5.7-2.5V31h4.5V13.6
		h-4.5V15.6z M85,27.2c-2.8,0-4.8-2-4.8-4.9c0-2.9,2.1-4.9,4.8-4.9c2.8,0,4.8,2,4.8,4.9C89.8,25.2,87.8,27.2,85,27.2z"/>
	<path class="st0" d="M103.2,16.6v-3h-4.5V31h4.5v-8.3c0-3.7,3-4.7,5.3-4.4v-5C106.3,13.2,104.2,14.2,103.2,16.6z"/>
	<path class="st0" d="M121.7,13.1c-2.5,0-4.4,0.9-5.6,2.5v-9h-4.5V31h4.5V29c1.3,1.6,3.1,2.5,5.6,2.5c4.7,0,8.5-4,8.5-9.2
		S126.3,13.1,121.7,13.1z M120.8,27.2c-2.8,0-4.8-2-4.8-4.9c0-2.9,2.1-4.9,4.8-4.9c2.8,0,4.8,2,4.8,4.9
		C125.7,25.2,123.6,27.2,120.8,27.2z"/>
	<path class="st0" d="M142,13.1c-5.1,0-9.2,4-9.2,9.2s4.1,9.2,9.2,9.2c5.1,0,9.2-4,9.2-9.2S147.1,13.1,142,13.1z M142,27.1
		c-2.7,0-4.7-2-4.7-4.8c0-2.8,2.1-4.8,4.7-4.8c2.7,0,4.7,2,4.7,4.8C146.7,25.1,144.7,27.1,142,27.1z"/>
	<path class="st0" d="M164.4,13.1c-2.3,0-4.1,0.9-5.2,2.4v-2h-4.5V31h4.5v-9.4c0-3,1.6-4.3,3.8-4.3c2,0,3.5,1.2,3.5,3.6V31h4.5V20.3
		C171,15.7,168.1,13.1,164.4,13.1z"/>
	<path class="st0" d="M183.5,27c-2.7,0-4.7-2-4.7-4.7c0-2.8,2-4.8,4.7-4.8c1.8,0,3.3,0.9,4,2.3l3.9-2.3c-1.4-2.7-4.4-4.5-7.8-4.5
		c-5.3,0-9.2,4-9.2,9.2s3.9,9.2,9.2,9.2c3.4,0,6.4-1.8,7.9-4.5l-3.9-2.2C186.8,26.2,185.3,27,183.5,27z"/>
	<rect x="194.1" y="5.9" class="st0" width="4.5" height="25.1"/>
	<rect x="203.1" y="13.6" class="st0" width="4.5" height="17.4"/>
	<path class="st0" d="M205.3,5.9c-1.5,0-2.8,1.3-2.8,2.8c0,1.5,1.3,2.8,2.8,2.8c1.5,0,2.8-1.3,2.8-2.8
		C208.1,7.2,206.8,5.9,205.3,5.9z"/>
	<path class="st0" d="M220.3,27c-2.7,0-4.7-2-4.7-4.7c0-2.8,2-4.8,4.7-4.8c1.8,0,3.3,0.9,4,2.3l3.9-2.3c-1.4-2.7-4.4-4.5-7.8-4.5
		c-5.3,0-9.2,4-9.2,9.2s3.9,9.2,9.2,9.2c3.4,0,6.4-1.8,7.9-4.5l-3.9-2.2C223.6,26.2,222.1,27,220.3,27z"/>
	<polygon class="st0" points="239.8,22.2 246.8,13.6 241.4,13.6 235.4,21.3 235.4,6.6 230.9,6.6 230.9,31 235.4,31 235.4,23.1 
		241.8,31 247,31 	"/>
</g>
</svg>
