<svg xmlns="http://www.w3.org/2000/svg" viewBox="0 0 76.29 79.15"><defs><style>.cls-1{fill:#2aa43c;}</style></defs><title>Asset 22</title><g id="Layer_2" data-name="Layer 2"><g id="Layer_1-2" data-name="Layer 1"><path class="cls-1" d="M74.38,50.88a3.13,3.13,0,0,0-4.1,1.66A33.25,33.25,0,0,1,42.7,72.73V60.83A21.58,21.58,0,0,0,58.09,50.5a3.13,3.13,0,1,0-5.38-3.19,15.29,15.29,0,0,1-10,7.15V40.79a3.13,3.13,0,0,0-6.25,0v13.7A15.24,15.24,0,1,1,53.32,33,3.13,3.13,0,0,0,59,30.27,21.49,21.49,0,1,0,36.45,60.82V72.74a33.32,33.32,0,1,1,33.7-46.42,3.13,3.13,0,0,0,5.74-2.49A39.57,39.57,0,1,0,76,55,3.13,3.13,0,0,0,74.38,50.88Z"/></g></g></svg>